<?xml version="1.0" encoding="utf-8"?>
<!-- Generator: Adobe Illustrator 16.0.0, SVG Export Plug-In . SVG Version: 6.00 Build 0)  -->
<!DOCTYPE svg PUBLIC "-//W3C//DTD SVG 1.1//EN" "http://www.w3.org/Graphics/SVG/1.1/DTD/svg11.dtd">
<svg version="1.1" id="图层_1" xmlns="http://www.w3.org/2000/svg" xmlns:xlink="http://www.w3.org/1999/xlink" x="0px" y="0px"
	 width="100px" height="100px" viewBox="0 0 100 100" enable-background="new 0 0 100 100" xml:space="preserve">
<g display="none">
	<g display="inline">
		<path fill="#6E6E6E" d="M50.99,6.927l-0.35-0.214C51.378,7.714,51.378,7.246,50.99,6.927L50.99,6.927z M89.76,26.57
			c0.702,0.004,1.377-0.272,1.877-0.766c0.496-0.493,0.778-1.167,0.783-1.868V9.995c-0.008-1.458-1.197-2.637-2.654-2.629H75.713
			c-1.46-0.008-2.646,1.171-2.654,2.629v4.331h-8.627c-0.271-0.045-0.545-0.045-0.813,0h-36.9V9.995
			c-0.008-1.458-1.194-2.637-2.652-2.629H10.011C8.552,7.358,7.366,8.537,7.356,9.995v13.931c0.01,1.458,1.196,2.636,2.655,2.631
			h4.367v45.96h-4.367c-0.701-0.004-1.375,0.271-1.873,0.767c-0.498,0.493-0.78,1.167-0.782,1.87v13.931
			c0.01,1.459,1.196,2.634,2.655,2.629h14.054c0.7,0,1.373-0.272,1.871-0.767c0.498-0.497,0.78-1.166,0.782-1.869v-4.329H73.05
			v4.329c0.003,0.703,0.282,1.372,0.78,1.869c0.497,0.494,1.172,0.767,1.873,0.767h14.054c0.701,0,1.374-0.272,1.872-0.767
			c0.497-0.497,0.78-1.166,0.782-1.869V75.162c-0.002-0.7-0.285-1.373-0.782-1.866c-0.498-0.495-1.171-0.771-1.872-0.771h-4.366
			V35.542c0.006-0.089,0.006-0.179,0-0.269v-8.708h4.377L89.76,26.57z M19.702,45.104c0.159-0.104,0.311-0.224,0.447-0.358
			l25.336-25.142h12.087l-37.87,37.574V45.104z M24.069,26.566c1.458,0.004,2.645-1.172,2.652-2.63v-4.334h11.251L19.696,37.739
			V26.566H24.069z M19.702,64.627l45.384-45.026h7.967v3.234l-50.107,49.69h-3.259v-7.898H19.702L19.702,64.627z M80.08,53.609
			l-25.457,25.25c-0.189,0.188-0.35,0.399-0.473,0.631H42.055L80.08,41.776V53.609z M75.713,72.525
			c-0.701,0-1.377,0.273-1.873,0.771c-0.498,0.493-0.779,1.166-0.781,1.866v4.328H61.512L80.08,61.064v11.461H75.713z M80.08,34.32
			L34.534,79.49h-7.816v-3.247l50.083-49.677h3.279V34.32z"/>
	</g>
</g>
<g display="none">
	<path display="inline" fill="#6E6E6E" d="M49.888,6.713c-23.472,0-42.5,19.029-42.5,42.5s19.028,42.5,42.5,42.5
		c23.471,0,42.5-19.027,42.5-42.5C92.389,25.741,73.359,6.713,49.888,6.713L49.888,6.713z M49.888,83.912
		c-19.164,0-34.7-15.535-34.7-34.699s15.534-34.7,34.7-34.7c19.163,0,34.699,15.536,34.699,34.7S69.051,83.912,49.888,83.912
		L49.888,83.912z"/>
	<path display="inline" fill="#6E6E6E" d="M47.954,29.176c0,2.761,2.241,5.002,5.007,5.002c2.762,0,5.003-2.241,5.003-5.002
		c0-2.767-2.241-5.008-5.003-5.008C50.195,24.17,47.954,26.411,47.954,29.176L47.954,29.176z M51.518,75.258
		c-3.689,0.922-8.801,0.842-11.354-0.186c-2.557-1.023-3.486-4.754-2.064-8.284l6.369-15.871c1.417-3.53-0.426-7.254-4.092-8.272
		l-1.218-0.338c-3.666-1.018-3.594-2.352,0.164-2.96l3.644-0.595c3.757-0.611,8.92-0.274,11.475,0.75
		c2.557,1.027,3.479,4.753,2.054,8.285l-5.937,14.701c-1.43,3.531,0.357,7.312,3.959,8.398c3.607,1.09,3.537,2.734-0.154,3.659
		l-2.842,0.711L51.518,75.258L51.518,75.258z"/>
</g>
<g display="none">
	<g display="inline">
		<path fill="#6E6E6E" d="M49.888,6.713c-23.472,0-42.5,19.029-42.5,42.5s19.028,42.5,42.5,42.5c23.471,0,42.5-19.027,42.5-42.5
			C92.389,25.741,73.359,6.713,49.888,6.713z M54.361,74.547l-2.842,0.711h-0.002c-3.691,0.922-8.803,0.842-11.355-0.186
			c-2.557-1.023-3.486-4.754-2.064-8.284l6.369-15.871c1.417-3.53-0.426-7.254-4.092-8.272l-1.218-0.338
			c-3.666-1.018-3.594-2.352,0.164-2.96l3.644-0.595c3.757-0.611,8.919-0.274,11.475,0.75c2.557,1.027,3.479,4.753,2.054,8.285
			l-5.938,14.701c-1.428,3.531,0.359,7.312,3.961,8.398C58.124,71.977,58.053,73.622,54.361,74.547z M52.961,34.178
			c-2.766,0-5.007-2.241-5.007-5.002c0-2.765,2.241-5.005,5.007-5.008c2.762,0,5.003,2.241,5.003,5.008
			C57.964,31.937,55.723,34.178,52.961,34.178z"/>
	</g>
</g>
<path display="none" fill="#6E6E6E" d="M97.372,44.407L79.967,22.485c-1.922-2.402-5.479-2.402-7.4,0L55.258,44.407
	c-1.346,1.635-0.09,4.134,2.024,4.134h6.823c-0.19,12.783-0.19,29.034-22.593,42.012c-0.577,0.385-0.289,1.25,0.384,1.153
	c42.875-6.634,46.336-35.38,46.434-43.069h7.111C97.563,48.541,98.718,46.042,97.372,44.407L97.372,44.407z M42.569,49.886h-6.824
	c0.192-12.784,0.192-29.035,22.595-42.011c0.577-0.384,0.288-1.25-0.384-1.154c-42.884,6.633-46.344,35.475-46.44,43.069H4.403
	c-2.115,0-3.364,2.499-2.019,4.133l17.398,21.923c1.923,2.403,5.479,2.403,7.401,0l17.405-21.923
	C45.838,52.385,44.685,49.886,42.569,49.886L42.569,49.886z"/>
<path display="none" fill="#6E6E6E" d="M92.389,65.143h-42.5V54.518H23.334v-42.5h37.18v10.625h31.875l-10.625,21.25L92.389,65.143z
	 M12.709,91.714c-2.94,0-5.321-2.381-5.321-5.305V12.034c0-2.941,2.38-5.321,5.321-5.321s5.321,2.379,5.321,5.321v74.375
	C18.013,89.333,15.633,91.714,12.709,91.714L12.709,91.714z"/>
<g display="none">
	<path display="inline" fill="#6E6E6E" d="M80.667,34.834c-2.097,1.822-5.163,1.717-6.858-0.229
		c-1.688-1.948-1.363-5.001,0.732-6.821c2.092-1.822,5.163-1.719,6.857,0.229C83.089,29.959,82.764,33.01,80.667,34.834
		L80.667,34.834z M93.503,26.622L78.331,9.166c-2.579-2.968-7.063-3.287-10.026-0.713L47.113,26.872l4.442,5.114l6.282,7.223
		c0.83,0.951,0.728,2.466-0.274,3.334l-0.181,0.154c-0.998,0.871-2.489,0.784-3.337-0.192l-6.28-7.222l-4.442-5.11l-7.59,6.592
		l3.544,4.068l4.09,4.71c0.88,1.013,0.753,2.499-0.248,3.367l-0.18,0.153c-0.999,0.872-2.501,0.768-3.367-0.224l-4.093-4.711
		l-3.535-4.068l-7.584,6.592l4.442,5.114l6.282,7.227c0.827,0.949,0.721,2.464-0.274,3.33l-0.18,0.154
		c-1.004,0.873-2.493,0.785-3.34-0.188l-6.282-7.227l-4.442-5.109L6.961,61.779c-2.959,2.568-3.267,7.059-0.688,10.023
		l15.172,17.454c2.581,2.972,7.067,3.29,10.027,0.716l61.342-53.327C95.773,34.078,96.084,29.586,93.503,26.622L93.503,26.622z"/>
</g>
<g display="none">
	<path display="inline" fill="#6E6E6E" d="M49.888,6.713c-23.472,0-42.5,19.028-42.5,42.5c0,23.473,19.028,42.5,42.5,42.5
		c23.471,0,42.5-19.027,42.5-42.5C92.389,25.742,73.359,6.713,49.888,6.713L49.888,6.713z M53.518,9.724c0,0,2.662-1.544,3.59-0.617
		c0.927,0.926,4.168-0.154,12.506,4.786c0,0-1.836,1.959-2.236,1.841c0.232,0.426,0.955,1.724,1.466,2.526
		c0.618,0.97,0.771,1.037,0.771,1.037l-0.615,0.927l0.615,0.154c-0.615-0.154-0.926,1.698-1.818,2.007
		c-0.896,0.309,0.273,2.007-0.031,2.316c-0.311,0.309,0.152,3.088,0,4.725c-0.154,1.638-0.771,0.216-1.543,0
		c-0.773-0.215-2.011-0.711-2.113-1.174c-0.106-0.463-0.358-1.853-0.051-2.625c0.309-0.771-0.927-1.544-1.543-2.11
		c-0.617-0.565-3.089,0.104-3.553,0c-0.463-0.103-0.771-1.44-0.771-2.676c0-1.236,2.162,0.154,3.379,0
		c1.218-0.154,1.408-3.232,1.408-3.232l-0.07-2.617c-0.498-0.199-0.579-0.458,0.226-0.79c0,0-2.625-0.617-3.241,0.772
		c-0.617,1.389-0.928,1.255-1.082,2.635s-2.572,0.164-3.14,0c-0.565-0.165-2.11-2.018-2.11-2.018
		c0.465-1.081,0.772-1.853,0.772-1.853l-0.81-1.853V9.724H53.518z M29.159,24.083c0.262-0.35,2.008-3.396,4.169-2.47
		c2.162,0.926,3.551-1.081,3.551-1.081s3.174-3.242,3.363-2.779l0.189,0.463c-0.189-0.463,2.625-1.235,2.934,0.31
		c0.309,1.544,2.162,2.32,2.162,2.32s-1.081,1.848-0.772,3.237c0.309,1.391,1.389,1.699,0.772,2.935
		c-0.618,1.234-1.853,1.698-2.162,2.315c-0.309,0.618-2.848-2.007-3.123-2.934c-0.275-0.926-1.631-1.853-2.806-1.544
		s-4.263,1.081-4.88,0.772C31.939,25.318,28.436,25.049,29.159,24.083L29.159,24.083z M70.539,69.479
		c-1.234,3.242-4.168,8.803-5.712,10.348c-1.545,1.545-3.397,4.479-4.787,5.559s-1.39,3.09-3.088,2.936
		c-1.699-0.154-3.706-4.941-3.243-6.176c0.464-1.236-8.492-3.398-8.492-3.398s-3.86-0.463-4.632-7.873
		c-0.137-1.32-0.226-2.256-0.279-2.906c-1.16-0.512-5.71-2.396-8.522-1.727c-3.243,0.771-4.015-1.029-6.794-1.441l-4.787-4.426
		c0,0-7.874-9.109-6.948-10.654c0.926-1.544,0.926-5.713,1.081-6.64c0.155-0.926-1.232-6.794-1.157-7.565
		c0.076-0.772-1.159-3.706-1.159-3.706s2.934-6.177,3.397-6.177s2.162,5.25,3.86,5.404c1.698,0.154,6.33-0.154,7.025-0.926
		c0.695-0.772,1.313-1.698,2.084-1.698s0.772-0.464,2.162,0.154c1.389,0.617,2.934,1.544,3.551,2.47
		c0.618,0.927-0.463,2.779,2.779,2.779c3.243,0,3.243-0.771,3.706,1.39c0.463,2.162,1.012,6.948-0.343,7.258
		c-1.355,0.309-5.37,5.009-5.061,6.519c0.309,1.51,0.309,3.826-0.309,5.216c-0.617,1.389-1.081,1.852-3.396,1.697
		c-2.315-0.156-4.274-1.391-4.917,0.463c-0.642,1.854-1.871,6.025,0.285,5.605c0,0,3.396-1.033,4.632,0
		c1.235,1.033,9.11,4.432,9.11,4.432s7.103-7.723,18.22-2.779l1.854,1.236l3.089-0.672c0,0,4.015-1.184,5.403-0.873l1.391,0.309
		v-0.617C70.539,62.994,71.773,66.236,70.539,69.479L70.539,69.479z M88.604,51.878c0,0-0.926-1.391-0.926-2.852
		c0-1.462-1.08-1.318-1.08-3.171s-1.391-1.235-2.316-2.47c-0.926-1.235-1.389,0.463-2.16,0.617s-0.618,1.39-1.391,2.856
		c-0.771,1.467-2.778,2.394-3.396,2.118c-0.618-0.273-2.937-2.35-3.089-2.813c-0.155-0.463-3.243-3.088-3.157-3.705
		c0.086-0.618-0.856-3.86-1.476-5.404c-0.617-1.544,0-7.628,0-7.628c-0.928-0.524,8.492-4.416,7.258-4.879
		c-1.234-0.464-1.854-5.559-1.854-5.559l4.494,2.315c4.494,2.316,10.174,20.691,10.174,20.691v5.249L88.604,51.878z"/>
</g>
<g display="none">
	<rect x="38.409" y="15.26" display="inline" fill="#282828" width="23.182" height="69.544"/>
	<path display="inline" fill="#282828" d="M84.773,7.533H92.5v85h-7.727V7.533z M7.5,7.533h7.727v85H7.5V7.533z"/>
</g>
<g display="none">
	<path display="inline" fill="#6E6E6E" d="M44.908,84.934H23.062c-1.796,0-3.143-1.348-3.143-3.143V19.094
		c0-1.796,1.347-3.143,3.143-3.143h50.127c1.795,0,3.143,1.347,3.143,3.143v18.854c0,1.795,1.348,3.143,3.143,3.143
		s3.144-1.347,3.144-3.143V19.094c0-5.237-4.188-9.427-9.429-9.427H23.062c-5.237,0-9.427,4.19-9.427,9.427v62.697
		c0,5.236,4.189,9.428,9.427,9.428h21.996c1.796,0,3.143-1.348,3.143-3.144S46.704,84.934,44.908,84.934L44.908,84.934z"/>
	<path display="inline" fill="#6E6E6E" d="M70.047,31.664c0-1.796-1.347-3.143-3.143-3.143H29.347c-1.795,0-3.143,1.347-3.143,3.143
		c0,1.795,1.347,3.142,3.143,3.142h37.557C68.551,34.806,70.047,33.309,70.047,31.664L70.047,31.664z M46.405,50.368
		c0-1.795-1.347-3.142-3.142-3.142H29.347c-1.795,0-3.143,1.347-3.143,3.142c0,1.795,1.347,3.142,3.143,3.142h13.916
		C44.908,53.51,46.405,52.163,46.405,50.368L46.405,50.368z M29.347,66.079c-1.795,0-3.143,1.347-3.143,3.144
		c0,1.795,1.347,3.144,3.143,3.144h9.427c1.795,0,3.142-1.349,3.142-3.144c0-1.797-1.347-3.144-3.142-3.144H29.347z M97.279,89.422
		L84.561,77.303c2.097-2.994,3.592-6.584,3.893-10.476C89.648,55.006,81.42,44.981,69.6,43.784
		c-11.82-1.197-21.848,7.032-23.043,18.854c-1.197,11.819,7.033,21.846,18.854,23.043c5.236,0.598,10.175-0.748,14.064-3.44
		l12.869,12.271L97.279,89.422z M66.156,78.648c-7.631-0.748-13.317-7.633-12.568-15.412C54.336,55.604,61.219,49.919,69,50.667
		c7.631,0.748,13.316,7.631,12.568,15.412C80.82,73.711,73.788,79.396,66.156,78.648L66.156,78.648z"/>
</g>
<g display="none">
	<g display="inline">
		<path fill="#0D745F" d="M80.066,76.188v2.25c0,4.658-12.203,8.646-12.203,8.646l-5.086-0.646c0,0-8.133-1.017-13.221-1.017
			c-5.082,0-13.221,1.017-13.221,1.017l-5.048,0.633c0,0-12.241-3.991-12.241-8.631v-2.25c0-4.328,5.643-8.696,12.255-12.047
			c0.321-0.162,4.293,22.342,4.293,22.342l1.758-0.047c0,0-3.396-23.232-3.051-23.392c1.831-0.838,3.035-1.622,4.835-2.271
			c0.668-0.244,3.862-1.979,2.075-6.648c-4.137-4.217-6.955-8.302-6.955-17.517h30.697c0,9.118-2.891,13.242-6.999,17.465h0.022
			c-1.746,5.298,1.047,6.554,1.491,6.698c1.781,0.588,3.556,1.51,5.345,2.271c0.441,0.188-3.053,23.393-3.053,23.393l1.857-0.051
			c0,0,3.787-22.429,4.175-22.238C74.507,67.436,80.066,71.771,80.066,76.188L80.066,76.188z M67.055,26.907
			c0-10.589-14.418-15.882-14.418-15.882c-2.043-0.921-4.07-0.711-6.159,0c0,0-14.42,4.647-14.42,15.882
			c0,1.679-3.048,1.318-4.057,6.631h43.11C69.277,28.189,67.055,28.586,67.055,26.907L67.055,26.907z"/>
	</g>
</g>
<g display="none">
	<polygon display="inline" fill="#0D745F" points="33.196,52.354 43.955,52.354 43.955,25.727 58.807,25.727 58.807,52.354 
		68.964,52.354 58.813,64.409 58.813,64.441 58.775,64.441 51.396,73.205 	"/>
	<path display="inline" fill="#0D745F" d="M51.081,7.719c-23.063,0-41.751,18.688-41.751,41.75c0,23.058,18.688,41.75,41.751,41.75
		c23.065,0,41.75-18.684,41.75-41.75C92.831,26.407,74.137,7.719,51.081,7.719L51.081,7.719z M51.081,85.648
		c-19.987,0-36.186-16.203-36.186-36.188c0-19.982,16.198-36.182,36.186-36.182c19.981,0,36.181,16.199,36.181,36.182
		C87.256,69.449,71.068,85.648,51.081,85.648L51.081,85.648z"/>
</g>
<g display="none">
	<path display="inline" fill="#6E6E6E" d="M40.316,28.712c0,1.348-1.054,2.441-2.357,2.441H13.388
		c-1.324-0.024-2.38-1.116-2.357-2.441c0-1.347,1.054-2.44,2.357-2.44h24.566C39.257,26.271,40.316,27.36,40.316,28.712
		L40.316,28.712z M88.857,28.712c0,1.348-1.062,2.441-2.357,2.441H61.934c-1.324-0.024-2.379-1.116-2.356-2.441
		c0-1.347,1.06-2.44,2.356-2.44H86.5C87.797,26.271,88.857,27.36,88.857,28.712L88.857,28.712z M25.673,20.322
		c-0.859,0-1.684,0.342-2.292,0.949c-0.608,0.608-0.949,1.432-0.949,2.292h6.482c0-0.86-0.341-1.684-0.949-2.292
		C27.357,20.664,26.533,20.322,25.673,20.322L25.673,20.322z M74.712,20.322c-1.79,0-3.239,1.451-3.239,3.241h6.48
		C77.953,21.773,76.503,20.322,74.712,20.322L74.712,20.322z M23.003,33.818c-0.161,0.362-0.244,0.754-0.245,1.151v6.287
		c0,1.635,1.377,2.958,3.076,2.958c1.698,0,3.075-1.323,3.075-2.958v-6.282c0-0.397-0.083-0.79-0.245-1.151h-5.661V33.818z
		 M72.042,33.818c-0.155,0.363-0.237,0.755-0.237,1.151v6.287c0,1.635,1.37,2.958,3.074,2.958c1.703,0,3.074-1.323,3.074-2.958
		v-6.282c0-0.397-0.082-0.79-0.245-1.151h-5.666V33.818z"/>
	<path display="inline" fill="#6E6E6E" d="M73.223,42.54H27.845v-4.881h43.928L73.223,42.54z M35.225,46.303
		c0,0-12.607,12.457-10.918,32.845h4.466c0,0-0.761-18.401,10.016-29.793L35.225,46.303z M65.479,46.303
		c0,0,12.606,12.457,10.918,32.845H71.93c0,0,0.762-18.401-10.016-29.793L65.479,46.303z"/>
	<path display="inline" fill="#6E6E6E" d="M24.355,79.201c0,1.229,0.995,2.221,2.221,2.221c1.227,0,2.221-0.992,2.221-2.221
		c0-1.227-0.994-2.221-2.221-2.221C25.35,76.98,24.355,77.975,24.355,79.201L24.355,79.201z"/>
	<path display="inline" fill="#6E6E6E" d="M71.832,79.188c0,1.25,1.016,2.265,2.266,2.265c1.252,0,2.266-1.015,2.266-2.265
		c0-1.252-1.014-2.267-2.266-2.267C72.848,76.921,71.832,77.936,71.832,79.188L71.832,79.188z"/>
	<path display="inline" fill="#6E6E6E" d="M40.917,60.055v12.2h18.547v-12.2H40.917z M47.501,64.021h-4.325v-2.362h4.325V64.021z
		 M53.241,69.205c-1.687,0-3.051-1.367-3.051-3.051c0-1.686,1.365-3.051,3.051-3.051c1.684,0,3.051,1.365,3.051,3.051
		C56.292,67.838,54.925,69.205,53.241,69.205L53.241,69.205z M46.041,56.432h8.299v2.441h-8.299V56.432z M37.456,42.54
		c0,0,4.071,3.583,7.019,7.829c2.611,3.764,3.05,6.063,3.05,6.063h6.18c0,0,4.65-12.212,9.46-13.892
		c3.681-1.289,4.108-4.753-3.595-7.727c-7.7-2.972-17.083-2.597-23.793,2.845c-5.496,4.456,0,3.1,0,3.1L37.456,42.54z"/>
</g>
<g display="none">
	<g display="inline">
		<path fill="#0D745F" d="M35.409,61.561h-7.15v-9.004l-6.884-1.324v28.863l6.884-2.384V67.648h11.122l6.09-8.209l-7.943-4.236
			L35.409,61.561z M71.422,63.413l16.152-10.328L37.263,20.25h-5.826l-7.944,12.445v4.237l44.222,26.746h3.707V63.413z
			 M65.332,65.529L27.201,40.905l-3.973,4.236L67.45,71.885h3.972l2.117-2.117l2.119-6.09c0,0-5.825,4.236-6.092,4.236
			C67.186,66.325,65.332,65.529,65.332,65.529L65.332,65.529z"/>
	</g>
</g>
<g>
	<g>
		<path fill="#6E6E6E" d="M88.163,64.104L67.1,51.271v7.359l-36.045-0.004c-3.509-0.007-6.348-2.787-6.351-6.223
			c0.002-3.433,2.843-6.212,6.351-6.216c3.509,0.004,6.346,2.783,6.352,6.216v3.337h10.163v-3.337
			c0-8.93-7.392-16.167-16.517-16.167c-9.122,0.003-16.511,7.24-16.515,16.169c0.002,8.931,7.394,16.171,16.517,16.175h36.043v8.354
			L88.163,64.104z M37.618,87.413h10.165v-15.69H37.618V87.413z M51.454,87.413h10.167V71.725H51.454V87.413z M51.454,55.691h10.167
			V34.406h7.622l-13.106-20.62L43.03,34.406h8.427v21.288h-0.003V55.691z"/>
	</g>
</g>
</svg>
