<?xml version="1.0" encoding="utf-8"?>
<!-- Generator: Adobe Illustrator 16.0.0, SVG Export Plug-In . SVG Version: 6.00 Build 0)  -->
<!DOCTYPE svg PUBLIC "-//W3C//DTD SVG 1.1//EN" "http://www.w3.org/Graphics/SVG/1.1/DTD/svg11.dtd">
<svg version="1.1" id="图层_1" xmlns="http://www.w3.org/2000/svg" xmlns:xlink="http://www.w3.org/1999/xlink" x="0px" y="0px"
	 width="100px" height="100px" viewBox="0 0 100 100" enable-background="new 0 0 100 100" xml:space="preserve">
<g>
	<g>
		<path fill="#6E6E6E" d="M50.99,6.927l-0.35-0.214C51.378,7.714,51.378,7.246,50.99,6.927L50.99,6.927z M89.76,26.57
			c0.702,0.004,1.377-0.272,1.876-0.766c0.497-0.493,0.779-1.167,0.784-1.868V9.995c-0.008-1.458-1.197-2.637-2.654-2.629H75.713
			c-1.46-0.008-2.646,1.171-2.654,2.629v4.331h-8.628c-0.271-0.045-0.545-0.045-0.813,0h-36.9V9.995
			c-0.008-1.458-1.194-2.637-2.652-2.629H10.011C8.552,7.358,7.366,8.537,7.356,9.995v13.931c0.01,1.458,1.196,2.636,2.655,2.631
			h4.367v45.961h-4.367c-0.701-0.004-1.375,0.272-1.873,0.766c-0.498,0.494-0.78,1.167-0.782,1.871v13.93
			c0.01,1.459,1.196,2.634,2.655,2.629h14.054c0.7,0,1.373-0.272,1.871-0.766c0.498-0.498,0.78-1.167,0.782-1.87v-4.329h46.332
			v4.329c0.002,0.703,0.282,1.372,0.78,1.87c0.497,0.493,1.172,0.766,1.873,0.766h14.054c0.701,0,1.374-0.272,1.872-0.766
			c0.497-0.498,0.78-1.167,0.782-1.87V75.162c-0.002-0.7-0.285-1.373-0.782-1.866c-0.498-0.495-1.171-0.771-1.872-0.771h-4.367
			V35.542c0.007-0.089,0.007-0.179,0-0.269v-8.708h4.377L89.76,26.57z M19.702,45.104c0.159-0.104,0.311-0.224,0.447-0.358
			l25.336-25.142h12.087L19.702,57.177V45.104z M24.069,26.566c1.458,0.004,2.645-1.172,2.652-2.63v-4.334h11.251L19.696,37.739
			V26.566H24.069z M19.702,64.627l45.384-45.026h7.967v3.234l-50.107,49.69h-3.259v-7.898H19.702z M80.08,53.609l-25.457,25.25
			c-0.189,0.188-0.349,0.401-0.473,0.631H42.055L80.08,41.776V53.609z M75.713,72.525c-0.702,0-1.377,0.275-1.873,0.771
			c-0.498,0.493-0.779,1.166-0.781,1.866v4.328H61.512L80.08,61.064v11.461H75.713z M80.08,34.32L34.534,79.49h-7.816v-3.247
			l50.083-49.677h3.279V34.32z M80.08,34.32"/>
	</g>
</g>
<g display="none">
	<path display="inline" fill-rule="evenodd" clip-rule="evenodd" fill="#6E6E6E" d="M49.888,6.713c-23.472,0-42.5,19.029-42.5,42.5
		s19.028,42.5,42.5,42.5c23.471,0,42.5-19.028,42.5-42.5S73.359,6.713,49.888,6.713L49.888,6.713z M49.888,83.912
		c-19.164,0-34.7-15.535-34.7-34.699s15.534-34.7,34.7-34.7c19.163,0,34.699,15.536,34.699,34.7S69.051,83.912,49.888,83.912
		L49.888,83.912z"/>
	<path display="inline" fill-rule="evenodd" clip-rule="evenodd" fill="#6E6E6E" d="M47.954,29.176c0,2.761,2.241,5.002,5.007,5.002
		c2.762,0,5.003-2.241,5.003-5.002c0-2.767-2.241-5.008-5.003-5.008C50.195,24.17,47.954,26.411,47.954,29.176L47.954,29.176z
		 M51.518,75.258c-3.691,0.922-8.801,0.841-11.355-0.185c-2.557-1.024-3.486-4.754-2.064-8.285l6.369-15.871
		c1.417-3.53-0.426-7.254-4.092-8.272l-1.218-0.338c-3.666-1.018-3.594-2.352,0.164-2.96l3.644-0.595
		c3.757-0.611,8.919-0.274,11.474,0.75c2.556,1.027,3.479,4.753,2.053,8.285l-5.937,14.702c-1.428,3.53,0.359,7.311,3.96,8.398
		c3.608,1.09,3.537,2.735-0.154,3.66l-2.842,0.711H51.518L51.518,75.258z"/>
</g>
<path display="none" fill="#6E6E6E" d="M97.372,44.407L79.967,22.485c-1.922-2.402-5.479-2.402-7.401,0L55.258,44.407
	c-1.346,1.635-0.09,4.134,2.024,4.134h6.824c-0.191,12.783-0.191,29.034-22.594,42.011c-0.577,0.385-0.289,1.25,0.384,1.154
	c42.876-6.634,46.337-35.38,46.434-43.069h7.111C97.563,48.541,98.718,46.042,97.372,44.407L97.372,44.407z M42.569,49.886h-6.824
	c0.192-12.784,0.192-29.035,22.595-42.011c0.577-0.384,0.288-1.25-0.384-1.154c-42.884,6.633-46.344,35.475-46.44,43.069H4.403
	c-2.115,0-3.364,2.499-2.019,4.133l17.398,21.923c1.923,2.403,5.479,2.403,7.401,0l17.405-21.923
	C45.838,52.385,44.685,49.886,42.569,49.886L42.569,49.886z M42.569,49.886"/>
<path display="none" fill="#6E6E6E" d="M92.388,65.143H49.889V54.518H23.334v-42.5h37.179v10.625h31.875l-10.625,21.25
	L92.388,65.143z M12.709,91.714c-2.94,0-5.321-2.381-5.321-5.305V12.034c0-2.941,2.38-5.321,5.321-5.321
	c2.941,0,5.321,2.379,5.321,5.321v74.375C18.013,89.333,15.633,91.714,12.709,91.714L12.709,91.714z M12.709,91.714"/>
<g display="none">
	<path display="inline" fill-rule="evenodd" clip-rule="evenodd" fill="#6E6E6E" d="M80.667,34.834
		c-2.097,1.822-5.163,1.717-6.858-0.229c-1.688-1.948-1.364-5.001,0.732-6.821c2.092-1.822,5.163-1.719,6.858,0.229
		C83.089,29.959,82.764,33.01,80.667,34.834L80.667,34.834z M93.503,26.622L78.331,9.166c-2.579-2.968-7.064-3.287-10.027-0.713
		L47.113,26.872l4.442,5.114l6.282,7.223c0.83,0.951,0.727,2.466-0.274,3.334l-0.181,0.154c-0.998,0.871-2.489,0.784-3.337-0.192
		l-6.28-7.222l-4.442-5.11l-7.59,6.592l3.544,4.068l4.09,4.71c0.88,1.013,0.753,2.499-0.248,3.367l-0.18,0.153
		c-0.999,0.872-2.501,0.768-3.367-0.224l-4.093-4.711l-3.535-4.068l-7.584,6.592l4.442,5.113l6.282,7.226
		c0.827,0.951,0.721,2.464-0.274,3.332l-0.18,0.153c-1.004,0.874-2.493,0.786-3.34-0.188l-6.282-7.226l-4.442-5.11L6.961,61.779
		c-2.959,2.569-3.267,7.059-0.688,10.024l15.172,17.455c2.581,2.971,7.067,3.29,10.027,0.714l61.343-53.325
		C95.773,34.078,96.084,29.586,93.503,26.622L93.503,26.622z"/>
</g>
<g display="none">
	<path display="inline" fill="#6E6E6E" d="M49.888,6.713c-23.472,0-42.5,19.028-42.5,42.5c0,23.472,19.028,42.5,42.5,42.5
		c23.471,0,42.5-19.027,42.5-42.5C92.388,25.742,73.359,6.713,49.888,6.713L49.888,6.713z M53.518,9.724
		c0,0,2.662-1.544,3.589-0.617c0.926,0.926,4.168-0.154,12.507,4.786c0,0-1.836,1.959-2.238,1.841
		c0.234,0.426,0.955,1.724,1.466,2.526c0.618,0.97,0.772,1.037,0.772,1.037l-0.617,0.927l0.617,0.154
		c-0.617-0.154-0.927,1.698-1.82,2.007c-0.895,0.309,0.275,2.007-0.033,2.316c-0.309,0.309,0.154,3.088,0,4.725
		c-0.154,1.638-0.771,0.216-1.543,0c-0.773-0.215-2.009-0.711-2.113-1.174c-0.106-0.463-0.358-1.853-0.05-2.625
		c0.309-0.771-0.926-1.544-1.543-2.11c-0.618-0.565-3.088,0.104-3.552,0c-0.463-0.103-0.772-1.44-0.772-2.676s2.162,0.154,3.379,0
		s1.408-3.232,1.408-3.232l-0.07-2.617c-0.499-0.199-0.58-0.458,0.225-0.79c0,0-2.625-0.617-3.242,0.772s-0.927,1.255-1.081,2.635
		s-2.573,0.164-3.14,0c-0.566-0.165-2.11-2.018-2.11-2.018c0.464-1.081,0.772-1.853,0.772-1.853l-0.81-1.853V9.724z M29.159,24.083
		c0.262-0.35,2.008-3.396,4.169-2.47c2.162,0.926,3.551-1.081,3.551-1.081s3.174-3.242,3.363-2.779l0.189,0.463
		c-0.189-0.463,2.625-1.235,2.934,0.31c0.309,1.544,2.162,2.32,2.162,2.32s-1.081,1.848-0.772,3.237
		c0.309,1.391,1.389,1.699,0.772,2.935c-0.618,1.234-1.853,1.698-2.162,2.315c-0.309,0.618-2.848-2.007-3.123-2.934
		c-0.275-0.926-1.631-1.853-2.806-1.544c-1.175,0.309-4.263,1.081-4.88,0.772S28.436,25.049,29.159,24.083L29.159,24.083z
		 M70.539,69.479c-1.234,3.242-4.168,8.803-5.712,10.346c-1.545,1.545-3.397,4.477-4.787,5.559c-1.39,1.08-1.39,3.088-3.088,2.934
		c-1.699-0.154-3.706-4.941-3.243-6.176c0.464-1.236-8.492-3.398-8.492-3.398s-3.86-0.463-4.632-7.873
		c-0.137-1.32-0.226-2.256-0.279-2.906c-1.16-0.512-5.71-2.396-8.522-1.727c-3.243,0.771-4.015-1.029-6.794-1.441l-4.787-4.426
		c0,0-7.874-9.109-6.948-10.654c0.926-1.544,0.926-5.713,1.081-6.64c0.155-0.926-1.232-6.794-1.157-7.565
		c0.076-0.772-1.159-3.706-1.159-3.706s2.934-6.177,3.397-6.177c0.463,0,2.162,5.25,3.86,5.404c1.698,0.154,6.33-0.154,7.025-0.926
		c0.695-0.772,1.313-1.698,2.084-1.698s0.772-0.464,2.162,0.154c1.389,0.617,2.934,1.544,3.551,2.47
		c0.618,0.927-0.463,2.779,2.779,2.779c3.243,0,3.243-0.771,3.706,1.39c0.463,2.162,1.012,6.948-0.343,7.258
		c-1.355,0.309-5.37,5.009-5.061,6.519s0.309,3.826-0.309,5.216c-0.617,1.389-1.081,1.852-3.396,1.697s-4.274-1.389-4.917,0.463
		c-0.642,1.854-1.871,6.027,0.285,5.607c0,0,3.396-1.035,4.632,0c1.235,1.033,9.11,4.43,9.11,4.43s7.103-7.721,18.219-2.779
		l1.853,1.236l3.089-0.672c0,0,4.014-1.182,5.404-0.873l1.39,0.309v-0.617C70.539,62.994,71.774,66.236,70.539,69.479L70.539,69.479
		z M88.604,51.878c0,0-0.927-1.391-0.927-2.852c0-1.462-1.08-1.318-1.08-3.171s-1.39-1.235-2.316-2.47
		c-0.926-1.235-1.389,0.463-2.161,0.617s-0.618,1.39-1.39,2.856c-0.772,1.467-2.779,2.394-3.396,2.118
		c-0.618-0.273-2.935-2.35-3.089-2.813c-0.155-0.463-3.243-3.088-3.157-3.705c0.086-0.618-0.857-3.86-1.475-5.404s0-7.628,0-7.628
		c-0.927-0.524,8.492-4.416,7.257-4.879c-1.235-0.464-1.853-5.559-1.853-5.559l4.494,2.315c4.495,2.316,10.174,20.691,10.174,20.691
		v5.249L88.604,51.878z M88.604,51.878"/>
</g>
</svg>
