<?xml version="1.0" encoding="utf-8"?>
<!-- Generator: Adobe Illustrator 16.0.0, SVG Export Plug-In . SVG Version: 6.00 Build 0)  -->
<!DOCTYPE svg PUBLIC "-//W3C//DTD SVG 1.1//EN" "http://www.w3.org/Graphics/SVG/1.1/DTD/svg11.dtd">
<svg version="1.1" id="图层_1" xmlns="http://www.w3.org/2000/svg" xmlns:xlink="http://www.w3.org/1999/xlink" x="0px" y="0px"
	 width="200px" height="200px" viewBox="0 984.099 200 200" enable-background="new 0 984.099 200 200" xml:space="preserve">
<g>
	<path fill="#282828" d="M87.154,1112.018v24.879c0,0,0,0.133,0.141,0.133h24.879c0,0,0.134,0,0.134-0.133v-24.879H87.154z"/>
	<path fill="#282828" d="M49.416,1075.372C49.278,1075.372,49.278,1075.506,49.416,1075.372l-0.137,24.879c0,0,0,0.152,0.137,0.152
		H74.31v-24.897c0,0,0-0.134-0.146-0.134H49.416z"/>
	<path fill="#282828" d="M49.278,1112.018v24.879c0,0,0,0.133,0.137,0.133H74.31c0,0,0.134,0,0.134-0.133v-24.879H49.278z"/>
	<path fill="#282828" d="M150.866,1032.588c4.512,0.409,8.475-3.145,8.475-7.656v-19.417c0-4.786-4.377-8.608-9.3-7.522
		c-3.691,0.695-6.148,4.103-6.148,9.57v16.961C143.746,1028.619,146.758,1032.314,150.866,1032.588L150.866,1032.588z"/>
	<path fill="#282828" d="M45.593,1032.454c4.923,0.951,9.3-2.743,9.3-7.522v-19.417c0-4.511-3.835-8.065-8.489-7.663
		c-4.094,0.427-6.965,3.975-6.965,8.072v17.094C39.573,1028.346,42.042,1031.76,45.593,1032.454L45.593,1032.454z"/>
	<path fill="#282828" d="M168.503,1016.727v7.389c0,8.882-6.565,16.807-15.457,17.49c-10.11,0.963-18.584-7.104-18.584-16.948
		v-7.798c0,0,0-0.133-0.138-0.133H64.317c0,0-0.14,0-0.14,0.133v7.256c0,8.882-6.56,16.807-15.439,17.49
		c-10.111,0.963-18.6-7.104-18.6-16.948v-7.798c0,0,0-0.133-0.134-0.133c-10.114,0-18.316,8.205-18.316,18.453v117.023
		c0,9.432,7.66,16.961,16.954,16.961h141.086c9.297,0,16.96-7.523,16.96-16.961v-117.299
		C186.683,1024.791,178.617,1016.727,168.503,1016.727L168.503,1016.727z M165.629,1148.247c-3.558,3.548-7.932,3.956-9.166,3.956
		H42.45c-7.66,0-13.808-6.139-13.808-13.801v-80.66c0,0,0-0.141,0.14-0.141h140.803c0,0,0.138,0,0.138,0.141l0.146,81.202
		C169.723,1141.005,169.046,1144.961,165.629,1148.247L165.629,1148.247z"/>
	<path fill="#282828" d="M124.891,1075.506v24.897c0,0,0,0.134,0.134,0.134h24.742c0,0,0.137,0,0.137-0.134v-25.031
		L124.891,1075.506C124.891,1075.372,124.891,1075.506,124.891,1075.506L124.891,1075.506z"/>
	<path fill="#282828" d="M124.891,1112.018v24.879c0,0,0,0.133,0.134,0.133h24.742c0,0,0.137,0,0.137-0.133v-24.879H124.891z"/>
	<path fill="#282828" d="M87.154,1075.506v24.897c0,0,0,0.134,0.141,0.134h24.879c0,0,0.134,0,0.134-0.134v-25.031L87.154,1075.506
		C87.154,1075.372,87.154,1075.506,87.154,1075.506L87.154,1075.506z"/>
</g>
</svg>
