<?xml version="1.0" encoding="utf-8"?>
<!-- Generator: Adobe Illustrator 16.0.0, SVG Export Plug-In . SVG Version: 6.00 Build 0)  -->
<!DOCTYPE svg PUBLIC "-//W3C//DTD SVG 1.1//EN" "http://www.w3.org/Graphics/SVG/1.1/DTD/svg11.dtd">
<svg version="1.1" id="图层_1" xmlns="http://www.w3.org/2000/svg" xmlns:xlink="http://www.w3.org/1999/xlink" x="0px" y="0px"
	 width="100px" height="100px" viewBox="0 0 100 100" enable-background="new 0 0 100 100" xml:space="preserve">
<g display="none">
	<g display="inline">
		<g>
			<path fill="#0B7D5D" d="M79.017,13.75H20.479c-4.268,0-7.728,3.459-7.728,7.728v58.537c0,4.269,3.459,7.728,7.728,7.728h58.537
				c4.268,0,7.728-3.46,7.728-7.728V21.478C86.744,17.209,83.284,13.75,79.017,13.75L79.017,13.75z M77.015,35.712L40.94,70.694
				c-0.613,0.596-1.408,0.892-2.201,0.892c-0.81,0-1.619-0.309-2.236-0.927L22.447,56.604c-1.236-1.235-1.236-3.478,0-4.713
				c1.235-1.234,3.235-1.476,4.47-0.241l11.855,11.854l33.842-32.814c1.252-1.213,3.25-0.945,4.47,0.311
				C78.298,32.254,78.27,34.496,77.015,35.712L77.015,35.712z M77.015,35.712"/>
		</g>
	</g>
</g>
<g display="none">
	<path display="inline" fill="#505151" d="M79.017,18.75c1.504,0,2.728,1.224,2.728,2.728v58.537c0,1.504-1.224,2.728-2.728,2.728
		H20.479c-1.504,0-2.728-1.224-2.728-2.728V21.478c0-1.504,1.224-2.728,2.728-2.728H79.017 M79.017,13.75H20.479
		c-4.268,0-7.728,3.459-7.728,7.728v58.537c0,4.269,3.459,7.728,7.728,7.728h58.537c4.268,0,7.728-3.46,7.728-7.728V21.478
		C86.744,17.209,83.284,13.75,79.017,13.75L79.017,13.75z"/>
</g>
<path display="none" fill="#0B7D5D" d="M77.015,35.712"/>
<polygon fill="#505151" points="21.5,17.898 78.963,51.074 21.5,84.25 "/>
</svg>
