<?xml version="1.0" encoding="utf-8"?>
<!-- Generator: Adobe Illustrator 16.0.0, SVG Export Plug-In . SVG Version: 6.00 Build 0)  -->
<!DOCTYPE svg PUBLIC "-//W3C//DTD SVG 1.1//EN" "http://www.w3.org/Graphics/SVG/1.1/DTD/svg11.dtd">
<svg version="1.1" id="图层_1" xmlns="http://www.w3.org/2000/svg" xmlns:xlink="http://www.w3.org/1999/xlink" x="0px" y="0px"
	 width="200px" height="200px" viewBox="0 228.023 200 200" enable-background="new 0 228.023 200 200" xml:space="preserve">
<g>
	<path fill="#282828" d="M159.232,293.983c-1.777-36.731-36.885-43.152-42.952-43.843c-35.252-4.019-46.506,29.325-47.398,29.325
		c-30.854-16.704-32.289,16.589-33.472,17.479c-10.958,2.668-24.326,11.565-23.7,24.882c1.176,25.066,20.011,30.972,31.983,32.188
		l93.77-82.36l-14.244,58.92l41.74,0.431l-26.31,24.36c37.042,5.495,46.145-16.334,46.845-19.316
		C193.254,303.025,160.713,292.497,159.232,293.983L159.232,293.983z"/>
	<path fill="#282828" d="M144.347,339.872l-32.237-0.335l13.574-49.212l-70.657,64.29h31.04l-26.49,63.734L144.347,339.872z"/>
</g>
</svg>
