<?xml version="1.0" encoding="utf-8"?>
<!-- Generator: Adobe Illustrator 16.0.0, SVG Export Plug-In . SVG Version: 6.00 Build 0)  -->
<!DOCTYPE svg PUBLIC "-//W3C//DTD SVG 1.1//EN" "http://www.w3.org/Graphics/SVG/1.1/DTD/svg11.dtd">
<svg version="1.1" id="图层_1" xmlns="http://www.w3.org/2000/svg" xmlns:xlink="http://www.w3.org/1999/xlink" x="0px" y="0px"
	 width="200px" height="200px" viewBox="0 2061.207 200 200" enable-background="new 0 2061.207 200 200" xml:space="preserve">
<g>
	<path fill="#282828" d="M173.306,2073.712H38.326v22.431H21.92c-3.088,0-6.024,2.19-6.024,5.278v11.212
		c0,3.088,2.936,5.934,6.024,5.934h16.406v11.212H21.92c-3.088,0-6.024,2.189-6.024,5.278v11.217c0,3.088,2.936,5.934,6.024,5.934
		h16.406v11.212H21.92c-3.088,0-6.024,2.189-6.024,5.278v11.211c0,3.088,2.936,5.939,6.024,5.939h16.406v11.206H21.92
		c-3.088,0-6.024,2.195-6.024,5.284v11.211c0,3.088,2.936,5.935,6.024,5.935h16.406v22.428h134.98
		c6.188,0,10.798-5.363,10.798-11.54v-145.778C184.104,2078.4,179.493,2073.712,173.306,2073.712L173.306,2073.712z
		 M71.966,2230.705H49.539v-11.212h6.024c3.077,0,5.19-2.846,5.19-5.935v-11.217c0-3.088-2.102-5.276-5.19-5.276h-6.024v-11.213
		h6.024c3.077,0,5.19-2.846,5.19-5.933v-11.213c0-3.088-2.102-5.283-5.19-5.283h-6.024v-11.206h6.024c3.077,0,5.19-2.851,5.19-5.938
		v-11.213c0-3.087-2.102-5.277-5.19-5.277h-6.024v-11.212h6.024c3.077,0,5.19-2.846,5.19-5.934v-11.212
		c0-3.088-2.102-5.277-5.19-5.277h-6.024v-11.217h22.427V2230.705z"/>
</g>
</svg>
