<?xml version="1.0" encoding="utf-8"?>
<!-- Generator: Adobe Illustrator 16.0.0, SVG Export Plug-In . SVG Version: 6.00 Build 0)  -->
<!DOCTYPE svg PUBLIC "-//W3C//DTD SVG 1.1//EN" "http://www.w3.org/Graphics/SVG/1.1/DTD/svg11.dtd">
<svg version="1.1" id="图层_1" xmlns="http://www.w3.org/2000/svg" xmlns:xlink="http://www.w3.org/1999/xlink" x="0px" y="0px"
	 width="100px" height="100px" viewBox="0 0 100 100" enable-background="new 0 0 100 100" xml:space="preserve">
<g display="none">
	<g display="inline">
		<path fill="#6E6E6E" d="M50.99,6.927l-0.35-0.214C51.378,7.714,51.378,7.246,50.99,6.927L50.99,6.927z M89.76,26.57
			c0.702,0.004,1.377-0.272,1.877-0.766c0.496-0.493,0.778-1.167,0.783-1.868V9.995c-0.008-1.458-1.197-2.637-2.654-2.629H75.713
			c-1.46-0.008-2.646,1.171-2.654,2.629v4.331h-8.627c-0.271-0.045-0.545-0.045-0.813,0h-36.9V9.995
			c-0.008-1.458-1.194-2.637-2.652-2.629H10.011C8.552,7.358,7.366,8.537,7.356,9.995v13.931c0.01,1.458,1.196,2.636,2.655,2.631
			h4.367v45.96h-4.367c-0.701-0.004-1.375,0.271-1.873,0.767c-0.498,0.493-0.78,1.167-0.782,1.87v13.931
			c0.01,1.459,1.196,2.634,2.655,2.629h14.054c0.7,0,1.373-0.272,1.871-0.767c0.498-0.497,0.78-1.166,0.782-1.869v-4.329H73.05
			v4.329c0.003,0.703,0.282,1.372,0.78,1.869c0.497,0.494,1.172,0.767,1.873,0.767h14.054c0.701,0,1.374-0.272,1.872-0.767
			c0.497-0.497,0.78-1.166,0.782-1.869V75.162c-0.002-0.7-0.285-1.373-0.782-1.866c-0.498-0.495-1.171-0.771-1.872-0.771h-4.366
			V35.542c0.006-0.089,0.006-0.179,0-0.269v-8.708h4.377L89.76,26.57z M19.702,45.104c0.159-0.104,0.311-0.224,0.447-0.358
			l25.336-25.142h12.087l-37.87,37.574V45.104z M24.069,26.566c1.458,0.004,2.645-1.172,2.652-2.63v-4.334h11.251L19.696,37.739
			V26.566H24.069z M19.702,64.627l45.384-45.026h7.967v3.234l-50.107,49.69h-3.259v-7.898H19.702L19.702,64.627z M80.08,53.609
			l-25.457,25.25c-0.189,0.188-0.35,0.399-0.473,0.631H42.055L80.08,41.776V53.609z M75.713,72.525
			c-0.701,0-1.377,0.273-1.873,0.771c-0.498,0.493-0.779,1.166-0.781,1.866v4.328H61.512L80.08,61.064v11.461H75.713z M80.08,34.32
			L34.534,79.49h-7.816v-3.247l50.083-49.677h3.279V34.32z"/>
	</g>
</g>
<g display="none">
	<path display="inline" fill="#6E6E6E" d="M49.888,6.713c-23.472,0-42.5,19.029-42.5,42.5s19.028,42.5,42.5,42.5
		c23.471,0,42.5-19.027,42.5-42.5C92.389,25.741,73.359,6.713,49.888,6.713L49.888,6.713z M49.888,83.912
		c-19.164,0-34.7-15.535-34.7-34.699s15.534-34.7,34.7-34.7c19.163,0,34.699,15.536,34.699,34.7S69.051,83.912,49.888,83.912
		L49.888,83.912z"/>
	<path display="inline" fill="#6E6E6E" d="M47.954,29.176c0,2.761,2.241,5.002,5.007,5.002c2.762,0,5.003-2.241,5.003-5.002
		c0-2.767-2.241-5.008-5.003-5.008C50.195,24.17,47.954,26.411,47.954,29.176L47.954,29.176z M51.518,75.258
		c-3.689,0.922-8.801,0.842-11.354-0.186c-2.557-1.023-3.486-4.754-2.064-8.284l6.369-15.871c1.417-3.53-0.426-7.254-4.092-8.272
		l-1.218-0.338c-3.666-1.018-3.594-2.352,0.164-2.96l3.644-0.595c3.757-0.611,8.92-0.274,11.475,0.75
		c2.557,1.027,3.479,4.753,2.054,8.285l-5.937,14.701c-1.43,3.531,0.357,7.312,3.959,8.398c3.607,1.09,3.537,2.734-0.154,3.659
		l-2.842,0.711L51.518,75.258L51.518,75.258z"/>
</g>
<g display="none">
	<g display="inline">
		<path fill="#6E6E6E" d="M49.888,6.713c-23.472,0-42.5,19.029-42.5,42.5s19.028,42.5,42.5,42.5c23.471,0,42.5-19.027,42.5-42.5
			C92.389,25.741,73.359,6.713,49.888,6.713z M54.361,74.547l-2.842,0.711h-0.002c-3.691,0.922-8.803,0.842-11.355-0.186
			c-2.557-1.023-3.486-4.754-2.064-8.284l6.369-15.871c1.417-3.53-0.426-7.254-4.092-8.272l-1.218-0.338
			c-3.666-1.018-3.594-2.352,0.164-2.96l3.644-0.595c3.757-0.611,8.919-0.274,11.475,0.75c2.557,1.027,3.479,4.753,2.054,8.285
			l-5.938,14.701c-1.428,3.531,0.359,7.312,3.961,8.398C58.124,71.977,58.053,73.622,54.361,74.547z M52.961,34.178
			c-2.766,0-5.007-2.241-5.007-5.002c0-2.765,2.241-5.005,5.007-5.008c2.762,0,5.003,2.241,5.003,5.008
			C57.964,31.937,55.723,34.178,52.961,34.178z"/>
	</g>
</g>
<path display="none" fill="#6E6E6E" d="M97.372,44.407L79.967,22.485c-1.922-2.402-5.479-2.402-7.4,0L55.258,44.407
	c-1.346,1.635-0.09,4.134,2.024,4.134h6.823c-0.19,12.783-0.19,29.034-22.593,42.012c-0.577,0.385-0.289,1.25,0.384,1.153
	c42.875-6.634,46.336-35.38,46.434-43.069h7.111C97.563,48.541,98.718,46.042,97.372,44.407L97.372,44.407z M42.569,49.886h-6.824
	c0.192-12.784,0.192-29.035,22.595-42.011c0.577-0.384,0.288-1.25-0.384-1.154c-42.884,6.633-46.344,35.475-46.44,43.069H4.403
	c-2.115,0-3.364,2.499-2.019,4.133l17.398,21.923c1.923,2.403,5.479,2.403,7.401,0l17.405-21.923
	C45.838,52.385,44.685,49.886,42.569,49.886L42.569,49.886z"/>
<path display="none" fill="#6E6E6E" d="M92.389,65.143h-42.5V54.518H23.334v-42.5h37.18v10.625h31.875l-10.625,21.25L92.389,65.143z
	 M12.709,91.714c-2.94,0-5.321-2.381-5.321-5.305V12.034c0-2.941,2.38-5.321,5.321-5.321s5.321,2.379,5.321,5.321v74.375
	C18.013,89.333,15.633,91.714,12.709,91.714L12.709,91.714z"/>
<g display="none">
	<path display="inline" fill="#6E6E6E" d="M80.667,34.834c-2.097,1.822-5.163,1.717-6.858-0.229
		c-1.688-1.948-1.363-5.001,0.732-6.821c2.092-1.822,5.163-1.719,6.857,0.229C83.089,29.959,82.764,33.01,80.667,34.834
		L80.667,34.834z M93.503,26.622L78.331,9.166c-2.579-2.968-7.063-3.287-10.026-0.713L47.113,26.872l4.442,5.114l6.282,7.223
		c0.83,0.951,0.728,2.466-0.274,3.334l-0.181,0.154c-0.998,0.871-2.489,0.784-3.337-0.192l-6.28-7.222l-4.442-5.11l-7.59,6.592
		l3.544,4.068l4.09,4.71c0.88,1.013,0.753,2.499-0.248,3.367l-0.18,0.153c-0.999,0.872-2.501,0.768-3.367-0.224l-4.093-4.711
		l-3.535-4.068l-7.584,6.592l4.442,5.114l6.282,7.227c0.827,0.949,0.721,2.464-0.274,3.33l-0.18,0.154
		c-1.004,0.873-2.493,0.785-3.34-0.188l-6.282-7.227l-4.442-5.109L6.961,61.779c-2.959,2.568-3.267,7.059-0.688,10.023
		l15.172,17.454c2.581,2.972,7.067,3.29,10.027,0.716l61.342-53.327C95.773,34.078,96.084,29.586,93.503,26.622L93.503,26.622z"/>
</g>
<g display="none">
	<path display="inline" fill="#6E6E6E" d="M49.888,6.713c-23.472,0-42.5,19.028-42.5,42.5c0,23.473,19.028,42.5,42.5,42.5
		c23.471,0,42.5-19.027,42.5-42.5C92.389,25.742,73.359,6.713,49.888,6.713L49.888,6.713z M53.518,9.724c0,0,2.662-1.544,3.59-0.617
		c0.927,0.926,4.168-0.154,12.506,4.786c0,0-1.836,1.959-2.236,1.841c0.232,0.426,0.955,1.724,1.466,2.526
		c0.618,0.97,0.771,1.037,0.771,1.037l-0.615,0.927l0.615,0.154c-0.615-0.154-0.926,1.698-1.818,2.007
		c-0.896,0.309,0.273,2.007-0.031,2.316c-0.311,0.309,0.152,3.088,0,4.725c-0.154,1.638-0.771,0.216-1.543,0
		c-0.773-0.215-2.011-0.711-2.113-1.174c-0.106-0.463-0.358-1.853-0.051-2.625c0.309-0.771-0.927-1.544-1.543-2.11
		c-0.617-0.565-3.089,0.104-3.553,0c-0.463-0.103-0.771-1.44-0.771-2.676c0-1.236,2.162,0.154,3.379,0
		c1.218-0.154,1.408-3.232,1.408-3.232l-0.07-2.617c-0.498-0.199-0.579-0.458,0.226-0.79c0,0-2.625-0.617-3.241,0.772
		c-0.617,1.389-0.928,1.255-1.082,2.635s-2.572,0.164-3.14,0c-0.565-0.165-2.11-2.018-2.11-2.018
		c0.465-1.081,0.772-1.853,0.772-1.853l-0.81-1.853V9.724H53.518z M29.159,24.083c0.262-0.35,2.008-3.396,4.169-2.47
		c2.162,0.926,3.551-1.081,3.551-1.081s3.174-3.242,3.363-2.779l0.189,0.463c-0.189-0.463,2.625-1.235,2.934,0.31
		c0.309,1.544,2.162,2.32,2.162,2.32s-1.081,1.848-0.772,3.237c0.309,1.391,1.389,1.699,0.772,2.935
		c-0.618,1.234-1.853,1.698-2.162,2.315c-0.309,0.618-2.848-2.007-3.123-2.934c-0.275-0.926-1.631-1.853-2.806-1.544
		s-4.263,1.081-4.88,0.772C31.939,25.318,28.436,25.049,29.159,24.083L29.159,24.083z M70.539,69.479
		c-1.234,3.242-4.168,8.803-5.712,10.348c-1.545,1.545-3.397,4.479-4.787,5.559s-1.39,3.09-3.088,2.936
		c-1.699-0.154-3.706-4.941-3.243-6.176c0.464-1.236-8.492-3.398-8.492-3.398s-3.86-0.463-4.632-7.873
		c-0.137-1.32-0.226-2.256-0.279-2.906c-1.16-0.512-5.71-2.396-8.522-1.727c-3.243,0.771-4.015-1.029-6.794-1.441l-4.787-4.426
		c0,0-7.874-9.109-6.948-10.654c0.926-1.544,0.926-5.713,1.081-6.64c0.155-0.926-1.232-6.794-1.157-7.565
		c0.076-0.772-1.159-3.706-1.159-3.706s2.934-6.177,3.397-6.177s2.162,5.25,3.86,5.404c1.698,0.154,6.33-0.154,7.025-0.926
		c0.695-0.772,1.313-1.698,2.084-1.698s0.772-0.464,2.162,0.154c1.389,0.617,2.934,1.544,3.551,2.47
		c0.618,0.927-0.463,2.779,2.779,2.779c3.243,0,3.243-0.771,3.706,1.39c0.463,2.162,1.012,6.948-0.343,7.258
		c-1.355,0.309-5.37,5.009-5.061,6.519c0.309,1.51,0.309,3.826-0.309,5.216c-0.617,1.389-1.081,1.852-3.396,1.697
		c-2.315-0.156-4.274-1.391-4.917,0.463c-0.642,1.854-1.871,6.025,0.285,5.605c0,0,3.396-1.033,4.632,0
		c1.235,1.033,9.11,4.432,9.11,4.432s7.103-7.723,18.22-2.779l1.854,1.236l3.089-0.672c0,0,4.015-1.184,5.403-0.873l1.391,0.309
		v-0.617C70.539,62.994,71.773,66.236,70.539,69.479L70.539,69.479z M88.604,51.878c0,0-0.926-1.391-0.926-2.852
		c0-1.462-1.08-1.318-1.08-3.171s-1.391-1.235-2.316-2.47c-0.926-1.235-1.389,0.463-2.16,0.617s-0.618,1.39-1.391,2.856
		c-0.771,1.467-2.778,2.394-3.396,2.118c-0.618-0.273-2.937-2.35-3.089-2.813c-0.155-0.463-3.243-3.088-3.157-3.705
		c0.086-0.618-0.856-3.86-1.476-5.404c-0.617-1.544,0-7.628,0-7.628c-0.928-0.524,8.492-4.416,7.258-4.879
		c-1.234-0.464-1.854-5.559-1.854-5.559l4.494,2.315c4.494,2.316,10.174,20.691,10.174,20.691v5.249L88.604,51.878z"/>
</g>
<g display="none">
	<rect x="38.409" y="15.26" display="inline" fill="#282828" width="23.182" height="69.544"/>
	<path display="inline" fill="#282828" d="M84.773,7.533H92.5v85h-7.727V7.533z M7.5,7.533h7.727v85H7.5V7.533z"/>
</g>
<g display="none">
	<path display="inline" fill="#6E6E6E" d="M44.908,84.934H23.062c-1.796,0-3.143-1.348-3.143-3.143V19.094
		c0-1.796,1.347-3.143,3.143-3.143h50.127c1.795,0,3.143,1.347,3.143,3.143v18.854c0,1.795,1.348,3.143,3.143,3.143
		s3.144-1.347,3.144-3.143V19.094c0-5.237-4.188-9.427-9.429-9.427H23.062c-5.237,0-9.427,4.19-9.427,9.427v62.697
		c0,5.236,4.189,9.428,9.427,9.428h21.996c1.796,0,3.143-1.348,3.143-3.144S46.704,84.934,44.908,84.934L44.908,84.934z"/>
	<path display="inline" fill="#6E6E6E" d="M70.047,31.664c0-1.796-1.347-3.143-3.143-3.143H29.347c-1.795,0-3.143,1.347-3.143,3.143
		c0,1.795,1.347,3.142,3.143,3.142h37.557C68.551,34.806,70.047,33.309,70.047,31.664L70.047,31.664z M46.405,50.368
		c0-1.795-1.347-3.142-3.142-3.142H29.347c-1.795,0-3.143,1.347-3.143,3.142c0,1.795,1.347,3.142,3.143,3.142h13.916
		C44.908,53.51,46.405,52.163,46.405,50.368L46.405,50.368z M29.347,66.079c-1.795,0-3.143,1.347-3.143,3.144
		c0,1.795,1.347,3.144,3.143,3.144h9.427c1.795,0,3.142-1.349,3.142-3.144c0-1.797-1.347-3.144-3.142-3.144H29.347z M97.279,89.422
		L84.561,77.303c2.097-2.994,3.592-6.584,3.893-10.476C89.648,55.006,81.42,44.981,69.6,43.784
		c-11.82-1.197-21.848,7.032-23.043,18.854c-1.197,11.819,7.033,21.846,18.854,23.043c5.236,0.598,10.175-0.748,14.064-3.44
		l12.869,12.271L97.279,89.422z M66.156,78.648c-7.631-0.748-13.317-7.633-12.568-15.412C54.336,55.604,61.219,49.919,69,50.667
		c7.631,0.748,13.316,7.631,12.568,15.412C80.82,73.711,73.788,79.396,66.156,78.648L66.156,78.648z"/>
</g>
<g display="none">
	<path display="inline" fill="#282828" d="M44.298,75.055c-17.74,0-32.172-14.434-32.172-32.173
		c0-17.739,14.432-32.173,32.172-32.173c17.739,0,32.173,14.434,32.173,32.173C76.471,60.621,62.037,75.055,44.298,75.055
		L44.298,75.055z M44.298,18.628c-13.374,0-24.254,10.88-24.254,24.254c0,13.371,10.88,24.253,24.254,24.253
		c13.372,0,24.253-10.882,24.253-24.253C68.553,29.508,57.67,18.628,44.298,18.628L44.298,18.628z"/>
	<path display="inline" fill="#282828" d="M81.872,85.329c-1.243,0-2.492-0.478-3.442-1.429L61.619,67.094
		c-1.904-1.902-1.904-4.99,0-6.893c1.904-1.901,4.99-1.901,6.895,0l16.809,16.807c1.9,1.904,1.9,4.989,0,6.893
		C84.37,84.852,83.121,85.329,81.872,85.329L81.872,85.329z"/>
</g>
<g display="none">
	<g display="inline">
		<path fill="#282828" d="M56.277,60.703c0.722,1.289,1.19,2.654,1.19,4.097c0,6.901-8.951,12.496-19.994,12.496
			c-11.042,0-14.995-5.595-14.995-12.496c0-1.442,0.47-2.808,1.19-4.097c-6.771,2.75-11.187,6.893-11.187,11.595
			c0,8.281,8.428,14.995,24.991,14.995c16.564,0,29.991-6.714,29.991-14.995C67.466,67.596,63.05,63.453,56.277,60.703
			L56.277,60.703z M76.123,22.809C61.921,7.095,37.475,12.317,37.475,12.317h-4.998v59.981h9.997V47.306
			c5.232-3.788,13.058-6.248,19.994-4.999c21.019,5.127,29.99-9.997,29.99-9.997S85.01,32.641,76.123,22.809L76.123,22.809z
			 M62.468,32.311c-5.993-2.486-17.051,2.891-19.994,4.999V22.314c0,0,17.15-4.339,24.992,4.998
			c4.312,5.133,9.997,4.999,9.997,4.999S71.145,36.736,62.468,32.311L62.468,32.311z"/>
	</g>
</g>
<g display="none">
	<path display="inline" fill="#282828" d="M23.687,66.997h14.32c0.95,0,1.72,0.77,1.72,1.72s-0.771,1.721-1.72,1.721H21.975
		c-0.458,0.003-0.897-0.177-1.222-0.5c-0.324-0.322-0.507-0.761-0.507-1.218V36.039h-1.712c-0.955,0-1.729-0.773-1.729-1.728v-6.864
		c0-0.96,0.776-1.729,1.729-1.729H25.4c0.952,0,1.728,0.775,1.728,1.729v6.864c0,0.954-0.773,1.728-1.728,1.728h-1.713v12.614h14.32
		c0.95,0,1.72,0.771,1.72,1.72c0,0.951-0.771,1.721-1.72,1.721h-14.32V66.997z M34.004,27.447c0-0.96,0.776-1.729,1.729-1.729
		h43.558c0.952,0,1.729,0.775,1.729,1.729v6.864c0,0.954-0.773,1.728-1.729,1.728H35.733c-0.955,0-1.729-0.773-1.729-1.728V27.447z
		 M46.617,46.94c0-0.958,0.771-1.729,1.733-1.729h30.94c0.952,0,1.729,0.775,1.729,1.729v6.865c0,0.458-0.182,0.897-0.506,1.221
		c-0.325,0.323-0.764,0.504-1.223,0.503h-30.94c-0.458,0.001-0.898-0.179-1.224-0.502s-0.509-0.763-0.51-1.222V46.94z
		 M46.617,65.284c0-0.953,0.771-1.728,1.733-1.728h30.94c0.952,0,1.729,0.774,1.729,1.728v6.866c0.002,0.458-0.18,0.899-0.504,1.224
		c-0.325,0.323-0.766,0.506-1.225,0.504h-30.94c-0.46,0.002-0.899-0.181-1.226-0.504c-0.325-0.324-0.508-0.766-0.508-1.224V65.284z
		 M46.617,65.284"/>
</g>
<g display="none">
	<g display="inline">
		<path fill="#282828" d="M18.042,54.224c0-2.127,1.713-3.849,3.896-3.849h7.641c2.151,0,3.896,1.753,3.896,3.849v23.179
			c0,2.127-1.713,3.849-3.896,3.849h-7.641c-2.152,0-3.896-1.753-3.896-3.849V54.224z M64.35,38.806
			c0-2.135,1.713-3.871,3.896-3.871h7.641c2.152,0,3.896,1.76,3.896,3.871v38.573c0,2.135-1.713,3.872-3.896,3.872h-7.641
			c-2.15,0-3.896-1.762-3.896-3.872V38.806z M40.471,22.272c0-2.175,1.744-3.936,3.968-3.936h7.792c2.191,0,3.969,1.753,3.969,3.936
			v55.05c0,2.176-1.744,3.937-3.969,3.937h-7.792c-2.191,0-3.968-1.753-3.968-3.937V22.272z M40.471,22.272"/>
	</g>
</g>
<g display="none">
	<path display="inline" fill="#282828" d="M30.769,36.771c0.465,0.932,0.465,1.861,0.93,3.258c0.465,1.396,0.465,2.326,0.931,3.722
		s0.93,2.326,1.396,3.722c0.466,1.396,0.931,2.326,1.861,3.257v25.588l-17.213,3.722V39.563L30.769,36.771z M35.886,34.91v-0.931
		c0-1.86,0.465-3.722,1.396-5.582c0.93-1.861,1.861-3.257,3.257-4.188c1.396-1.396,2.792-2.326,4.652-2.791
		c1.86-1.396,3.721-1.861,5.583-1.861c2.326,0,4.188,0.465,6.049,0.93c1.861,0.932,3.256,1.861,4.652,2.793
		c1.395,1.395,2.326,2.791,3.256,4.187c0.93,1.86,1.396,3.257,1.396,5.583v1.86c-0.467,2.326-0.932,4.653-1.396,6.514
		c-0.93,1.86-1.861,4.187-3.256,6.048l-4.188,5.583c-1.396,1.86-3.258,3.722-5.117,5.117c-0.467,0.465-0.467,0.465-0.932,0.465
		s-0.93,0-0.93-0.465c-1.861-1.86-3.723-3.257-5.118-5.117c-1.396-1.861-3.257-3.722-4.187-5.583
		c-1.861-1.861-2.793-4.188-3.723-6.048C36.351,39.097,35.886,37.236,35.886,34.91L35.886,34.91z M50.773,27.467
		c-0.93,0-1.861,0-2.326,0.465c-0.93,0.466-1.396,0.931-2.326,1.396c-0.466,0.466-0.931,0.931-0.931,1.861
		c-0.466,0.931-0.931,1.396-0.931,2.326c0,0.93,0,1.396,0.465,2.326c0.466,0.93,0.931,1.396,1.396,1.861
		c0.464,0.465,1.396,0.93,1.861,1.395c0.93,0.467,1.861,0.467,2.326,0.467s1.861,0,2.791-0.467c0.93-0.465,1.396-0.93,1.861-1.395
		c0.465-0.466,0.93-1.396,1.396-1.861c0.465-0.931,0.465-1.396,0.465-2.326c0-0.931,0-1.396-0.465-2.326
		c-0.467-0.931-0.932-1.396-1.396-1.861c-0.465-0.465-1.396-0.93-1.861-1.396C52.635,27.932,51.703,27.467,50.773,27.467
		L50.773,27.467z M40.073,55.846l3.723,3.723c1.396,0.93,2.326,2.325,3.255,2.791c1.396,0.93,2.326,1.86,3.258,2.791
		c0.465-0.465,1.395-0.931,1.861-1.396c0.465-0.466,1.395-0.931,1.859-1.861c0.932-0.931,1.861-1.396,2.793-2.325v20.47
		l-17.214-4.188V55.846H40.073z M79.152,35.841v40.476l-17.213,3.722V55.381l1.861-1.861c0.93-0.931,1.859-1.86,2.791-3.257
		c0.93-1.396,1.395-2.791,2.326-4.187c0.465-1.396,1.395-2.792,1.861-4.652l1.395-4.188L79.152,35.841z M79.152,35.841"/>
</g>
<g display="none">
	<path display="inline" fill="#282828" d="M74.395,45.642c0.036-14.554-11.275-26.379-25.268-26.421h-0.215
		c-13.992-0.084-25.406,11.646-25.482,26.2v0.221c0,11.496,7.083,21.278,16.989,24.951c-5.422,1.946-8.969,5.626-8.969,9.782h34.208
		c0-4.163-3.304-7.836-8.487-9.788C67.324,66.926,74.395,57.138,74.395,45.642L74.395,45.642z M49.396,64.232h-0.007
		c-7.321,0-13.454-6.366-13.454-13.944c0-7.579,6.133-13.945,13.454-13.945c7.418-0.019,13.438,6.223,13.456,13.928v0.011
		C62.833,57.997,56.813,64.238,49.396,64.232L49.396,64.232z M49.396,64.232"/>
	<path display="inline" fill="#282828" d="M48.912,44.172c-3.541,0-6.599,3.183-6.599,6.845c0,3.912,3.063,6.844,6.599,6.844
		c3.637,0,6.587-3.063,6.587-6.844C55.499,47.242,52.549,44.172,48.912,44.172L48.912,44.172z M48.912,44.172"/>
</g>
<g display="none">
	<g display="inline">
		<path fill="#282828" d="M69.675,66.875c-1.454-0.001-2.72,0.741-3.281,1.928c-0.652,1.383-0.655,2.807,0.382,3.933
			c1.88,2.035,3.854,3.988,5.884,5.874c0.922,0.858,2.157,1.063,3.362,0.529c2.779-1.229,3.348-3.999,1.251-6.194
			c-1.608-1.686-3.279-3.315-4.944-4.947C71.588,67.271,70.711,66.802,69.675,66.875L69.675,66.875z M69.675,66.875"/>
		<path fill="#282828" d="M19.286,47.068c0.038-14.891,12.041-26.93,26.918-26.904C60.931,20.19,73.067,31.88,73.068,47.032
			c0.002,15.036-11.865,26.901-26.902,26.901C31.038,73.934,19.372,61.811,19.286,47.068L19.286,47.068z M46.19,66.183
			c10.518,0.064,18.938-8.541,19.143-18.73c0.218-10.813-8.661-19.769-19.569-19.552c-10.126,0.201-19.001,8.644-18.722,19.705
			C27.296,57.693,35.663,66.242,46.19,66.183L46.19,66.183z M46.191,67.588"/>
		<path fill="#282828" d="M66.279,63.479c1.035-0.072,1.913,0.397,2.652,1.123c1.666,1.632,3.336,3.261,4.946,4.947
			c2.096,2.195,1.527,4.965-1.252,6.194c-1.206,0.533-2.44,0.329-3.362-0.529c-2.029-1.886-4.004-3.839-5.883-5.874
			c-1.039-1.125-1.035-2.551-0.383-3.933C63.559,64.221,64.824,63.478,66.279,63.479L66.279,63.479z M66.279,63.479"/>
	</g>
</g>
<g display="none">
	<g display="inline">
		<path fill="#282828" d="M70.526,36.246L52.229,54.545l-9.723-9.722L29.814,57.515v11.496h44.673v6.361H23.338V24.224h6.474v24.251
			l12.691-12.69l9.726,9.717l13.777-13.774l-4.307-4.307h12.788v12.787L70.526,36.246z M70.526,36.246"/>
	</g>
</g>
<g display="none">
	<g display="inline">
		<path fill="#282828" d="M52.588,18.677c-1.985-1.8-5.012-1.8-6.998,0l-28.297,26.87c-1.055,0.969-1.132,2.607-0.173,3.67
			c0.958,1.064,2.597,1.157,3.668,0.208l0.45-0.427v28.044c-0.001,1.387,0.548,2.716,1.527,3.695
			c0.98,0.982,2.309,1.532,3.694,1.532h15.193V66.551c-0.001-0.977,0.385-1.912,1.076-2.604c0.689-0.689,1.625-1.077,2.602-1.077
			h7.149c0.976,0,1.911,0.388,2.603,1.077c0.689,0.691,1.076,1.627,1.074,2.604v15.718h15.555c1.387,0.001,2.715-0.55,3.695-1.53
			c0.979-0.98,1.528-2.311,1.527-3.697V49.34c1.158,1.049,2.805,0.97,3.77-0.105c0.465-0.514,0.705-1.192,0.669-1.883
			c-0.034-0.691-0.343-1.34-0.856-1.805L52.588,18.679V18.677z M52.588,18.677"/>
	</g>
</g>
<g display="none">
	<g display="inline">
		<path fill="#282828" d="M67.783,76.762c6.904,0,12.686-5.231,13.377-12.1c0.693-6.87-3.932-13.147-10.699-14.518
			c-1.184-9.353-9.164-16.582-18.834-16.582c-10.476,0-18.976,8.5-18.976,18.984c0,1.363,0.145,2.72,0.433,4.055
			c-3.918-2.331-8.874-1.963-12.403,0.916c-3.528,2.879-4.884,7.663-3.384,11.971c1.501,4.308,5.527,7.217,10.088,7.282h40.399
			V76.762z M67.783,76.762"/>
		<path fill="#282828" d="M21.344,51.255C23.307,50.426,25.414,50,27.542,50h0.18c1.191-11.264,10.088-20.168,21.352-21.372
			c-3.557-3.709-8.472-5.81-13.609-5.803c-10.419,0-18.869,8.45-18.869,18.869c-0.007,3.688,1.075,7.295,3.104,10.369
			C20.226,51.768,20.775,51.501,21.344,51.255L21.344,51.255z M21.344,51.255"/>
	</g>
</g>
<g>
	<path fill="#282828" d="M28.713,62.931h44.379c2.633-0.008,4.768-2.142,4.775-4.774v-37.26c-0.008-2.633-2.143-4.766-4.775-4.773
		H28.713c-2.632,0.008-4.767,2.141-4.774,4.773v37.26C23.946,60.789,26.081,62.923,28.713,62.931L28.713,62.931z M63.854,29.675
		c1.295,0,2.461,0.779,2.957,1.974c0.494,1.195,0.221,2.57-0.695,3.484c-0.914,0.915-2.289,1.188-3.484,0.693
		c-1.195-0.494-1.975-1.66-1.975-2.953c0-0.85,0.338-1.662,0.938-2.263C62.193,30.011,63.006,29.675,63.854,29.675L63.854,29.675z
		 M32.39,46.746L44.295,34.84c0.782-0.782,2.048-0.789,2.839-0.017l11.094,10.835h8.926c1.193,0,2.15,0.976,2.066,2.164
		c-0.074,1.057-0.955,1.875-2.014,1.874h-9.801c-0.527,0.001-1.033-0.205-1.412-0.573L45.742,39.108h-0.004L35.211,49.636
		c-0.382,0.383-0.901,0.595-1.442,0.592c-0.541-0.004-1.057-0.225-1.434-0.611C31.557,48.818,31.603,47.532,32.39,46.746
		L32.39,46.746z M32.39,46.746"/>
	<path fill="#282828" d="M45.892,79.971c0.332-2.177-0.679-2.731-2.692-2.861c-7.845-0.256-15.552-2.115-22.649-5.471
		c-2.585-1.313-4.945-3.025-6.99-5.084c-2.892-2.716-3.023-7.268-0.301-10.152l0.131-0.131c2.616-2.931,6.01-5.062,9.79-6.141
		c-2.044,1.096-4.02,2.308-5.925,3.626c-4.027,3.102-4.035,6.95-0.054,10.075c5.107,4.019,11.294,5.4,17.512,6.487
		c3.548,0.625,7.167,0.88,10.97,1.319c0.131-2.036,0.223-3.672,0.347-5.787c3.448,3.011,6.573,5.748,9.991,8.711
		c-3.418,2.994-6.488,5.685-10.161,8.91C45.791,82.307,45.799,81.134,45.892,79.971L45.892,79.971z"/>
	<path fill="#282828" d="M58.621,76.885c-0.107-0.293-0.193-0.594-0.24-0.902c-0.486-4.259-0.193-4.313,4.006-5.1
		c5.521-1.02,10.992-2.337,16.377-3.942c2.354-0.84,4.521-2.152,6.348-3.85c2.369-1.619,2.971-4.859,1.352-7.229
		c-0.355-0.524-0.811-0.979-1.328-1.335c-1.674-1.542-3.75-2.66-5.576-4.058c3.887,1.288,7.242,3.812,9.559,7.191
		c1.719,2.406,1.557,5.678-0.389,7.897c-1.779,2.068-3.871,3.843-6.193,5.277c-6.982,3.588-14.643,5.67-22.486,6.11
		C59.563,76.954,59.084,76.938,58.621,76.885L58.621,76.885z"/>
</g>
</svg>
