<?xml version="1.0" encoding="utf-8"?>
<!-- Generator: Adobe Illustrator 16.0.0, SVG Export Plug-In . SVG Version: 6.00 Build 0)  -->
<!DOCTYPE svg PUBLIC "-//W3C//DTD SVG 1.1//EN" "http://www.w3.org/Graphics/SVG/1.1/DTD/svg11.dtd">
<svg version="1.1" id="图层_1" xmlns="http://www.w3.org/2000/svg" xmlns:xlink="http://www.w3.org/1999/xlink" x="0px" y="0px"
	 width="200px" height="200px" viewBox="0 717.071 200 200" enable-background="new 0 717.071 200 200" xml:space="preserve">
<g>
	<g>
		<path fill="#282828" d="M97.516,745.631l56.42,56.424l-39.133,39.128l-20.021-20.019l-65.519,65.521
			c-4.021,4.016-10.539,4.016-14.56,0c-4.021-4.021-4.021-10.539,0-14.561l65.519-65.52l-21.838-21.842L97.516,745.631
			L97.516,745.631z M44.847,776.686c3.264,3.264,8.561,3.264,11.826,0l32.763-32.763c3.27-3.263,3.27-8.563,0-11.828
			c-3.266-3.266-8.562-3.266-11.829,0l-32.76,32.759C41.578,768.123,41.578,773.418,44.847,776.686L44.847,776.686z
			 M155.261,810.519l-32.763,32.759c-3.264,3.268-3.264,8.563,0,11.83c3.268,3.266,8.563,3.266,11.833,0l32.76-32.761
			c3.266-3.265,3.266-8.563,0-11.828C163.823,807.253,158.528,807.253,155.261,810.519L155.261,810.519z M186.688,904.498
			c0-9.693-7.855-17.551-17.549-17.551h-64.522c-9.693,0-17.546,7.857-17.546,17.551H186.688z"/>
	</g>
</g>
</svg>
