<?xml version="1.0" encoding="utf-8"?>
<!-- Generator: Adobe Illustrator 16.0.0, SVG Export Plug-In . SVG Version: 6.00 Build 0)  -->
<!DOCTYPE svg PUBLIC "-//W3C//DTD SVG 1.1//EN" "http://www.w3.org/Graphics/SVG/1.1/DTD/svg11.dtd">
<svg version="1.1" id="图层_1" xmlns="http://www.w3.org/2000/svg" xmlns:xlink="http://www.w3.org/1999/xlink" x="0px" y="0px"
	 width="200px" height="200px" viewBox="0 1245.125 200 200" enable-background="new 0 1245.125 200 200" xml:space="preserve">
<g>
	<path fill="#282828" d="M130.326,1292.234c-1.316,0-2.424-0.444-3.311-1.338c-0.896-0.898-1.641-1.947-2.238-3.14
		c-0.596-1.188-1.047-2.412-1.338-3.672c-0.305-1.245-0.455-2.294-0.455-3.119v-22.007h0.361c1.07,0,2.086,0.119,3.041,0.352
		c0.951,0.243,2.119,0.806,3.482,1.703c1.379,0.899,3.041,2.144,5.01,3.751c1.971,1.621,4.441,3.729,7.426,6.352
		c3.23,2.866,5.789,5.278,7.689,7.245c1.914,1.974,3.369,3.638,4.385,5.016c1.014,1.374,1.641,2.525,1.885,3.48
		c0.232,0.962,0.352,1.799,0.352,2.511v2.866H130.326L130.326,1292.234z"/>
	<path fill="#282828" d="M185.961,1376.488c0.361,0.955,0.594,2.143,0.713,3.58c0.123,1.43-0.48,2.814-1.783,4.115
		c-0.598,0.604-1.133,1.162-1.609,1.705c-0.477,0.531-0.9,0.985-1.256,1.337c-0.482,0.48-0.9,0.837-1.252,1.074l-15.207-15.023
		c0.713-0.6,1.512-1.317,2.412-2.148c0.898-0.831,1.641-1.488,2.238-1.968c1.434-1.316,2.982-1.875,4.65-1.699
		c1.668,0.171,3.039,0.567,4.115,1.162c1.199,0.594,2.48,1.643,3.844,3.135C184.203,1373.234,185.248,1374.825,185.961,1376.488
		L185.961,1376.488z"/>
	<g>
		<g>
			<path fill="#282828" d="M130.498,1303.679c-3.33,0-6.197-0.743-8.588-2.236c-2.377-1.481-4.322-3.337-5.814-5.541
				c-1.488-2.21-2.588-4.628-3.309-7.245c-0.711-2.619-1.072-5.072-1.072-7.34v-22.352H43.206c-2.752,0-5.371,0.743-7.877,2.226
				c-2.505,1.492-4.741,3.347-6.702,5.547c-1.97,2.215-3.519,4.684-4.659,7.426c-1.131,2.748-1.691,5.371-1.691,7.876v121.826
				c0,2.98,0.772,5.872,2.319,8.683c1.549,2.793,3.482,5.267,5.813,7.421c2.333,2.148,4.837,3.868,7.519,5.186
				c2.68,1.307,5.15,1.973,7.425,1.973h49.375l34.706-36.141c-1.797,1.435-3.996,2.147-6.619,2.147H55.72
				c-3.1,0-5.72-1.074-7.867-3.218c-2.145-2.153-3.229-4.776-3.229-7.876c0-3.104,1.084-5.758,3.229-7.963
				c2.147-2.2,4.764-3.311,7.867-3.311h67.09c3.102,0,5.76,1.11,7.961,3.311c2.203,2.205,3.309,4.859,3.309,7.963
				c0,2.268-0.65,4.354-1.965,6.254l24.506-25.394v-59.222H130.498L130.498,1303.679z M130.77,1345.187
				c-2.201,2.147-4.859,3.218-7.961,3.218H55.72c-3.1,0-5.72-1.07-7.867-3.218c-2.145-2.144-3.229-4.767-3.229-7.877
				c0-3.099,1.084-5.742,3.229-7.958c2.147-2.2,4.764-3.311,7.867-3.311h67.09c3.102,0,5.76,1.11,7.961,3.311
				c2.203,2.216,3.309,4.859,3.309,7.958C134.078,1340.42,132.973,1343.043,130.77,1345.187z"/>
		</g>
	</g>
	<path fill="#282828" d="M123.17,1415.666l2.32-2.317l4.471-4.474c1.801-1.797,3.756-3.79,5.908-5.99
		c2.148-2.216,4.293-4.396,6.436-6.539c5.129-5.128,10.92-10.855,17.352-17.166l15.035,15.022l-17.354,17.354l-6.445,6.445
		l-5.908,5.898c-1.664,1.678-3.063,3.099-4.195,4.297c-1.139,1.188-1.758,1.843-1.875,1.973c-0.607,0.475-1.258,0.976-1.971,1.513
		c-0.723,0.532-1.432,0.991-2.143,1.338c-0.723,0.361-1.828,0.805-3.311,1.343c-1.49,0.538-3.02,1.043-4.568,1.523
		s-3.039,0.898-4.475,1.249c-1.43,0.367-2.506,0.61-3.219,0.725c-1.43,0.231-2.385,0.051-2.865-0.537
		c-0.48-0.601-0.596-1.607-0.35-3.043c0.117-0.717,0.35-1.792,0.711-3.228c0.361-1.42,0.779-2.892,1.25-4.386
		c0.475-1.486,0.93-2.886,1.35-4.192c0.408-1.317,0.748-2.216,0.98-2.69C121.018,1418.233,121.969,1416.864,123.17,1415.666
		L123.17,1415.666z"/>
	<path fill="#282828" d="M123.17,1415.666"/>
</g>
</svg>
