<?xml version="1.0" encoding="utf-8"?>
<!-- Generator: Adobe Illustrator 16.0.0, SVG Export Plug-In . SVG Version: 6.00 Build 0)  -->
<!DOCTYPE svg PUBLIC "-//W3C//DTD SVG 1.1//EN" "http://www.w3.org/Graphics/SVG/1.1/DTD/svg11.dtd">
<svg version="1.1" id="图层_1" xmlns="http://www.w3.org/2000/svg" xmlns:xlink="http://www.w3.org/1999/xlink" x="0px" y="0px"
	 width="100px" height="100px" viewBox="0 0 100 100" enable-background="new 0 0 100 100" xml:space="preserve">
<g display="none">
	<g display="inline">
		<path fill="#6E6E6E" d="M50.99,6.927l-0.35-0.214C51.378,7.714,51.378,7.246,50.99,6.927L50.99,6.927z M89.76,26.57
			c0.702,0.004,1.377-0.272,1.877-0.766c0.496-0.493,0.778-1.167,0.783-1.868V9.995c-0.008-1.458-1.197-2.637-2.654-2.629H75.713
			c-1.46-0.008-2.646,1.171-2.654,2.629v4.331h-8.627c-0.271-0.045-0.545-0.045-0.813,0h-36.9V9.995
			c-0.008-1.458-1.194-2.637-2.652-2.629H10.011C8.552,7.358,7.366,8.537,7.356,9.995v13.931c0.01,1.458,1.196,2.636,2.655,2.631
			h4.367v45.96h-4.367c-0.701-0.004-1.375,0.271-1.873,0.767c-0.498,0.493-0.78,1.167-0.782,1.87v13.931
			c0.01,1.459,1.196,2.634,2.655,2.629h14.054c0.7,0,1.373-0.272,1.871-0.767c0.498-0.497,0.78-1.166,0.782-1.869v-4.329H73.05
			v4.329c0.003,0.703,0.282,1.372,0.78,1.869c0.497,0.494,1.172,0.767,1.873,0.767h14.054c0.701,0,1.374-0.272,1.872-0.767
			c0.497-0.497,0.78-1.166,0.782-1.869V75.162c-0.002-0.7-0.285-1.373-0.782-1.866c-0.498-0.495-1.171-0.771-1.872-0.771h-4.366
			V35.542c0.006-0.089,0.006-0.179,0-0.269v-8.708h4.377L89.76,26.57z M19.702,45.104c0.159-0.104,0.311-0.224,0.447-0.358
			l25.336-25.142h12.087l-37.87,37.574V45.104z M24.069,26.566c1.458,0.004,2.645-1.172,2.652-2.63v-4.334h11.251L19.696,37.739
			V26.566H24.069z M19.702,64.627l45.384-45.026h7.967v3.234l-50.107,49.69h-3.259v-7.898H19.702L19.702,64.627z M80.08,53.609
			l-25.457,25.25c-0.189,0.188-0.35,0.396-0.473,0.631H42.055L80.08,41.776V53.609z M75.713,72.525
			c-0.701,0-1.377,0.271-1.873,0.771c-0.498,0.493-0.779,1.166-0.781,1.866v4.328H61.512L80.08,61.064v11.461H75.713z M80.08,34.32
			L34.534,79.49h-7.816v-3.247l50.083-49.677h3.279V34.32z"/>
	</g>
</g>
<g display="none">
	<path display="inline" fill="#6E6E6E" d="M49.888,6.713c-23.472,0-42.5,19.029-42.5,42.5s19.028,42.5,42.5,42.5
		c23.471,0,42.5-19.027,42.5-42.5C92.389,25.741,73.359,6.713,49.888,6.713L49.888,6.713z M49.888,83.912
		c-19.164,0-34.7-15.535-34.7-34.699s15.534-34.7,34.7-34.7c19.163,0,34.699,15.536,34.699,34.7S69.051,83.912,49.888,83.912
		L49.888,83.912z"/>
	<path display="inline" fill="#6E6E6E" d="M47.954,29.176c0,2.761,2.241,5.002,5.007,5.002c2.762,0,5.003-2.241,5.003-5.002
		c0-2.767-2.241-5.008-5.003-5.008C50.195,24.17,47.954,26.411,47.954,29.176L47.954,29.176z M51.518,75.258
		c-3.688,0.922-8.801,0.842-11.354-0.186c-2.557-1.023-3.486-4.754-2.064-8.284l6.369-15.871c1.417-3.53-0.426-7.254-4.092-8.272
		l-1.218-0.338c-3.666-1.018-3.594-2.352,0.164-2.96l3.644-0.595c3.757-0.611,8.92-0.274,11.475,0.75
		c2.56,1.027,3.479,4.753,2.057,8.285l-5.938,14.701c-1.431,3.531,0.356,7.312,3.959,8.398c3.606,1.09,3.537,2.731-0.154,3.656
		l-2.842,0.711L51.518,75.258L51.518,75.258z"/>
</g>
<g display="none">
	<g display="inline">
		<path fill="#0062AC" d="M49.888,6.713c-23.472,0-42.5,19.029-42.5,42.5s19.028,42.5,42.5,42.5c23.471,0,42.5-19.027,42.5-42.5
			C92.389,25.741,73.359,6.713,49.888,6.713z M54.361,74.547l-2.842,0.711h-0.002c-3.691,0.922-8.806,0.842-11.355-0.186
			c-2.557-1.023-3.486-4.754-2.064-8.284l6.369-15.871c1.417-3.53-0.426-7.254-4.092-8.272l-1.218-0.338
			c-3.666-1.018-3.594-2.352,0.164-2.96l3.644-0.595c3.757-0.611,8.919-0.274,11.475,0.75c2.56,1.027,3.479,4.753,2.057,8.285
			l-5.938,14.701c-1.43,3.531,0.357,7.312,3.961,8.398C58.124,71.977,58.053,73.622,54.361,74.547z M52.961,34.178
			c-2.766,0-5.007-2.241-5.007-5.002c0-2.765,2.241-5.005,5.007-5.008c2.762,0,5.003,2.241,5.003,5.008
			C57.964,31.937,55.723,34.178,52.961,34.178z"/>
	</g>
</g>
<path display="none" fill="#6E6E6E" d="M97.372,44.407L79.967,22.485c-1.922-2.402-5.479-2.402-7.4,0L55.258,44.407
	c-1.346,1.635-0.09,4.134,2.024,4.134h6.823c-0.19,12.783-0.19,29.034-22.593,42.012c-0.577,0.385-0.289,1.25,0.384,1.153
	c42.875-6.634,46.336-35.38,46.434-43.069h7.111C97.563,48.541,98.718,46.042,97.372,44.407L97.372,44.407z M42.569,49.886h-6.824
	c0.192-12.784,0.192-29.035,22.595-42.011c0.577-0.384,0.288-1.25-0.384-1.154c-42.884,6.633-46.344,35.475-46.44,43.069H4.403
	c-2.115,0-3.364,2.499-2.019,4.133l17.398,21.923c1.923,2.403,5.479,2.403,7.401,0l17.405-21.923
	C45.838,52.385,44.685,49.886,42.569,49.886L42.569,49.886z"/>
<path display="none" fill="#6E6E6E" d="M92.389,65.143h-42.5V54.518H23.334v-42.5h37.18v10.625h31.875l-10.625,21.25L92.389,65.143z
	 M12.709,91.714c-2.94,0-5.321-2.381-5.321-5.305V12.034c0-2.941,2.38-5.321,5.321-5.321s5.321,2.379,5.321,5.321v74.375
	C18.013,89.333,15.633,91.714,12.709,91.714L12.709,91.714z"/>
<g display="none">
	<path display="inline" fill="#6E6E6E" d="M80.667,34.834c-2.097,1.822-5.163,1.717-6.858-0.229
		c-1.688-1.948-1.363-5.001,0.732-6.821c2.092-1.822,5.163-1.719,6.857,0.229C83.089,29.959,82.764,33.01,80.667,34.834
		L80.667,34.834z M93.503,26.622L78.331,9.166c-2.579-2.968-7.063-3.287-10.026-0.713L47.113,26.872l4.442,5.114l6.282,7.223
		c0.83,0.951,0.728,2.466-0.274,3.334l-0.181,0.154c-0.998,0.871-2.489,0.784-3.337-0.192l-6.28-7.222l-4.442-5.11l-7.59,6.592
		l3.544,4.068l4.09,4.71c0.88,1.013,0.753,2.499-0.248,3.367l-0.18,0.153c-0.999,0.872-2.501,0.768-3.367-0.224l-4.093-4.711
		l-3.535-4.068l-7.584,6.592l4.442,5.114l6.282,7.229c0.827,0.946,0.721,2.464-0.274,3.327l-0.18,0.154
		c-1.004,0.873-2.493,0.785-3.34-0.188l-6.282-7.227l-4.442-5.109L6.961,61.779c-2.959,2.568-3.267,7.059-0.688,10.023
		l15.172,17.451c2.581,2.975,7.067,3.29,10.027,0.719l61.342-53.33C95.773,34.078,96.084,29.586,93.503,26.622L93.503,26.622z"/>
</g>
<g display="none">
	<path display="inline" fill="#6E6E6E" d="M49.888,6.713c-23.472,0-42.5,19.028-42.5,42.5c0,23.473,19.028,42.5,42.5,42.5
		c23.471,0,42.5-19.027,42.5-42.5C92.389,25.742,73.359,6.713,49.888,6.713L49.888,6.713z M53.518,9.724c0,0,2.662-1.544,3.59-0.617
		c0.93,0.926,4.168-0.154,12.506,4.786c0,0-1.836,1.959-2.233,1.841c0.229,0.426,0.955,1.724,1.468,2.526
		c0.616,0.97,0.771,1.037,0.771,1.037L69,20.224l0.615,0.154c-0.615-0.154-0.926,1.698-1.818,2.007
		c-0.896,0.309,0.273,2.007-0.031,2.316c-0.311,0.309,0.152,3.088,0,4.725c-0.154,1.638-0.771,0.216-1.543,0
		c-0.771-0.215-2.011-0.711-2.113-1.174c-0.104-0.463-0.355-1.853-0.051-2.625c0.312-0.771-0.927-1.544-1.543-2.11
		c-0.617-0.565-3.088,0.104-3.553,0c-0.463-0.103-0.771-1.44-0.771-2.676c0-1.236,2.162,0.154,3.379,0
		c1.221-0.154,1.408-3.232,1.408-3.232l-0.067-2.617c-0.498-0.199-0.579-0.458,0.228-0.79c0,0-2.625-0.617-3.24,0.772
		c-0.617,1.389-0.931,1.255-1.082,2.635c-0.154,1.38-2.572,0.164-3.143,0c-0.563-0.165-2.107-2.018-2.107-2.018
		c0.465-1.081,0.771-1.853,0.771-1.853l-0.812-1.853V9.724H53.518z M29.159,24.083c0.262-0.35,2.008-3.396,4.169-2.47
		c2.162,0.926,3.551-1.081,3.551-1.081s3.174-3.242,3.363-2.779l0.189,0.463c-0.189-0.463,2.625-1.235,2.934,0.31
		c0.309,1.544,2.162,2.32,2.162,2.32s-1.081,1.848-0.772,3.237c0.309,1.391,1.389,1.699,0.772,2.935
		c-0.618,1.234-1.853,1.698-2.162,2.315c-0.309,0.618-2.848-2.007-3.123-2.934c-0.275-0.926-1.631-1.853-2.806-1.544
		s-4.263,1.081-4.88,0.772C31.939,25.318,28.436,25.049,29.159,24.083L29.159,24.083z M70.539,69.479
		c-1.234,3.242-4.168,8.803-5.712,10.351c-1.545,1.545-3.397,4.479-4.787,5.562c-1.39,1.077-1.39,3.09-3.088,2.936
		c-1.699-0.154-3.706-4.941-3.243-6.176c0.464-1.236-8.492-3.398-8.492-3.398s-3.86-0.463-4.632-7.873
		c-0.137-1.32-0.226-2.256-0.279-2.906c-1.16-0.512-5.71-2.396-8.522-1.727c-3.243,0.771-4.015-1.029-6.794-1.441l-4.787-4.426
		c0,0-7.874-9.109-6.948-10.654c0.926-1.544,0.926-5.713,1.081-6.64c0.155-0.926-1.232-6.794-1.157-7.565
		c0.076-0.772-1.159-3.706-1.159-3.706s2.934-6.177,3.397-6.177s2.162,5.25,3.86,5.404c1.698,0.154,6.33-0.154,7.025-0.926
		c0.695-0.772,1.313-1.698,2.084-1.698s0.772-0.464,2.162,0.154c1.389,0.617,2.934,1.544,3.551,2.47
		c0.618,0.927-0.463,2.779,2.779,2.779c3.243,0,3.243-0.771,3.706,1.39c0.463,2.162,1.012,6.948-0.343,7.258
		c-1.355,0.309-5.37,5.009-5.061,6.519c0.309,1.51,0.309,3.826-0.309,5.216c-0.617,1.389-1.081,1.852-3.396,1.697
		c-2.315-0.156-4.274-1.394-4.917,0.463c-0.642,1.854-1.871,6.023,0.285,5.604c0,0,3.396-1.031,4.632,0
		C32.71,63,40.585,66.4,40.585,66.4s7.103-7.725,18.22-2.778l1.854,1.235l3.089-0.672c0,0,4.016-1.186,5.402-0.873l1.392,0.31V63
		C70.539,62.994,71.773,66.236,70.539,69.479L70.539,69.479z M88.604,51.878c0,0-0.926-1.391-0.926-2.852
		c0-1.462-1.08-1.318-1.08-3.171s-1.391-1.235-2.316-2.47c-0.926-1.235-1.389,0.463-2.157,0.617s-0.618,1.39-1.394,2.856
		c-0.771,1.467-2.775,2.394-3.396,2.118c-0.618-0.273-2.937-2.35-3.089-2.813c-0.155-0.463-3.243-3.088-3.157-3.705
		c0.086-0.618-0.856-3.86-1.476-5.404c-0.617-1.544,0-7.628,0-7.628c-0.928-0.524,8.492-4.416,7.258-4.879
		c-1.234-0.464-1.854-5.559-1.854-5.559l4.494,2.315c4.491,2.316,10.174,20.691,10.174,20.691v5.249L88.604,51.878z"/>
</g>
<g display="none">
	<g display="inline">
		<g>
			<path fill="#595757" d="M56.234,74.811H14.578V20.225h65.501v23.516c1.302,0.268,2.588,0.649,3.854,1.163
				c0.549,0.22,1.078,0.477,1.604,0.741V17.496c0-1.509-1.221-2.729-2.729-2.729h-70.96c-1.508,0-2.729,1.221-2.729,2.729v60.042
				c0,1.509,1.221,2.729,2.729,2.729h48.289C58.521,78.621,57.225,76.799,56.234,74.811z"/>
		</g>
	</g>
	<g display="inline">
		<g>
			<path fill="#595757" d="M69.623,16.995L61.82,45.67c1.076-0.808,2.205-1.504,3.394-2.078l7.042-25.883L69.623,16.995z
				 M54.021,74.341l2.576,0.699c-0.721-1.093-1.324-2.247-1.826-3.457L54.021,74.341z"/>
		</g>
	</g>
	<g display="inline">
		<g>
			<path fill="#595757" d="M92.395,58.279c-0.888-2.196-2.219-4.188-3.994-5.959c-1.729-1.733-3.697-3.045-5.896-3.93
				c-2.196-0.89-4.458-1.327-6.771-1.327c-2.313-0.006-4.578,0.426-6.797,1.3c-2.217,0.864-4.217,2.186-5.985,3.958
				c-1.774,1.773-3.093,3.772-3.961,5.99c-0.869,2.211-1.302,4.479-1.302,6.797c0,2.313,0.439,4.567,1.334,6.766
				c0.884,2.195,2.192,4.165,3.929,5.896c1.774,1.774,3.763,3.105,5.959,3.994c2.196,0.883,4.452,1.33,6.765,1.33
				s4.568-0.447,6.766-1.33c2.201-0.889,4.187-2.22,5.959-3.994c1.775-1.771,3.104-3.76,3.994-5.955
				c0.885-2.201,1.33-4.457,1.326-6.766C93.721,62.734,93.277,60.475,92.395,58.279z M84.738,70.518
				c0.5,0.502,0.757,1.102,0.757,1.797c-0.007,0.693-0.257,1.291-0.757,1.793c-0.502,0.5-1.1,0.754-1.793,0.754
				c-0.697,0-1.295-0.254-1.797-0.754l-5.44-5.441l-5.442,5.441c-0.502,0.5-1.104,0.754-1.797,0.754s-1.289-0.254-1.791-0.754
				c-0.537-0.541-0.811-1.155-0.811-1.852c0-0.693,0.246-1.295,0.746-1.797l5.441-5.441l-5.381-5.385
				c-0.535-0.539-0.811-1.156-0.811-1.85c0-0.694,0.244-1.303,0.746-1.803c0.5-0.502,1.104-0.746,1.804-0.746
				c0.69,0,1.313,0.271,1.851,0.811l5.385,5.379l5.44-5.441c0.501-0.502,1.101-0.746,1.798-0.746c0.691,0,1.313,0.271,1.852,0.812
				c0.5,0.502,0.757,1.101,0.757,1.792c-0.007,0.698-0.257,1.295-0.757,1.797l-5.442,5.441L84.738,70.518z"/>
		</g>
	</g>
	<g display="inline">
		
			<rect x="15.287" y="14.979" transform="matrix(-0.9677 -0.252 0.252 -0.9677 24.418 69.3907)" fill="#595757" width="2.732" height="36.306"/>
	</g>
	<g display="inline">
		
			<rect x="22.993" y="16.281" transform="matrix(-0.9642 -0.2653 0.2653 -0.9642 35.3731 98.7903)" fill="#595757" width="2.731" height="61.451"/>
	</g>
	<g display="inline">
		
			<rect x="36.511" y="14.526" transform="matrix(-0.9662 -0.2577 0.2577 -0.9662 62.8453 98.5027)" fill="#595757" width="2.731" height="61.216"/>
	</g>
	<g display="inline">
		
			<rect x="49.991" y="14.504" transform="matrix(-0.9665 -0.2568 0.2568 -0.9665 89.2131 103.3884)" fill="#595757" width="2.732" height="62.731"/>
	</g>
</g>
<g display="none">
	<path display="inline" fill="#595757" d="M53.146,14.542l-8.771-3.709c-2.385-1.16-5.382-0.124-6.557,2.271L12.646,67.21
		c-0.084,0.185-0.134,0.394-0.125,0.603l0.145,17.621c0,0.522,0.294,0.996,0.752,1.234c0.209,0.105,0.428,0.17,0.657,0.17
		c0.274,0,0.548-0.085,0.787-0.244l14.913-9.988c0.219-0.146,0.389-0.349,0.503-0.586l25.179-54.91
		C56.637,18.695,55.632,15.757,53.146,14.542L53.146,14.542z"/>
	<polygon display="inline" fill="#595757" points="36.377,78.447 36.377,68.878 87.479,68.878 87.479,78.447 	"/>
	<polygon display="inline" fill="#595757" points="45.688,54.527 87.479,54.527 87.479,64.094 45.688,64.094 	"/>
	<polygon display="inline" fill="#595757" points="53.988,40.175 87.479,40.175 87.479,49.743 53.988,49.743 	"/>
	<path display="inline" fill="#595757" d="M39.633,40.175"/>
</g>
<g display="none">
	<g display="inline">
		<path fill="#3285FF" d="M70.609,26.479c0.189,0.429,0.347,0.933,0.468,1.504c0.118,0.574,0.18,1.172,0.18,1.793
			c0,0.623-0.12,1.244-0.358,1.864c-0.238,0.623-0.623,1.219-1.146,1.792c-0.572,0.574-1.086,1.076-1.539,1.505
			c-0.456,0.431-0.852,0.815-1.186,1.15c-0.383,0.382-0.74,0.717-1.075,1.002L52.544,23.682c0.571-0.524,1.253-1.157,2.044-1.899
			c0.788-0.741,1.443-1.327,1.971-1.758c0.67-0.525,1.361-0.896,2.078-1.108c0.719-0.217,1.424-0.313,2.115-0.288
			c0.691,0.022,1.361,0.13,2.007,0.323c0.646,0.189,1.206,0.406,1.685,0.645c1.004,0.527,2.117,1.445,3.334,2.761
			C68.999,23.669,69.939,25.046,70.609,26.479L70.609,26.479z M14.756,61.469c0.288-0.287,0.958-0.967,2.007-2.043
			c1.054-1.076,2.369-2.404,3.945-3.98l5.235-5.23l5.807-5.809L47.166,28.99l13.406,13.48L45.156,57.883l-5.735,5.809
			c-1.913,1.867-3.632,3.572-5.164,5.129c-1.527,1.553-2.792,2.832-3.797,3.836c-1.005,1.008-1.601,1.576-1.793,1.721
			c-0.478,0.432-1.029,0.889-1.65,1.365s-1.266,0.854-1.936,1.146c-0.669,0.33-1.65,0.737-2.94,1.217
			c-1.291,0.479-2.64,0.944-4.051,1.397c-1.411,0.453-2.749,0.849-4.017,1.183c-1.266,0.336-2.211,0.553-2.832,0.646
			c-1.291,0.144-2.15-0.049-2.581-0.572c-0.429-0.526-0.549-1.407-0.357-2.653c0.096-0.67,0.322-1.635,0.679-2.906
			c0.36-1.266,0.741-2.579,1.15-3.938c0.404-1.363,0.798-2.619,1.182-3.769c0.379-1.144,0.692-1.933,0.931-2.363
			c0.286-0.67,0.611-1.28,0.968-1.83C13.574,62.748,14.089,62.137,14.756,61.469L14.756,61.469z"/>
	</g>
</g>
<g display="none">
	<polygon display="inline" fill="#3285FF" points="71.257,41.479 80.186,41.479 80.186,50.939 71.257,50.939 	"/>
</g>
<g display="none">
	<polygon display="inline" fill="#3285FF" points="71.257,74.479 80.186,74.479 80.186,83.939 71.257,83.939 	"/>
</g>
<g display="none">
	<polygon display="inline" fill="#3285FF" points="35.271,73.854 44.2,73.854 44.2,83.314 35.271,83.314 	"/>
</g>
<g display="none">
	<path display="inline" fill="#3285FF" d="M77.221,80.734l-41.322-0.717l41.322-37.177V80.734z M43.572,77.15l30.649,0.531V49.576
		L43.572,77.15z"/>
</g>
<g>
	<g>
		<g>
			<path fill="#6E6E6E" d="M78.626,11.207c-0.121-0.075-0.27-0.077-0.391-0.017l-18.9,9.451c-0.065,0.032-0.122,0.083-0.162,0.149
				c-0.042,0.066-0.06,0.138-0.06,0.21v25.288c3.229-1.884,6.976-2.968,10.977-2.968c3.103,0,6.053,0.652,8.728,1.822V11.548
				C78.817,11.414,78.749,11.282,78.626,11.207z M31.191,12.227l-18.903,7.911c-0.071,0.029-0.135,0.079-0.18,0.148
				c-0.046,0.068-0.067,0.145-0.067,0.221v59.836c0,0.131,0.064,0.258,0.183,0.334s0.261,0.086,0.381,0.033l18.903-8.402
				c0.068-0.031,0.129-0.082,0.173-0.15c0.044-0.066,0.066-0.143,0.066-0.217V12.596c0-0.13-0.064-0.255-0.179-0.333
				C31.451,12.186,31.31,12.176,31.191,12.227z M55.584,19.555l-19.998-8.421c-0.12-0.049-0.261-0.041-0.378,0.036
				c-0.115,0.077-0.179,0.204-0.179,0.334v60.422c0,0.076,0.023,0.156,0.072,0.225c0.049,0.07,0.115,0.121,0.189,0.148l17.439,6.426
				c-2.843-3.712-4.538-8.357-4.538-13.404c0-6.673,2.964-12.649,7.636-16.686V19.924c0-0.077-0.021-0.153-0.066-0.222
				C55.717,19.633,55.653,19.583,55.584,19.555z"/>
		</g>
	</g>
	<path fill="#6E6E6E" d="M87.079,65.32c0,9.43-7.605,17.068-16.989,17.068c-9.38,0-16.986-7.639-16.986-17.068
		c0-9.424,7.606-17.068,16.986-17.068C79.474,48.252,87.079,55.896,87.079,65.32L87.079,65.32z M59.365,64.141
		c0.02,0.494,0.027,0.939,0.035,1.328s0.014,0.803,0.014,1.232c0,0.352,0.063,0.635,0.189,0.85s0.281,0.379,0.463,0.504
		c0.182,0.119,0.387,0.195,0.611,0.225c0.22,0.035,0.432,0.049,0.639,0.049c0.477,0,1.099-0.01,1.857-0.023
		c0.764-0.016,1.549-0.025,2.354-0.039c0.813-0.006,1.592-0.016,2.334-0.02c0.748-0.01,1.352-0.014,1.811-0.014
		c0.414-0.014,0.738,0.027,0.977,0.129c0.239,0.105,0.365,0.359,0.382,0.758c0,0.188,0.003,0.398,0.011,0.633
		c0.011,0.23,0.017,0.465,0.024,0.705c0.009,0.238,0.017,0.467,0.025,0.686c0.005,0.211,0.008,0.406,0.008,0.58
		c0,0.576,0.182,0.916,0.538,1.018c0.356,0.104,0.815-0.07,1.367-0.537c0.494-0.412,1.062-0.887,1.701-1.412
		c0.646-0.525,1.296-1.063,1.954-1.604c0.659-0.539,1.299-1.061,1.916-1.564c0.62-0.498,1.158-0.945,1.619-1.328
		c0.429-0.385,0.634-0.744,0.62-1.09c-0.017-0.344-0.255-0.695-0.713-1.064c-0.508-0.398-1.099-0.854-1.766-1.371
		c-0.664-0.518-1.339-1.049-2.022-1.598c-0.681-0.535-1.348-1.068-1.998-1.572c-0.65-0.514-1.216-0.959-1.688-1.342
		c-0.478-0.365-0.868-0.475-1.17-0.322c-0.302,0.148-0.455,0.51-0.455,1.064c0.019,0.33,0.019,0.719,0,1.156
		c-0.011,0.441-0.022,0.82-0.022,1.137c0.02,0.438-0.147,0.705-0.499,0.824c-0.349,0.121-0.832,0.182-1.452,0.182
		c-0.428,0-1.006,0.01-1.737,0.025c-0.732,0.02-1.478,0.029-2.251,0.033c-0.769,0.014-1.497,0.02-2.174,0.027
		c-0.686,0.006-1.188,0.01-1.501,0.01c-0.7,0-1.209,0.121-1.525,0.359C59.522,62.994,59.365,63.455,59.365,64.141L59.365,64.141z
		 M59.365,64.141"/>
</g>
<path display="none" fill="#2980C4" d="M59.365,64.141"/>
</svg>
