<?xml version="1.0" encoding="utf-8"?>
<!-- Generator: Adobe Illustrator 16.0.0, SVG Export Plug-In . SVG Version: 6.00 Build 0)  -->
<!DOCTYPE svg PUBLIC "-//W3C//DTD SVG 1.1//EN" "http://www.w3.org/Graphics/SVG/1.1/DTD/svg11.dtd">
<svg version="1.1" id="图层_1" xmlns="http://www.w3.org/2000/svg" xmlns:xlink="http://www.w3.org/1999/xlink" x="0px" y="0px"
	 width="100px" height="100px" viewBox="0 0 100 100" enable-background="new 0 0 100 100" xml:space="preserve">
<g display="none">
	<g display="inline">
		<path fill="#6E6E6E" d="M50.99,6.927l-0.35-0.214C51.378,7.714,51.378,7.246,50.99,6.927L50.99,6.927z M89.76,26.57
			c0.702,0.004,1.377-0.272,1.877-0.766c0.496-0.493,0.778-1.167,0.783-1.868V9.995c-0.008-1.458-1.197-2.637-2.654-2.629H75.713
			c-1.46-0.008-2.646,1.171-2.654,2.629v4.331h-8.627c-0.271-0.045-0.545-0.045-0.813,0h-36.9V9.995
			c-0.008-1.458-1.194-2.637-2.652-2.629H10.011C8.552,7.358,7.366,8.537,7.356,9.995v13.931c0.01,1.458,1.196,2.636,2.655,2.631
			h4.367v45.96h-4.367c-0.701-0.004-1.375,0.272-1.873,0.767c-0.498,0.493-0.78,1.167-0.782,1.87v13.931
			c0.01,1.459,1.196,2.634,2.655,2.629h14.054c0.7,0,1.373-0.272,1.871-0.767c0.498-0.497,0.78-1.166,0.782-1.869v-4.329H73.05
			v4.329c0.003,0.703,0.282,1.372,0.78,1.869c0.497,0.494,1.172,0.767,1.873,0.767h14.054c0.701,0,1.374-0.272,1.872-0.767
			c0.497-0.497,0.78-1.166,0.782-1.869V75.162c-0.002-0.7-0.285-1.373-0.782-1.866c-0.498-0.495-1.171-0.771-1.872-0.771h-4.366
			V35.542c0.006-0.089,0.006-0.179,0-0.269v-8.708h4.377L89.76,26.57z M19.702,45.104c0.159-0.104,0.311-0.224,0.447-0.358
			l25.336-25.142h12.087l-37.87,37.574V45.104z M24.069,26.566c1.458,0.004,2.645-1.172,2.652-2.63v-4.334h11.251L19.696,37.739
			V26.566H24.069z M19.702,64.627l45.384-45.026h7.967v3.234l-50.107,49.69h-3.259v-7.898H19.702L19.702,64.627z M80.08,53.609
			l-25.457,25.25c-0.189,0.188-0.35,0.4-0.473,0.631H42.055L80.08,41.776V53.609z M75.713,72.525c-0.701,0-1.377,0.274-1.873,0.771
			c-0.498,0.493-0.779,1.166-0.781,1.866v4.328H61.512L80.08,61.064v11.461H75.713z M80.08,34.32L34.534,79.49h-7.816v-3.247
			l50.083-49.677h3.279V34.32z"/>
	</g>
</g>
<g display="none">
	<path display="inline" fill="#6E6E6E" d="M49.888,6.713c-23.472,0-42.5,19.029-42.5,42.5s19.028,42.5,42.5,42.5
		c23.471,0,42.5-19.027,42.5-42.5C92.389,25.741,73.359,6.713,49.888,6.713L49.888,6.713z M49.888,83.912
		c-19.164,0-34.7-15.535-34.7-34.699s15.534-34.7,34.7-34.7c19.163,0,34.699,15.536,34.699,34.7S69.051,83.912,49.888,83.912
		L49.888,83.912z"/>
	<path display="inline" fill="#6E6E6E" d="M47.954,29.176c0,2.761,2.241,5.002,5.007,5.002c2.762,0,5.003-2.241,5.003-5.002
		c0-2.767-2.241-5.008-5.003-5.008C50.195,24.17,47.954,26.411,47.954,29.176L47.954,29.176z M51.518,75.258
		c-3.69,0.922-8.801,0.842-11.354-0.186c-2.557-1.023-3.486-4.754-2.064-8.284l6.369-15.871c1.417-3.53-0.426-7.254-4.092-8.272
		l-1.218-0.338c-3.666-1.018-3.594-2.352,0.164-2.96l3.644-0.595c3.757-0.611,8.919-0.274,11.474,0.75
		c2.557,1.027,3.479,4.753,2.054,8.285l-5.937,14.701c-1.429,3.531,0.358,7.312,3.959,8.398c3.608,1.09,3.537,2.735-0.154,3.66
		l-2.842,0.711H51.518L51.518,75.258z"/>
</g>
<path display="none" fill="#6E6E6E" d="M97.372,44.407L79.967,22.485c-1.922-2.402-5.479-2.402-7.4,0L55.258,44.407
	c-1.346,1.635-0.09,4.134,2.024,4.134h6.823c-0.19,12.783-0.19,29.034-22.593,42.012c-0.577,0.385-0.289,1.25,0.384,1.153
	c42.875-6.634,46.336-35.38,46.434-43.069h7.111C97.563,48.541,98.718,46.042,97.372,44.407L97.372,44.407z M42.569,49.886h-6.824
	c0.192-12.784,0.192-29.035,22.595-42.011c0.577-0.384,0.288-1.25-0.384-1.154c-42.884,6.633-46.344,35.475-46.44,43.069H4.403
	c-2.115,0-3.364,2.499-2.019,4.133l17.398,21.923c1.923,2.403,5.479,2.403,7.401,0l17.405-21.923
	C45.838,52.385,44.685,49.886,42.569,49.886L42.569,49.886z"/>
<path display="none" fill="#6E6E6E" d="M92.389,65.143h-42.5V54.518H23.334v-42.5h37.18v10.625h31.875l-10.625,21.25L92.389,65.143z
	 M12.709,91.714c-2.94,0-5.321-2.381-5.321-5.305V12.034c0-2.941,2.38-5.321,5.321-5.321s5.321,2.379,5.321,5.321v74.375
	C18.013,89.333,15.633,91.714,12.709,91.714L12.709,91.714z"/>
<g display="none">
	<path display="inline" fill="#6E6E6E" d="M49.888,6.713c-23.472,0-42.5,19.028-42.5,42.5c0,23.473,19.028,42.5,42.5,42.5
		c23.471,0,42.5-19.027,42.5-42.5C92.389,25.742,73.359,6.713,49.888,6.713L49.888,6.713z M53.518,9.724c0,0,2.662-1.544,3.59-0.617
		c0.926,0.926,4.168-0.154,12.506,4.786c0,0-1.836,1.959-2.237,1.841c0.233,0.426,0.955,1.724,1.466,2.526
		c0.618,0.97,0.771,1.037,0.771,1.037l-0.616,0.927l0.616,0.154c-0.616-0.154-0.926,1.698-1.819,2.007
		c-0.896,0.309,0.274,2.007-0.032,2.316c-0.31,0.309,0.153,3.088,0,4.725c-0.154,1.638-0.771,0.216-1.543,0
		c-0.773-0.215-2.01-0.711-2.113-1.174c-0.106-0.463-0.358-1.853-0.051-2.625c0.309-0.771-0.926-1.544-1.543-2.11
		c-0.617-0.565-3.088,0.104-3.552,0c-0.463-0.103-0.772-1.44-0.772-2.676c0-1.236,2.162,0.154,3.379,0
		c1.218-0.154,1.408-3.232,1.408-3.232l-0.07-2.617c-0.498-0.199-0.579-0.458,0.226-0.79c0,0-2.625-0.617-3.241,0.772
		c-0.617,1.389-0.928,1.255-1.082,2.635s-2.572,0.164-3.14,0c-0.565-0.165-2.11-2.018-2.11-2.018
		c0.465-1.081,0.772-1.853,0.772-1.853l-0.81-1.853V9.724H53.518z M29.159,24.083c0.262-0.35,2.008-3.396,4.169-2.47
		c2.162,0.926,3.551-1.081,3.551-1.081s3.174-3.242,3.363-2.779l0.189,0.463c-0.189-0.463,2.625-1.235,2.934,0.31
		c0.309,1.544,2.162,2.32,2.162,2.32s-1.081,1.848-0.772,3.237c0.309,1.391,1.389,1.699,0.772,2.935
		c-0.618,1.234-1.853,1.698-2.162,2.315c-0.309,0.618-2.848-2.007-3.123-2.934c-0.275-0.926-1.631-1.853-2.806-1.544
		s-4.263,1.081-4.88,0.772C31.939,25.318,28.436,25.049,29.159,24.083L29.159,24.083z M70.539,69.479
		c-1.234,3.242-4.168,8.803-5.712,10.347c-1.545,1.545-3.397,4.478-4.787,5.559c-1.39,1.08-1.39,3.089-3.088,2.935
		c-1.699-0.154-3.706-4.941-3.243-6.176c0.464-1.236-8.492-3.398-8.492-3.398s-3.86-0.463-4.632-7.873
		c-0.137-1.32-0.226-2.256-0.279-2.906c-1.16-0.512-5.71-2.396-8.522-1.727c-3.243,0.771-4.015-1.029-6.794-1.441l-4.787-4.426
		c0,0-7.874-9.109-6.948-10.654c0.926-1.544,0.926-5.713,1.081-6.64c0.155-0.926-1.232-6.794-1.157-7.565
		c0.076-0.772-1.159-3.706-1.159-3.706s2.934-6.177,3.397-6.177s2.162,5.25,3.86,5.404c1.698,0.154,6.33-0.154,7.025-0.926
		c0.695-0.772,1.313-1.698,2.084-1.698s0.772-0.464,2.162,0.154c1.389,0.617,2.934,1.544,3.551,2.47
		c0.618,0.927-0.463,2.779,2.779,2.779c3.243,0,3.243-0.771,3.706,1.39c0.463,2.162,1.012,6.948-0.343,7.258
		c-1.355,0.309-5.37,5.009-5.061,6.519c0.309,1.51,0.309,3.826-0.309,5.216c-0.617,1.389-1.081,1.852-3.396,1.697
		c-2.315-0.156-4.274-1.39-4.917,0.463c-0.642,1.854-1.871,6.026,0.285,5.606c0,0,3.396-1.034,4.632,0
		c1.235,1.033,9.11,4.431,9.11,4.431s7.103-7.722,18.22-2.779l1.853,1.236l3.089-0.672c0,0,4.014-1.183,5.404-0.873l1.39,0.309
		v-0.617C70.539,62.994,71.773,66.236,70.539,69.479L70.539,69.479z M88.604,51.878c0,0-0.926-1.391-0.926-2.852
		c0-1.462-1.08-1.318-1.08-3.171s-1.391-1.235-2.316-2.47c-0.926-1.235-1.389,0.463-2.161,0.617s-0.618,1.39-1.39,2.856
		c-0.772,1.467-2.779,2.394-3.396,2.118c-0.618-0.273-2.936-2.35-3.089-2.813c-0.155-0.463-3.243-3.088-3.157-3.705
		c0.086-0.618-0.857-3.86-1.475-5.404c-0.618-1.544,0-7.628,0-7.628c-0.928-0.524,8.492-4.416,7.257-4.879
		c-1.235-0.464-1.853-5.559-1.853-5.559l4.494,2.315c4.494,2.316,10.174,20.691,10.174,20.691v5.249L88.604,51.878z"/>
</g>
<g display="none">
	<path display="inline" fill="#6E6E6E" d="M86.499,45.256c0.255-1.365,0.383-2.752,0.383-4.139c0-12.57-10.226-22.794-22.792-22.794
		c-6.98,0-13.416,3.192-17.661,8.399c-2.842-1.455-6.019-2.233-9.294-2.233c-9.86,0-18.113,7.019-20.029,16.321
		C8.902,44.35,3.308,52.552,3.308,61.752c0,12.566,10.226,22.792,22.796,22.792h52.458c11.274,0,20.448-9.171,20.448-20.443
		C99.01,55.64,93.841,48.361,86.499,45.256L86.499,45.256z M78.562,78.571H26.104c-9.29,0-16.821-7.533-16.821-16.819
		c0-8.116,5.751-14.884,13.397-16.466c0-0.119-0.017-0.234-0.017-0.354c0-7.988,6.481-14.471,14.472-14.471
		c4.445,0,8.418,2.012,11.072,5.164c2.28-6.593,8.52-11.328,15.883-11.328c9.286,0,16.815,7.529,16.815,16.819
		c0,3.109-0.859,6.011-2.326,8.508c7.983,0.008,14.454,6.482,14.454,14.476C93.033,72.089,86.555,78.571,78.562,78.571
		L78.562,78.571z M78.562,78.571"/>
	<path display="inline" fill="#6E6E6E" d="M78.574,53.262h-0.002c-1.1,0-1.993,0.894-1.993,1.991c0,1.102,0.89,1.99,1.991,1.994
		c3.775,0,6.844,3.076,6.844,6.854s-3.075,6.849-6.853,6.849H26.104c-5.075,0-9.199-4.122-9.199-9.197
		c0-4.343,3.078-8.129,7.319-9.005c1.076-0.222,1.77-1.276,1.548-2.356c-0.226-1.072-1.276-1.766-2.357-1.544
		c-6.081,1.259-10.494,6.687-10.494,12.905c0,7.27,5.913,13.183,13.182,13.183h52.458c5.977,0,10.839-4.862,10.839-10.834
		C89.4,58.128,84.542,53.271,78.574,53.262L78.574,53.262z M52.877,39.343c1.036,0.357,2.17-0.191,2.531-1.229
		c1.28-3.709,4.769-6.198,8.682-6.198c5.071,0,9.197,4.126,9.197,9.201c0,1.616-0.442,3.225-1.276,4.641
		c-0.558,0.953-0.242,2.17,0.706,2.727c0.319,0.188,0.666,0.276,1.008,0.276c0.684,0,1.349-0.349,1.719-0.978
		c1.195-2.033,1.825-4.339,1.825-6.666c0-7.27-5.908-13.183-13.179-13.183c-5.608,0-10.61,3.569-12.446,8.874
		C51.286,37.85,51.835,38.986,52.877,39.343L52.877,39.343z M28.265,46.805h0.025c1.089,0,1.976-0.872,1.991-1.966
		c0.051-3.722,3.126-6.754,6.853-6.754c2.024,0,3.933,0.889,5.245,2.446c0.706,0.842,1.961,0.948,2.803,0.242
		s0.953-1.965,0.243-2.807c-2.067-2.455-5.087-3.867-8.291-3.867c-5.896,0-10.754,4.798-10.834,10.689
		C26.285,45.886,27.163,46.792,28.265,46.805L28.265,46.805z M28.265,46.805"/>
</g>
<rect x="18.668" y="37.371" display="none" fill="none" width="55.322" height="55.409"/>
<g display="none">
	<path display="inline" fill="#6E6E6E" d="M49.532,6.429c-24.862,0-45.009,20.154-45.009,45.01c0,24.86,20.146,45.008,45.009,45.008
		c24.855,0,45.01-20.147,45.01-45.008C94.542,26.581,74.388,6.429,49.532,6.429L49.532,6.429z M49.532,86.695
		c-19.475,0-35.263-15.788-35.263-35.257c0-19.477,15.789-35.258,35.263-35.258c19.473,0,35.255,15.781,35.255,35.258
		C84.789,70.907,69.005,86.695,49.532,86.695L49.532,86.695z M49.532,86.695"/>
	<path display="inline" fill="#6E6E6E" d="M53.777,51.438c0,2.349-1.9,4.242-4.245,4.242c-2.352,0-4.251-1.894-4.251-4.242
		c0-2.351,1.9-4.251,4.251-4.251C51.877,47.187,53.777,49.087,53.777,51.438L53.777,51.438z M53.777,51.438"/>
	<path display="inline" fill="#6E6E6E" d="M53.777,22.932c0,2.345-1.9,4.251-4.245,4.251c-2.352,0-4.251-1.906-4.251-4.251
		c0-2.352,1.9-4.25,4.251-4.25C51.877,18.682,53.777,20.58,53.777,22.932L53.777,22.932z M53.777,22.932"/>
	<path display="inline" fill="#6E6E6E" d="M53.777,79.944c0,2.344-1.9,4.247-4.245,4.247c-2.352,0-4.251-1.903-4.251-4.247
		c0-2.347,1.9-4.252,4.251-4.252C51.877,75.692,53.777,77.598,53.777,79.944L53.777,79.944z M53.777,79.944"/>
	<path display="inline" fill="#6E6E6E" d="M21.027,47.187c2.345,0,4.251,1.9,4.251,4.251c0,2.349-1.906,4.242-4.251,4.242
		c-2.352,0-4.251-1.894-4.251-4.242C16.776,49.087,18.676,47.187,21.027,47.187L21.027,47.187z M21.027,47.187"/>
	<path display="inline" fill="#6E6E6E" d="M78.039,47.187c2.34,0,4.248,1.9,4.248,4.251c0,2.349-1.908,4.242-4.248,4.242
		c-2.354,0-4.251-1.894-4.251-4.242C73.788,49.087,75.686,47.187,78.039,47.187L78.039,47.187z M78.039,47.187"/>
	<path display="inline" fill="#6E6E6E" d="M53.277,58.435L26.276,30.43l1.497-1.246l29.256,25.752L53.277,58.435z M53.277,58.435"/>
	<path display="inline" fill="#6E6E6E" d="M67.035,36.937L45.781,56.932l-2.754-2.493l22.005-19.506L67.035,36.937z M67.035,36.937"
		/>
</g>
<rect x="-53.265" y="35.798" display="none" fill="none" width="54.225" height="53.229"/>
<g display="none">
	<path display="inline" fill="#6E6E6E" d="M24.987,49.922c0,8.981,4.79,17.28,12.566,21.768c7.777,4.49,17.357,4.49,25.134,0
		c7.775-4.487,12.567-12.786,12.567-21.768c0-13.878-11.254-25.133-25.135-25.133S24.987,36.044,24.987,49.922L24.987,49.922z
		 M50.083,1.608c1.635-0.024,3.067,1.432,3.104,3.081l0.052,10.088c0.024,1.635-1.434,3.068-3.079,3.105
		c-1.636,0.025-3.069-1.431-3.107-3.081L47.002,4.714C47.116,2.824,48.448,1.633,50.083,1.608L50.083,1.608z M99.488,49.747
		c-0.025,1.632-1.216,2.966-3.104,3.079l-10.091-0.05c-1.635-0.028-3.104-1.457-3.079-3.107c0.024-1.636,1.458-3.104,3.104-3.079
		l10.092,0.05C98.045,46.679,99.514,48.112,99.488,49.747L99.488,49.747z M17.028,49.747c-0.026,1.632-1.218,2.966-3.105,3.079
		l-10.09-0.05c-1.635-0.028-3.105-1.457-3.079-3.107c0.025-1.636,1.457-3.104,3.105-3.079l10.088,0.05
		C15.583,46.679,17.053,48.112,17.028,49.747L17.028,49.747z M50.16,98.393c-1.636,0.024-3.069-1.434-3.107-3.083l-0.051-10.088
		c-0.025-1.636,1.433-3.064,3.081-3.104c1.635-0.024,3.067,1.433,3.104,3.079l0.052,10.087
		C53.125,97.177,51.794,98.367,50.16,98.393L50.16,98.393z M50.16,98.393"/>
	<path display="inline" fill="#6E6E6E" d="M84.241,15.817c1.177,1.141,1.152,3.18,0.011,4.371l-7.098,7.161
		c-1.141,1.181-3.182,1.153-4.372,0.014c-1.178-1.141-1.153-3.182-0.012-4.373l7.097-7.162
		C81.275,14.574,83.051,14.675,84.241,15.817L84.241,15.817z M85.127,84.792c-1.178,1.142-2.952,1.241-4.37-0.011l-7.101-7.161
		c-1.14-1.181-1.166-3.236,0.014-4.374c1.181-1.141,3.233-1.165,4.374,0.012l7.097,7.161C86.282,81.599,86.308,83.65,85.127,84.792
		L85.127,84.792z M26.811,26.477c-1.178,1.139-2.953,1.242-4.371-0.013l-7.098-7.161c-1.141-1.178-1.167-3.232,0.012-4.373
		c1.179-1.142,3.232-1.167,4.373,0.012l7.097,7.162C27.965,23.294,28.004,25.335,26.811,26.477L26.811,26.477z M15.849,84.298
		c-1.179-1.142-1.154-3.182-0.012-4.374l7.097-7.161c1.142-1.176,3.181-1.152,4.372-0.014c1.178,1.142,1.154,3.183,0.014,4.373
		l-7.099,7.161C18.814,85.539,17.028,85.436,15.849,84.298L15.849,84.298z M15.849,84.298"/>
</g>
<g>
	<g>
		<path fill="#6E6E6E" d="M96.033,59.277C91.992,80.35,73.646,96.274,51.598,96.274c-25.012,0-45.29-20.479-45.29-45.753
			c0-20.76,13.723-38.202,32.492-43.783c0.442-0.201,0.935-0.311,1.448-0.311c2.001,0,3.619,1.639,3.619,3.659
			C29.963,45.535,58.225,71.161,92.534,54.723c2.003,0,3.621,1.639,3.621,3.659C96.155,58.694,96.104,58.995,96.033,59.277
			L96.033,59.277z M96.033,59.277"/>
	</g>
</g>
</svg>
