<?xml version="1.0" encoding="utf-8"?>
<!-- Generator: Adobe Illustrator 16.0.0, SVG Export Plug-In . SVG Version: 6.00 Build 0)  -->
<!DOCTYPE svg PUBLIC "-//W3C//DTD SVG 1.1//EN" "http://www.w3.org/Graphics/SVG/1.1/DTD/svg11.dtd">
<svg version="1.1" id="图层_1" xmlns="http://www.w3.org/2000/svg" xmlns:xlink="http://www.w3.org/1999/xlink" x="0px" y="0px"
	 width="200px" height="200px" viewBox="0 0 200 200" enable-background="new 0 0 200 200" xml:space="preserve">
<g>
	<g>
		<path fill="#282828" d="M135.427,66.149h1.77c1.768,0,2.648,0.882,3.535,1.77c5.297,8.839,7.95,17.674,7.95,26.515
			c0,8.838-2.653,17.678-7.95,26.517c-0.887,1.765-2.654,1.765-3.535,1.765h-1.77c-1.77,0-2.654-0.884-2.654-2.649v-0.884
			c4.424-8.841,7.07-16.792,7.07-25.632c0-7.954-2.65-16.79-7.07-24.744c-0.885-0.884,0-2.654,0.885-3.538
			C134.542,67.031,135.427,66.149,135.427,66.149L135.427,66.149z M162.826,43.172h2.648c1.767,0,2.651,0.884,3.54,1.768
			c11.49,16.792,17.674,33.588,17.674,50.376c0,16.792-6.184,33.59-17.674,50.379c-0.889,0.884-1.773,1.768-3.54,1.768h-2.648
			c-1.766,0-2.65-0.884-2.65-2.647v-1.771c10.604-16.796,15.909-32.704,15.909-48.611c0-15.905-5.305-31.818-15.909-48.611
			c-0.885-0.882,0-2.65,0.885-3.536C161.941,43.172,162.826,43.172,162.826,43.172L162.826,43.172z M29.364,54.659H39.97v81.311
			H29.364c-9.723,0-17.676-7.952-17.676-17.672v-45.96C11.691,62.612,19.642,54.659,29.364,54.659L29.364,54.659z"/>
		<path fill="#282828" d="M38.203,55.542l47.728-35.351c7.955-6.186,18.561-4.419,24.745,3.537c2.652,2.65,3.535,7.069,3.535,10.607
			v126.385c0,9.725-7.95,17.677-17.678,17.677c-3.532,0-7.953-0.883-10.603-3.535l-47.728-36.239V55.542z"/>
	</g>
</g>
</svg>
