<?xml version="1.0" encoding="utf-8"?>
<!-- Generator: Adobe Illustrator 16.0.0, SVG Export Plug-In . SVG Version: 6.00 Build 0)  -->
<!DOCTYPE svg PUBLIC "-//W3C//DTD SVG 1.1//EN" "http://www.w3.org/Graphics/SVG/1.1/DTD/svg11.dtd">
<svg version="1.1" id="图层_1" xmlns="http://www.w3.org/2000/svg" xmlns:xlink="http://www.w3.org/1999/xlink" x="0px" y="0px"
	 width="200px" height="200px" viewBox="0 2325.233 200 200" enable-background="new 0 2325.233 200 200" xml:space="preserve">
<path fill="#282828" d="M122.149,2434.518c-35.644,0-64.547,24.1-64.547,53.814c0,5.218,0.888,10.263,2.55,15.02
	c1.777,5.115,6.568,8.56,11.983,8.56h100.032c5.332,0,10.133-3.33,11.912-8.358c1.7-4.822,2.609-9.933,2.609-15.221
	C186.691,2458.617,157.804,2434.518,122.149,2434.518L122.149,2434.518z M84.122,2391.28c0,21.003,17.031,38.024,38.028,38.024
	c21.004,0,38.02-17.021,38.02-38.024c0-20.992-17.019-38.019-38.02-38.019C101.152,2353.262,84.122,2370.294,84.122,2391.28
	L84.122,2391.28z M73.458,2448.789c11.045-9.211,25.273-14.766,40.6-15.975c-0.695-0.847-1.43-1.671-2.176-2.463
	c-9.27-2.013-17.343-7.236-22.999-14.439c-6.519-2.213-13.637-3.428-21.104-3.428c-30.974,0-56.09,20.927-56.09,46.757
	c0,4.529,0.773,8.907,2.222,13.046c1.545,4.442,5.713,7.437,10.41,7.437h30.319c0.835-4.54,2.335-8.961,4.496-13.214
	C62.51,2459.865,67.323,2453.898,73.458,2448.789L73.458,2448.789z M67.781,2407.943c5.332,0,10.365-1.258,14.83-3.498
	c-1.45-4.128-2.229-8.549-2.229-13.165c0-13.219,6.451-24.957,16.386-32.236c-5.616-10.236-16.494-17.168-28.986-17.168
	c-18.246,0-33.038,14.786-33.038,33.039C34.743,2393.157,49.532,2407.943,67.781,2407.943L67.781,2407.943z"/>
</svg>
