<?xml version="1.0" encoding="utf-8"?>
<!-- Generator: Adobe Illustrator 16.0.0, SVG Export Plug-In . SVG Version: 6.00 Build 0)  -->
<!DOCTYPE svg PUBLIC "-//W3C//DTD SVG 1.1//EN" "http://www.w3.org/Graphics/SVG/1.1/DTD/svg11.dtd">
<svg version="1.1" id="图层_1" xmlns="http://www.w3.org/2000/svg" xmlns:xlink="http://www.w3.org/1999/xlink" x="0px" y="0px"
	 width="100px" height="100px" viewBox="0 0 100 100" enable-background="new 0 0 100 100" xml:space="preserve">
<g display="none">
	<g display="inline">
		<path fill="#6E6E6E" d="M50.99,6.927l-0.35-0.214C51.378,7.714,51.378,7.246,50.99,6.927L50.99,6.927z M89.76,26.57
			c0.702,0.004,1.377-0.272,1.877-0.766c0.496-0.493,0.778-1.167,0.783-1.868V9.995c-0.008-1.458-1.197-2.637-2.654-2.629H75.713
			c-1.46-0.008-2.646,1.171-2.654,2.629v4.331h-8.627c-0.271-0.045-0.545-0.045-0.813,0h-36.9V9.995
			c-0.008-1.458-1.194-2.637-2.652-2.629H10.011C8.552,7.358,7.366,8.537,7.356,9.995v13.931c0.01,1.458,1.196,2.636,2.655,2.631
			h4.367v45.96h-4.367c-0.701-0.004-1.375,0.271-1.873,0.767c-0.498,0.493-0.78,1.167-0.782,1.87v13.931
			c0.01,1.459,1.196,2.634,2.655,2.629h14.054c0.7,0,1.373-0.272,1.871-0.767c0.498-0.497,0.78-1.166,0.782-1.869v-4.329H73.05
			v4.329c0.003,0.703,0.282,1.372,0.78,1.869c0.497,0.494,1.172,0.767,1.873,0.767h14.054c0.701,0,1.374-0.272,1.872-0.767
			c0.497-0.497,0.78-1.166,0.782-1.869V75.162c-0.002-0.7-0.285-1.373-0.782-1.866c-0.498-0.495-1.171-0.771-1.872-0.771h-4.366
			V35.542c0.006-0.089,0.006-0.179,0-0.269v-8.708h4.377L89.76,26.57z M19.702,45.104c0.159-0.104,0.311-0.224,0.447-0.358
			l25.336-25.142h12.087l-37.87,37.574V45.104z M24.069,26.566c1.458,0.004,2.645-1.172,2.652-2.63v-4.334h11.251L19.696,37.739
			V26.566H24.069z M19.702,64.627l45.384-45.026h7.967v3.234l-50.107,49.69h-3.259v-7.898H19.702L19.702,64.627z M80.08,53.609
			l-25.457,25.25c-0.189,0.188-0.35,0.398-0.473,0.631H42.055L80.08,41.776V53.609z M75.713,72.525
			c-0.701,0-1.377,0.272-1.873,0.771c-0.498,0.493-0.779,1.166-0.781,1.866v4.328H61.512L80.08,61.064v11.461H75.713z M80.08,34.32
			L34.534,79.49h-7.816v-3.247l50.083-49.677h3.279V34.32z"/>
	</g>
</g>
<g display="none">
	<path display="inline" fill="#6E6E6E" d="M49.888,6.713c-23.472,0-42.5,19.029-42.5,42.5s19.028,42.5,42.5,42.5
		c23.471,0,42.5-19.027,42.5-42.5C92.389,25.741,73.359,6.713,49.888,6.713L49.888,6.713z M49.888,83.912
		c-19.164,0-34.7-15.535-34.7-34.699s15.534-34.7,34.7-34.7c19.163,0,34.699,15.536,34.699,34.7S69.051,83.912,49.888,83.912
		L49.888,83.912z"/>
	<path display="inline" fill="#6E6E6E" d="M47.954,29.176c0,2.761,2.241,5.002,5.007,5.002c2.762,0,5.003-2.241,5.003-5.002
		c0-2.767-2.241-5.008-5.003-5.008C50.195,24.17,47.954,26.411,47.954,29.176L47.954,29.176z M51.518,75.258
		c-3.688,0.922-8.801,0.842-11.354-0.186c-2.557-1.023-3.486-4.754-2.064-8.284l6.369-15.871c1.417-3.53-0.426-7.254-4.092-8.272
		l-1.218-0.338c-3.666-1.018-3.594-2.352,0.164-2.96l3.644-0.595c3.757-0.611,8.92-0.274,11.475,0.75
		c2.558,1.027,3.479,4.753,2.055,8.285l-5.938,14.701c-1.43,3.531,0.357,7.312,3.959,8.398c3.607,1.09,3.537,2.733-0.154,3.658
		l-2.842,0.711L51.518,75.258L51.518,75.258z"/>
</g>
<g display="none">
	<g display="inline">
		<path fill="#0062AC" d="M49.888,6.713c-23.472,0-42.5,19.029-42.5,42.5s19.028,42.5,42.5,42.5c23.471,0,42.5-19.027,42.5-42.5
			C92.389,25.741,73.359,6.713,49.888,6.713z M54.361,74.547l-2.842,0.711h-0.002c-3.691,0.922-8.804,0.842-11.355-0.186
			c-2.557-1.023-3.486-4.754-2.064-8.284l6.369-15.871c1.417-3.53-0.426-7.254-4.092-8.272l-1.218-0.338
			c-3.666-1.018-3.594-2.352,0.164-2.96l3.644-0.595c3.757-0.611,8.919-0.274,11.475,0.75c2.558,1.027,3.479,4.753,2.055,8.285
			l-5.938,14.701c-1.429,3.531,0.358,7.312,3.961,8.398C58.124,71.977,58.053,73.622,54.361,74.547z M52.961,34.178
			c-2.766,0-5.007-2.241-5.007-5.002c0-2.765,2.241-5.005,5.007-5.008c2.762,0,5.003,2.241,5.003,5.008
			C57.964,31.937,55.723,34.178,52.961,34.178z"/>
	</g>
</g>
<path display="none" fill="#6E6E6E" d="M97.372,44.407L79.967,22.485c-1.922-2.402-5.479-2.402-7.4,0L55.258,44.407
	c-1.346,1.635-0.09,4.134,2.024,4.134h6.823c-0.19,12.783-0.19,29.034-22.593,42.012c-0.577,0.385-0.289,1.25,0.384,1.153
	c42.875-6.634,46.336-35.38,46.434-43.069h7.111C97.563,48.541,98.718,46.042,97.372,44.407L97.372,44.407z M42.569,49.886h-6.824
	c0.192-12.784,0.192-29.035,22.595-42.011c0.577-0.384,0.288-1.25-0.384-1.154c-42.884,6.633-46.344,35.475-46.44,43.069H4.403
	c-2.115,0-3.364,2.499-2.019,4.133l17.398,21.923c1.923,2.403,5.479,2.403,7.401,0l17.405-21.923
	C45.838,52.385,44.685,49.886,42.569,49.886L42.569,49.886z"/>
<path display="none" fill="#6E6E6E" d="M92.389,65.143h-42.5V54.518H23.334v-42.5h37.18v10.625h31.875l-10.625,21.25L92.389,65.143z
	 M12.709,91.714c-2.94,0-5.321-2.381-5.321-5.305V12.034c0-2.941,2.38-5.321,5.321-5.321s5.321,2.379,5.321,5.321v74.375
	C18.013,89.333,15.633,91.714,12.709,91.714L12.709,91.714z"/>
<g display="none">
	<path display="inline" fill="#6E6E6E" d="M80.667,34.834c-2.097,1.822-5.163,1.717-6.858-0.229
		c-1.688-1.948-1.363-5.001,0.732-6.821c2.092-1.822,5.163-1.719,6.857,0.229C83.089,29.959,82.764,33.01,80.667,34.834
		L80.667,34.834z M93.503,26.622L78.331,9.166c-2.579-2.968-7.063-3.287-10.026-0.713L47.113,26.872l4.442,5.114l6.282,7.223
		c0.83,0.951,0.728,2.466-0.274,3.334l-0.181,0.154c-0.998,0.871-2.489,0.784-3.337-0.192l-6.28-7.222l-4.442-5.11l-7.59,6.592
		l3.544,4.068l4.09,4.71c0.88,1.013,0.753,2.499-0.248,3.367l-0.18,0.153c-0.999,0.872-2.501,0.768-3.367-0.224l-4.093-4.711
		l-3.535-4.068l-7.584,6.592l4.442,5.114l6.282,7.228c0.827,0.948,0.721,2.464-0.274,3.329l-0.18,0.154
		c-1.004,0.873-2.493,0.785-3.34-0.188l-6.282-7.227l-4.442-5.109L6.961,61.779c-2.959,2.568-3.267,7.059-0.688,10.023
		l15.172,17.453c2.581,2.973,7.067,3.29,10.027,0.717l61.342-53.328C95.773,34.078,96.084,29.586,93.503,26.622L93.503,26.622z"/>
</g>
<g display="none">
	<path display="inline" fill="#6E6E6E" d="M49.888,6.713c-23.472,0-42.5,19.028-42.5,42.5c0,23.473,19.028,42.5,42.5,42.5
		c23.471,0,42.5-19.027,42.5-42.5C92.389,25.742,73.359,6.713,49.888,6.713L49.888,6.713z M53.518,9.724c0,0,2.662-1.544,3.59-0.617
		c0.928,0.926,4.168-0.154,12.506,4.786c0,0-1.836,1.959-2.235,1.841c0.231,0.426,0.955,1.724,1.466,2.526
		c0.618,0.97,0.771,1.037,0.771,1.037L69,20.224l0.615,0.154c-0.615-0.154-0.926,1.698-1.818,2.007
		c-0.896,0.309,0.273,2.007-0.031,2.316c-0.311,0.309,0.152,3.088,0,4.725c-0.154,1.638-0.771,0.216-1.543,0
		c-0.772-0.215-2.011-0.711-2.113-1.174c-0.105-0.463-0.357-1.853-0.051-2.625c0.31-0.771-0.927-1.544-1.543-2.11
		c-0.617-0.565-3.088,0.104-3.553,0c-0.463-0.103-0.771-1.44-0.771-2.676c0-1.236,2.162,0.154,3.379,0
		c1.219-0.154,1.408-3.232,1.408-3.232l-0.069-2.617c-0.498-0.199-0.579-0.458,0.226-0.79c0,0-2.625-0.617-3.24,0.772
		c-0.617,1.389-0.929,1.255-1.082,2.635c-0.154,1.38-2.572,0.164-3.141,0c-0.564-0.165-2.109-2.018-2.109-2.018
		c0.465-1.081,0.771-1.853,0.771-1.853l-0.811-1.853V9.724H53.518z M29.159,24.083c0.262-0.35,2.008-3.396,4.169-2.47
		c2.162,0.926,3.551-1.081,3.551-1.081s3.174-3.242,3.363-2.779l0.189,0.463c-0.189-0.463,2.625-1.235,2.934,0.31
		c0.309,1.544,2.162,2.32,2.162,2.32s-1.081,1.848-0.772,3.237c0.309,1.391,1.389,1.699,0.772,2.935
		c-0.618,1.234-1.853,1.698-2.162,2.315c-0.309,0.618-2.848-2.007-3.123-2.934c-0.275-0.926-1.631-1.853-2.806-1.544
		s-4.263,1.081-4.88,0.772C31.939,25.318,28.436,25.049,29.159,24.083L29.159,24.083z M70.539,69.479
		c-1.234,3.242-4.168,8.803-5.712,10.349c-1.545,1.545-3.397,4.479-4.787,5.56c-1.39,1.079-1.39,3.09-3.088,2.936
		c-1.699-0.154-3.706-4.941-3.243-6.176c0.464-1.236-8.492-3.398-8.492-3.398s-3.86-0.463-4.632-7.873
		c-0.137-1.32-0.226-2.256-0.279-2.906c-1.16-0.512-5.71-2.396-8.522-1.727c-3.243,0.771-4.015-1.029-6.794-1.441l-4.787-4.426
		c0,0-7.874-9.109-6.948-10.654c0.926-1.544,0.926-5.713,1.081-6.64c0.155-0.926-1.232-6.794-1.157-7.565
		c0.076-0.772-1.159-3.706-1.159-3.706s2.934-6.177,3.397-6.177s2.162,5.25,3.86,5.404c1.698,0.154,6.33-0.154,7.025-0.926
		c0.695-0.772,1.313-1.698,2.084-1.698s0.772-0.464,2.162,0.154c1.389,0.617,2.934,1.544,3.551,2.47
		c0.618,0.927-0.463,2.779,2.779,2.779c3.243,0,3.243-0.771,3.706,1.39c0.463,2.162,1.012,6.948-0.343,7.258
		c-1.355,0.309-5.37,5.009-5.061,6.519c0.309,1.51,0.309,3.826-0.309,5.216c-0.617,1.389-1.081,1.852-3.396,1.697
		c-2.315-0.156-4.274-1.392-4.917,0.463c-0.642,1.854-1.871,6.024,0.285,5.604c0,0,3.396-1.032,4.632,0
		c1.235,1.033,9.11,4.433,9.11,4.433s7.103-7.724,18.22-2.779l1.854,1.236l3.089-0.672c0,0,4.016-1.185,5.402-0.873l1.392,0.309V63
		C70.539,62.994,71.773,66.236,70.539,69.479L70.539,69.479z M88.604,51.878c0,0-0.926-1.391-0.926-2.852
		c0-1.462-1.08-1.318-1.08-3.171s-1.391-1.235-2.316-2.47c-0.926-1.235-1.389,0.463-2.159,0.617s-0.618,1.39-1.392,2.856
		c-0.771,1.467-2.777,2.394-3.396,2.118c-0.618-0.273-2.937-2.35-3.089-2.813c-0.155-0.463-3.243-3.088-3.157-3.705
		c0.086-0.618-0.856-3.86-1.476-5.404c-0.617-1.544,0-7.628,0-7.628c-0.928-0.524,8.492-4.416,7.258-4.879
		c-1.234-0.464-1.854-5.559-1.854-5.559l4.494,2.315c4.493,2.316,10.174,20.691,10.174,20.691v5.249L88.604,51.878z"/>
</g>
<g display="none">
	<g display="inline">
		<g>
			<path fill="#595757" d="M56.234,74.811H14.578V20.225h65.501v23.516c1.302,0.268,2.588,0.649,3.854,1.163
				c0.549,0.22,1.078,0.477,1.604,0.741V17.496c0-1.509-1.221-2.729-2.729-2.729h-70.96c-1.508,0-2.729,1.221-2.729,2.729v60.042
				c0,1.509,1.221,2.729,2.729,2.729h48.289C58.521,78.621,57.225,76.799,56.234,74.811z"/>
		</g>
	</g>
	<g display="inline">
		<g>
			<path fill="#595757" d="M69.623,16.995L61.82,45.67c1.076-0.808,2.205-1.504,3.394-2.078l7.042-25.883L69.623,16.995z
				 M54.021,74.341l2.576,0.699c-0.719-1.093-1.324-2.247-1.826-3.457L54.021,74.341z"/>
		</g>
	</g>
	<g display="inline">
		<g>
			<path fill="#595757" d="M92.395,58.279c-0.888-2.196-2.219-4.186-3.994-5.959c-1.731-1.733-3.699-3.045-5.896-3.93
				c-2.196-0.89-4.458-1.327-6.771-1.327c-2.313-0.006-4.578,0.426-6.797,1.3c-2.217,0.864-4.217,2.186-5.985,3.958
				c-1.774,1.773-3.093,3.772-3.961,5.99c-0.869,2.211-1.302,4.478-1.302,6.797c0,2.313,0.441,4.567,1.334,6.764
				c0.884,2.197,2.194,4.165,3.929,5.896c1.774,1.775,3.763,3.106,5.959,3.994c2.196,0.883,4.452,1.33,6.765,1.33
				s4.568-0.447,6.766-1.33c2.201-0.888,4.185-2.219,5.959-3.994c1.775-1.771,3.104-3.759,3.994-5.955
				c0.885-2.201,1.33-4.457,1.326-6.765C93.721,62.734,93.277,60.475,92.395,58.279z M84.738,70.518
				c0.5,0.502,0.757,1.1,0.757,1.797c-0.007,0.693-0.257,1.291-0.757,1.793c-0.502,0.5-1.1,0.754-1.793,0.754
				c-0.697,0-1.295-0.254-1.797-0.754l-5.44-5.443l-5.442,5.443c-0.502,0.5-1.104,0.754-1.797,0.754s-1.289-0.254-1.791-0.754
				c-0.537-0.541-0.811-1.157-0.811-1.852c0-0.693,0.246-1.295,0.746-1.797l5.441-5.441l-5.379-5.385
				c-0.537-0.539-0.81-1.156-0.81-1.85c0-0.694,0.245-1.303,0.747-1.803c0.5-0.502,1.103-0.746,1.802-0.746
				c0.692,0,1.312,0.271,1.849,0.811l5.385,5.379l5.442-5.441c0.501-0.502,1.099-0.746,1.796-0.746c0.693,0,1.313,0.271,1.852,0.81
				c0.5,0.502,0.757,1.099,0.757,1.792c-0.007,0.698-0.257,1.295-0.757,1.796l-5.442,5.442L84.738,70.518z"/>
		</g>
	</g>
	<g display="inline">
		
			<rect x="15.286" y="14.979" transform="matrix(-0.9678 -0.2517 0.2517 -0.9678 24.4306 69.3884)" fill="#595757" width="2.732" height="36.307"/>
	</g>
	<g display="inline">
		
			<rect x="22.993" y="16.28" transform="matrix(-0.9641 -0.2655 0.2655 -0.9641 35.364 98.7867)" fill="#595757" width="2.731" height="61.448"/>
	</g>
	<g display="inline">
		
			<rect x="36.512" y="14.525" transform="matrix(-0.9662 -0.2578 0.2578 -0.9662 62.839 98.504)" fill="#595757" width="2.731" height="61.214"/>
	</g>
	<g display="inline">
		
			<rect x="49.991" y="14.504" transform="matrix(-0.9664 -0.2571 0.2571 -0.9664 89.196 103.3972)" fill="#595757" width="2.731" height="62.728"/>
	</g>
</g>
<g display="none">
	<path display="inline" fill="#FFFFFF" d="M89.358,55.46c2.18-8.691-0.217-14.367-0.217-14.367l-8.313-0.41
		c-0.734-2.607-1.796-5.072-3.16-7.342l5.614-6.371c-4.611-7.689-10.319-10.011-10.319-10.011l-6.173,5.604
		c-2.303-1.34-4.786-2.377-7.427-3.078l-0.531-8.37c-8.691-2.173-14.364,0.22-14.364,0.22l-0.391,8.042
		c-2.6,0.65-5.072,1.612-7.35,2.884l-5.853-5.302c0,0-5.696,2.322-10.307,10.011c1.464,1.662,4.35,3.569,4.524,6.018
		c0.041,0.604-2.775,7.736-2.897,7.736l-7.485,0.369c0,0-2.39,5.675-0.216,14.367l7.415,0.471c0.694,2.956,1.819,5.727,3.312,8.279
		l-4.885,5.384c0,0,2.32,5.704,10.01,10.319l5.561-4.906c2.529,1.507,5.281,2.661,8.202,3.391l0.361,7.374
		c0,0,5.673,2.388,14.364,0.217l0.49-7.693c2.967-0.787,5.748-1.999,8.283-3.582l5.9,5.2c7.684-4.615,10.004-10.319,10.004-10.319
		l-5.369-5.932c1.317-2.377,2.309-4.96,2.967-7.675L89.358,55.46L89.358,55.46z M51.919,66.413c-9.857,0-17.86-7.997-17.86-17.866
		c0-9.862,8.003-17.865,17.86-17.865c9.87,0,17.869,8.002,17.869,17.865C69.788,58.416,61.789,66.413,51.919,66.413L51.919,66.413z
		 M51.919,66.413"/>
</g>
<g display="none">
	<path display="inline" fill-rule="evenodd" clip-rule="evenodd" fill="#FFFFFF" d="M41.861,42.221
		c0.467,0.549,0.684,1.153,0.656,1.813c-0.023,0.618-0.242,1.131-0.656,1.548l-8.841,8.788l8.841,8.781
		c0.425,0.414,0.656,0.941,0.69,1.58c0.034,0.695-0.193,1.287-0.69,1.777c-0.681,0.496-1.367,0.723-2.065,0.684
		c-0.627-0.037-1.148-0.264-1.569-0.684L27.564,55.916c-0.489-0.49-0.716-1.041-0.683-1.648c0.035-0.549,0.263-1.033,0.683-1.451
		l10.664-10.596c0.412-0.406,0.976-0.622,1.683-0.647C40.659,41.546,41.306,41.765,41.861,42.221L41.861,42.221z M54.084,43.258
		c0.266-0.656,0.732-1.142,1.401-1.458c0.677-0.317,1.337-0.349,1.977-0.097c0.66,0.259,1.152,0.726,1.468,1.392
		c0.315,0.673,0.35,1.327,0.097,1.966l-7.798,20.153c-0.266,0.656-0.732,1.141-1.398,1.457c-0.679,0.316-1.342,0.35-1.987,0.096
		c-0.656-0.262-1.142-0.729-1.459-1.389c-0.322-0.676-0.354-1.332-0.093-1.969L54.084,43.258L54.084,43.258z M81.712,77.826V31.697
		H23.877v46.129H81.712L81.712,77.826z M78.682,54.68c0.042,0.68-0.185,1.264-0.682,1.756L67.607,66.768
		c-0.497,0.488-1.136,0.713-1.918,0.674c-0.732-0.035-1.305-0.26-1.725-0.674c-0.388-0.52-0.581-1.111-0.581-1.779
		c0-0.666,0.193-1.193,0.581-1.578l8.841-8.787l-8.841-8.507c-1.183-1.11-1.354-2.238-0.521-3.377
		c0.403-0.547,1.026-0.816,1.867-0.81c0.824,0.01,1.497,0.282,2.027,0.81L78,53.328C78.421,53.602,78.648,54.055,78.682,54.68
		L78.682,54.68z M82.999,14.423c1.197,0,2.215,0.425,3.056,1.276c0.846,0.848,1.271,1.87,1.271,3.075v60.21
		c0,1.203-0.421,2.227-1.262,3.072c-0.846,0.852-1.867,1.279-3.064,1.279H22.573c-1.196,0-2.216-0.424-3.056-1.271
		c-0.846-0.85-1.269-1.877-1.269-3.08v-60.21c0-1.205,0.419-2.227,1.261-3.075c0.845-0.852,1.868-1.276,3.064-1.276H82.999
		L82.999,14.423z"/>
</g>
<g display="none">
	<path display="inline" fill-rule="evenodd" clip-rule="evenodd" fill="#FFFFFF" d="M46.298,76.097
		c-17.74,0-32.172-14.433-32.172-32.172s14.432-32.172,32.172-32.172c17.739,0,32.172,14.433,32.172,32.172
		S64.037,76.097,46.298,76.097L46.298,76.097z M46.298,19.671c-13.374,0-24.254,10.88-24.254,24.254
		c0,13.371,10.88,24.253,24.254,24.253c13.372,0,24.253-10.882,24.253-24.253C70.552,30.551,59.67,19.671,46.298,19.671
		L46.298,19.671z"/>
	<path display="inline" fill-rule="evenodd" clip-rule="evenodd" fill="#FFFFFF" d="M83.872,86.372
		c-1.243,0-2.492-0.478-3.443-1.429l-16.81-16.807c-1.904-1.902-1.904-4.989,0-6.892c1.905-1.901,4.99-1.901,6.895,0l16.808,16.807
		c1.9,1.904,1.9,4.989,0,6.892C86.37,85.895,85.121,86.372,83.872,86.372L83.872,86.372z"/>
</g>
<g display="none">
	<g display="inline">
		<path fill="#FFFFFF" d="M20.475,79.901v7.772h62.163v-7.772H20.475z M78.754,37.167c0-15.021-12.176-27.195-27.195-27.195
			c-15.021,0-27.195,12.175-27.195,27.195v34.967h54.391V37.167z M45.262,57.138l3.886-14.765l-7.303-1.944l16.006-15.54
			l-3.884,14.765l7.382,1.979L45.262,57.138z M45.262,57.138"/>
	</g>
</g>
<g display="none">
	<g display="inline">
		<path fill="#FFFFFF" d="M84.901,69.523c-0.116-0.177-0.252-0.37-0.401-0.575c-0.145-0.207-0.467-0.692-0.97-1.46
			s-0.975-1.522-1.416-2.257c-0.441-0.735-0.99-1.679-1.636-2.829c-0.651-1.149-1.237-2.273-1.769-3.362
			c-0.529-1.09-1.077-2.3-1.635-3.624c-0.563-1.331-1.034-2.598-1.416-3.807c-0.384-1.209-0.691-2.477-0.928-3.801
			c-0.236-1.329-0.353-2.579-0.353-3.758c0-6.958-1.345-12.532-4.027-16.715c-2.68-4.187-6.148-7.076-10.389-8.668v-1.328
			c0-2.359-0.829-4.364-2.48-6.011c-1.65-1.655-3.652-2.477-6.012-2.477c-2.362,0-4.363,0.822-6.014,2.477
			c-1.651,1.646-2.477,3.652-2.477,6.011v1.328c-4.245,1.592-7.709,4.481-10.394,8.668c-2.681,4.187-4.022,9.757-4.022,16.715
			c0,1.47-0.192,3.079-0.574,4.82c-0.383,1.737-0.871,3.374-1.462,4.906c-0.59,1.532-1.281,3.121-2.076,4.776
			c-0.794,1.654-1.533,3.07-2.209,4.244c-0.68,1.178-1.372,2.329-2.079,3.453c-0.705,1.119-1.192,1.887-1.459,2.3
			c-0.268,0.408-0.489,0.702-0.663,0.884c-0.473,0.709-0.619,1.475-0.442,2.304c0.176,0.821,0.648,1.442,1.416,1.856
			c0.766,0.407,1.812,0.938,3.137,1.592c1.329,0.648,3.746,1.622,7.255,2.916s6.913,2.301,10.215,3.008
			c0.648,1.945,1.563,3.657,2.739,5.136c1.179,1.472,2.552,2.623,4.112,3.445c1.565,0.827,3.232,1.24,5.001,1.242
			c2.649,0,5.039-0.899,7.161-2.7c2.124-1.796,3.684-4.17,4.688-7.119c2.063-0.473,4.187-1.046,6.368-1.722
			c2.177-0.677,4.021-1.298,5.527-1.859c1.502-0.559,2.991-1.165,4.466-1.812c1.47-0.649,2.476-1.104,3.007-1.369
			c0.53-0.267,0.947-0.488,1.238-0.664c0.354-0.236,0.664-0.514,0.928-0.836c0.264-0.327,0.429-0.665,0.488-1.02
			c0.059-0.177,0.086-0.356,0.086-0.53v-0.535l-0.177-0.353c0-0.179-0.027-0.341-0.087-0.489c-0.059-0.146-0.149-0.278-0.268-0.397
			V69.523L84.901,69.523z M48.641,17.342c0-0.767,0.279-1.431,0.837-1.989c0.563-0.562,1.227-0.841,1.992-0.841
			c0.767,0,1.428,0.279,1.989,0.841c0.559,0.558,0.842,1.223,0.842,1.989v0.086c-0.236,0-0.459-0.016-0.665-0.047
			c-0.204-0.028-0.397-0.043-0.573-0.043H50.5c-0.59,0-1.21,0.031-1.855,0.086v-0.086L48.641,17.342z M51.471,85.26
			c-2.008,0-3.714-1.028-5.129-3.093c1.824,0.176,3.538,0.264,5.129,0.264c1.593,0,3.303-0.088,5.13-0.264
			c-0.647,0.943-1.413,1.694-2.299,2.257C53.418,84.98,52.474,85.26,51.471,85.26L51.471,85.26z M51.471,85.26"/>
	</g>
</g>
<g>
	<path fill="#FFFFFF" d="M89.729,51.597c0.606,0.605,0.915,1.344,0.915,2.166c0,0.841-0.299,1.561-0.915,2.168
		c-0.607,0.606-1.345,0.915-2.167,0.915H76.756c0,5.501-1.075,10.162-3.241,13.991l10.03,10.088
		c0.608,0.606,0.916,1.326,0.916,2.167c0,0.831-0.299,1.56-0.916,2.167c-0.577,0.606-1.297,0.915-2.166,0.915
		c-0.878,0-1.588-0.299-2.167-0.915l-9.545-9.5c-0.168,0.168-0.402,0.365-0.72,0.626c-0.317,0.253-0.99,0.72-2.036,1.384
		c-1.019,0.653-2.074,1.25-3.139,1.764c-1.064,0.523-2.381,0.981-3.95,1.401c-1.569,0.411-3.139,0.626-4.681,0.626V38.324h-6.183
		v43.218c-1.653,0-3.278-0.215-4.904-0.646c-1.625-0.43-3.017-0.962-4.194-1.588s-2.232-1.261-3.194-1.868
		c-0.953-0.626-1.653-1.149-2.102-1.569l-0.72-0.673l-8.808,9.967c-0.635,0.673-1.419,1.009-2.316,1.009
		c-0.775,0-1.458-0.252-2.074-0.775c-0.607-0.579-0.942-1.299-0.98-2.148c-0.047-0.858,0.206-1.597,0.757-2.24l9.733-10.948
		c-1.859-3.662-2.812-8.07-2.812-13.226H16.566c-0.831,0-1.56-0.299-2.167-0.916c-0.607-0.606-0.916-1.326-0.916-2.166
		c0-0.832,0.299-1.561,0.916-2.167c0.607-0.607,1.326-0.916,2.167-0.916h10.807V36.502l-8.34-8.341
		c-0.607-0.607-0.916-1.326-0.916-2.167c0-0.831,0.299-1.56,0.916-2.167s1.326-0.915,2.167-0.915c0.832,0,1.56,0.299,2.167,0.915
		l8.34,8.341h40.705l8.341-8.341c0.607-0.607,1.327-0.915,2.168-0.915c0.83,0,1.559,0.299,2.166,0.915
		c0.608,0.607,0.916,1.345,0.916,2.167c0,0.832-0.299,1.56-0.916,2.167l-8.34,8.341v14.179h10.806
		C88.402,50.671,89.122,50.979,89.729,51.597L89.729,51.597z M67.499,25.975H36.62c0-4.287,1.504-7.92,4.512-10.928
		c2.998-2.998,6.65-4.511,10.928-4.511c4.278,0,7.921,1.503,10.929,4.511C65.985,18.055,67.499,21.698,67.499,25.975L67.499,25.975z
		 M67.499,25.975"/>
</g>
</svg>
