<?xml version="1.0" encoding="utf-8"?>
<!-- Generator: Adobe Illustrator 16.0.0, SVG Export Plug-In . SVG Version: 6.00 Build 0)  -->
<!DOCTYPE svg PUBLIC "-//W3C//DTD SVG 1.1//EN" "http://www.w3.org/Graphics/SVG/1.1/DTD/svg11.dtd">
<svg version="1.1" id="图层_1" xmlns="http://www.w3.org/2000/svg" xmlns:xlink="http://www.w3.org/1999/xlink" x="0px" y="0px"
	 width="200px" height="200px" viewBox="0 2851.262 200 200" enable-background="new 0 2851.262 200 200" xml:space="preserve">
<g>
	<path fill="#282828" d="M177.02,2885.807H21.343c-5.271,0-9.549,4.242-9.639,9.494l83.918,63.198
		c1.783,1.27,5.343,1.263,7.238-0.081l83.82-62.637v-0.325C186.684,2890.136,182.347,2885.807,177.02,2885.807L177.02,2885.807z"/>
	<path fill="#282828" d="M134.114,2948.716l37.036,42.015c0.78,0.661,1.229,1.63,1.231,2.65c0,0.928-0.369,1.822-1.027,2.482
		c-0.658,0.656-1.547,1.025-2.48,1.025c-1.052-0.005-2.045-0.481-2.706-1.302l-0.067,0.063l-3.013-2.979l-0.073-0.07l-37.69-37.316
		l-0.041,0.034l-15.97,11.933c-2.91,2.09-6.547,3.129-10.159,3.129c-3.58,0-7.149-1.024-9.995-3.061l-16.052-12.088l-0.025,0.024
		l-40.809,40.394l-0.07-0.063c-0.644,0.787-1.609,1.302-2.704,1.302c-0.933,0-1.823-0.369-2.48-1.025
		c-0.658-0.66-1.026-1.555-1.026-2.482c0-1.066,0.482-2.009,1.233-2.65l37.112-42.103l-52.65-39.653v98.078
		c0,5.325,4.333,9.664,9.657,9.664h155.681c5.326,0,9.662-4.339,9.662-9.664v-97.613L134.114,2948.716z"/>
</g>
</svg>
