<?xml version="1.0" encoding="utf-8"?>
<!-- Generator: Adobe Illustrator 16.0.0, SVG Export Plug-In . SVG Version: 6.00 Build 0)  -->
<!DOCTYPE svg PUBLIC "-//W3C//DTD SVG 1.1//EN" "http://www.w3.org/Graphics/SVG/1.1/DTD/svg11.dtd">
<svg version="1.1" id="图层_1" xmlns="http://www.w3.org/2000/svg" xmlns:xlink="http://www.w3.org/1999/xlink" x="0px" y="0px"
	 width="100px" height="100px" viewBox="0 0 100 100" enable-background="new 0 0 100 100" xml:space="preserve">
<g display="none">
	<g display="inline">
		<path d="M45.768,74.631h-2.286l1.139-1.979c0.557-0.956,0.228-2.19-0.739-2.748c-0.958-0.56-2.191-0.229-2.748,0.737l-1.131,1.979
			l-1.14-1.979c-0.558-0.958-1.783-1.287-2.749-0.737c-0.958,0.558-1.289,1.782-0.738,2.748l1.138,1.979h-2.286
			c-1.107,0-2.01,0.906-2.01,2.014s0.903,2.009,2.01,2.009h2.286l-1.131,1.98c-0.558,0.958-0.228,2.192,0.738,2.748
			c0.314,0.183,0.661,0.269,1.006,0.269c0.69,0,1.375-0.362,1.743-1.007l1.14-1.979l1.138,1.979
			c0.369,0.645,1.045,1.007,1.745,1.007c0.338,0,0.683-0.086,1.006-0.269c0.958-0.556,1.287-1.782,0.738-2.748l-1.139-1.98h2.286
			c1.108,0,2.011-0.901,2.011-2.009S46.883,74.631,45.768,74.631L45.768,74.631z M26.899,69.433
			c-1.17-0.629-2.639-0.188-3.267,0.981l-5.468,10.181c-0.627,1.171-0.188,2.639,0.983,3.269c0.36,0.194,0.753,0.289,1.138,0.289
			c0.857,0,1.689-0.464,2.13-1.271L27.881,72.7C28.518,71.531,28.077,70.06,26.899,69.433L26.899,69.433z M61.037,69.433
			c-1.171-0.629-2.639-0.188-3.269,0.981l-5.467,10.181c-0.628,1.171-0.188,2.639,0.983,3.269c0.36,0.194,0.753,0.289,1.138,0.289
			c0.857,0,1.689-0.464,2.129-1.271L62.019,72.7C62.648,71.531,62.208,70.06,61.037,69.433L61.037,69.433z M73.055,69.433
			c-1.171-0.629-2.64-0.188-3.267,0.981l-5.466,10.181c-0.63,1.171-0.19,2.639,0.979,3.269c0.362,0.194,0.755,0.289,1.14,0.289
			c0.856,0,1.688-0.464,2.129-1.271L74.036,72.7C74.666,71.531,74.225,70.06,73.055,69.433L73.055,69.433z M71.853,28.933
			c-1.248,0-2.474,0.125-3.651,0.362c-3.535-7.927-11.483-13.448-20.721-13.448c-11.87,0-21.61,9.12-22.592,20.737h-0.566
			c-7.995,0.008-14.539,6.543-14.539,14.539s6.544,14.54,14.539,14.54h48.262c9.803-0.386,17.634-8.468,17.634-18.366
			C90.218,37.157,81.994,28.933,71.853,28.933L71.853,28.933z M71.853,28.933"/>
	</g>
</g>
<path display="none" d="M26.899,69.433c-1.17-0.629-2.639-0.188-3.267,0.981l-5.468,10.181c-0.627,1.171-0.188,2.639,0.983,3.269
	c0.36,0.194,0.753,0.289,1.138,0.289c0.857,0,1.689-0.464,2.13-1.271L27.881,72.7C28.518,71.531,28.077,70.06,26.899,69.433
	L26.899,69.433z"/>
<path display="none" d="M51.537,69.433c-1.172-0.629-2.639-0.188-3.269,0.981l-5.467,10.181c-0.628,1.171-0.188,2.639,0.983,3.269
	c0.36,0.194,0.753,0.289,1.138,0.289c0.857,0,1.689-0.464,2.129-1.271L52.518,72.7C53.148,71.531,52.707,70.06,51.537,69.433
	L51.537,69.433z"/>
<path display="none" d="M73.055,69.433c-1.171-0.629-2.64-0.188-3.267,0.981l-5.466,10.181c-0.63,1.171-0.19,2.639,0.979,3.269
	c0.362,0.194,0.755,0.289,1.14,0.289c0.856,0,1.688-0.464,2.129-1.271L74.036,72.7C74.666,71.531,74.225,70.06,73.055,69.433
	L73.055,69.433z"/>
<path display="none" d="M71.853,28.933c-1.248,0-2.474,0.125-3.651,0.362c-3.535-7.927-11.483-13.448-20.721-13.448
	c-11.87,0-21.61,9.12-22.592,20.737h-0.566c-7.995,0.008-14.539,6.543-14.539,14.539s6.544,14.54,14.539,14.54h48.262
	c9.803-0.386,17.634-8.468,17.634-18.366C90.218,37.157,81.994,28.933,71.853,28.933L71.853,28.933z"/>
<path d="M71.853,28.933"/>
<g>
	<path d="M40.906,19.153h-0.2c-1.788,0-3.253-1.465-3.253-3.253v-3.405c0-1.788,1.465-3.253,3.253-3.253h0.2
		c1.788,0,3.253,1.465,3.253,3.253V15.9C44.159,17.688,42.694,19.153,40.906,19.153L40.906,19.153z M24.602,26.782l-0.143,0.143
		c-1.265,1.265-3.339,1.265-4.604,0l-2.407-2.407c-1.265-1.266-1.265-3.339,0-4.604l0.143-0.144c1.265-1.264,3.339-1.264,4.604,0
		l2.406,2.407C25.867,23.444,25.867,25.518,24.602,26.782L24.602,26.782z M24.602,59.98l-0.143-0.144
		c-1.265-1.266-3.339-1.266-4.604,0l-2.407,2.407c-1.265,1.265-1.265,3.339,0,4.604l0.143,0.142c1.265,1.266,3.339,1.266,4.604,0
		l2.406-2.405C25.867,63.31,25.867,61.245,24.602,59.98L24.602,59.98z M17.354,42.687v0.2c0,1.788-1.464,3.253-3.252,3.253h-3.396
		c-1.788,0-3.253-1.465-3.253-3.253v-0.2c0-1.789,1.465-3.253,3.253-3.253h3.406C15.889,39.434,17.354,40.898,17.354,42.687
		L17.354,42.687z M57.362,26.345l0.152,0.134c1.359,1.16,3.424,0.998,4.585-0.362l2.206-2.588c1.161-1.36,0.999-3.424-0.361-4.584
		l-0.152-0.133c-1.359-1.161-3.424-1-4.585,0.361l-2.206,2.588C55.841,23.111,56.002,25.175,57.362,26.345L57.362,26.345z
		 M33.648,59.304c-0.267-1.312-0.447-2.663-0.447-4.061c0-11.443,9.274-20.717,20.718-20.717c0.999,0,1.97,0.114,2.93,0.246
		c-2.959-5.896-8.998-9.987-16.047-9.987c-9.95,0-18.006,8.066-18.006,18.006C22.795,50.191,27.265,56.537,33.648,59.304
		L33.648,59.304z M33.648,59.304"/>
	<path d="M75.34,52.237h-0.771c-2.159-8.257-9.646-14.354-18.577-14.354c-10.615,0-19.233,8.609-19.233,19.234
		c0,1.521,0.189,2.987,0.523,4.403c-0.039,0.077-0.086,0.152-0.124,0.229h-1.712c-6.849-0.011-12.451,5.602-12.451,12.45
		s5.603,12.452,12.451,12.452H75.34c9.465,0,17.208-7.742,17.208-17.207S84.805,52.237,75.34,52.237L75.34,52.237z M75.34,52.237"/>
</g>
</svg>
