<?xml version="1.0" encoding="utf-8"?>
<!-- Generator: Adobe Illustrator 16.0.0, SVG Export Plug-In . SVG Version: 6.00 Build 0)  -->
<!DOCTYPE svg PUBLIC "-//W3C//DTD SVG 1.1//EN" "http://www.w3.org/Graphics/SVG/1.1/DTD/svg11.dtd">
<svg version="1.1" id="图层_1" xmlns="http://www.w3.org/2000/svg" xmlns:xlink="http://www.w3.org/1999/xlink" x="0px" y="0px"
	 width="100px" height="100px" viewBox="0 0 100 100" enable-background="new 0 0 100 100" xml:space="preserve">
<g display="none">
	<g display="inline">
		<path d="M45.768,74.631h-2.286l1.139-1.979c0.557-0.956,0.228-2.19-0.739-2.748c-0.958-0.56-2.191-0.229-2.748,0.737l-1.131,1.979
			l-1.14-1.979c-0.558-0.958-1.783-1.287-2.749-0.737c-0.958,0.558-1.289,1.782-0.738,2.748l1.138,1.979h-2.286
			c-1.107,0-2.01,0.906-2.01,2.014s0.903,2.009,2.01,2.009h2.286l-1.131,1.98c-0.558,0.958-0.228,2.192,0.738,2.748
			c0.314,0.183,0.661,0.269,1.006,0.269c0.69,0,1.375-0.362,1.743-1.007l1.14-1.979l1.138,1.979
			c0.369,0.645,1.045,1.007,1.745,1.007c0.338,0,0.683-0.086,1.006-0.269c0.958-0.556,1.287-1.782,0.738-2.748l-1.139-1.98h2.286
			c1.108,0,2.011-0.901,2.011-2.009S46.883,74.631,45.768,74.631L45.768,74.631z M26.899,69.433
			c-1.17-0.629-2.639-0.188-3.267,0.981l-5.468,10.181c-0.627,1.171-0.188,2.639,0.983,3.269c0.36,0.194,0.753,0.289,1.138,0.289
			c0.857,0,1.689-0.464,2.13-1.271L27.881,72.7C28.518,71.531,28.077,70.06,26.899,69.433L26.899,69.433z M61.037,69.433
			c-1.171-0.629-2.639-0.188-3.269,0.981l-5.467,10.181c-0.628,1.171-0.188,2.639,0.983,3.269c0.36,0.194,0.753,0.289,1.138,0.289
			c0.857,0,1.689-0.464,2.129-1.271L62.019,72.7C62.648,71.531,62.208,70.06,61.037,69.433L61.037,69.433z M73.055,69.433
			c-1.171-0.629-2.64-0.188-3.267,0.981l-5.466,10.181c-0.63,1.171-0.19,2.639,0.979,3.269c0.362,0.194,0.755,0.289,1.14,0.289
			c0.856,0,1.688-0.464,2.129-1.271L74.036,72.7C74.666,71.531,74.225,70.06,73.055,69.433L73.055,69.433z M71.853,28.933
			c-1.248,0-2.474,0.125-3.651,0.362c-3.535-7.927-11.483-13.448-20.721-13.448c-11.87,0-21.61,9.12-22.592,20.737h-0.566
			c-7.995,0.008-14.539,6.543-14.539,14.539s6.544,14.54,14.539,14.54h48.262c9.803-0.386,17.634-8.468,17.634-18.366
			C90.218,37.157,81.994,28.933,71.853,28.933L71.853,28.933z M71.853,28.933"/>
	</g>
</g>
<path d="M26.899,69.433c-1.17-0.629-2.639-0.188-3.267,0.981l-5.468,10.181c-0.627,1.171-0.188,2.639,0.983,3.269
	c0.36,0.194,0.753,0.289,1.138,0.289c0.857,0,1.689-0.464,2.13-1.271L27.881,72.7C28.518,71.531,28.077,70.06,26.899,69.433
	L26.899,69.433z"/>
<path d="M51.537,69.433c-1.172-0.629-2.639-0.188-3.269,0.981l-5.467,10.181c-0.628,1.171-0.188,2.639,0.983,3.269
	c0.36,0.194,0.753,0.289,1.138,0.289c0.857,0,1.689-0.464,2.129-1.271L52.518,72.7C53.148,71.531,52.707,70.06,51.537,69.433
	L51.537,69.433z"/>
<path d="M73.055,69.433c-1.171-0.629-2.64-0.188-3.267,0.981l-5.466,10.181c-0.63,1.171-0.19,2.639,0.979,3.269
	c0.362,0.194,0.755,0.289,1.14,0.289c0.856,0,1.688-0.464,2.129-1.271L74.036,72.7C74.666,71.531,74.225,70.06,73.055,69.433
	L73.055,69.433z"/>
<path d="M71.853,28.933c-1.248,0-2.474,0.125-3.651,0.362c-3.535-7.927-11.483-13.448-20.721-13.448
	c-11.87,0-21.61,9.12-22.592,20.737h-0.566c-7.995,0.008-14.539,6.543-14.539,14.539s6.544,14.54,14.539,14.54h48.262
	c9.803-0.386,17.634-8.468,17.634-18.366C90.218,37.157,81.994,28.933,71.853,28.933L71.853,28.933z"/>
<path d="M71.853,28.933"/>
</svg>
