<?xml version="1.0" encoding="utf-8"?>
<!-- Generator: Adobe Illustrator 16.0.0, SVG Export Plug-In . SVG Version: 6.00 Build 0)  -->
<!DOCTYPE svg PUBLIC "-//W3C//DTD SVG 1.1//EN" "http://www.w3.org/Graphics/SVG/1.1/DTD/svg11.dtd">
<svg version="1.1" id="图层_1" xmlns="http://www.w3.org/2000/svg" xmlns:xlink="http://www.w3.org/1999/xlink" x="0px" y="0px"
	 width="200px" height="200px" viewBox="0 2613.262 200 200" enable-background="new 0 2613.262 200 200" xml:space="preserve">
<g>
	<path fill="#282828" d="M110.103,2734.113l12.717,1.303l8.811,11.252l3.816,9.354l10.24,3.159l10.236-2.254l3.043,8.637
		l5.055,0.618c0,0,3.923-16.175,4.652-16.85c0.734-0.658,1.343-11.467,1.343-11.467l-5.427-7.047l3.146-3.742l7.135,3.943
		l2.422,1.162l1.974-3.562l7.424-8.435l-6.645-6.187l-1.79-8.147l-7.871-1.017l9.386-11.155l-9.877-5.457l-5.439,2.057l-9.717-1.217
		l-8.018-1.665l-3.827-10.567l8.138-2.409l2.89-8.49l-4.585-7.223l-4.37-9.586l-9.099-1.046l-13.098-4.809l-4.617,3.179
		l-1.207,8.646l-10.879,8.661l-9.183,8.179l-1.813,14.324l-18.225,15.426l2.058,11.166l20.049,13.61l-0.342,9.808L110.103,2734.113z
		"/>
	<polygon fill="#282828" points="113.286,2642.801 110.693,2646.06 109.624,2655.128 89.853,2672.254 87.976,2686.674 
		69.932,2702.206 72.009,2715.258 90.62,2728.672 94.171,2744.586 108.065,2740.984 119.825,2742.644 127.118,2760.373 
		137.761,2772.264 95.218,2774.346 71.542,2757.355 50.69,2749.394 33.688,2724.809 18.119,2722.787 11.688,2710.042 
		21.145,2688.063 23.535,2681.811 25.904,2677.525 33.005,2683.822 34.971,2677.691 39.768,2668.145 50.87,2666.57 61.153,2670.524 
		68.254,2662.975 64.286,2650.325 72.159,2651.647 74.644,2645.028 83.858,2641.281 83.59,2646.971 91.536,2647.941 
		107.612,2641.061 	"/>
</g>
</svg>
