<!-- Generated by IcoMoon.io -->
<svg version="1.1" xmlns="http://www.w3.org/2000/svg" width="1024" height="1024" viewBox="0 0 1024 1024">
<title></title>
<g id="icomoon-ignore">
</g>
<path fill="#fff" d="M862.495 443.279c0.256-94.054-37.048-184.32-103.649-250.726-66.591-66.417-156.979-103.465-251.013-102.943-94.054-0.522-184.412 36.526-251.013 102.943-66.591 66.406-103.905 156.672-103.639 250.726 0 153.917 98.591 284.908 236.452 334.008-75.489 26.163-124.805 75.377-124.805 131.031h476.129c0-55.706-45.926-104.868-118.149-131.031 141.251-49.050 239.688-180.040 239.688-334.008v0 0zM514.437 692.183c-101.868 0-187.249-85.197-187.249-186.685s85.371-186.644 187.249-186.644c49.592-0.102 97.167 19.517 132.291 54.518 35.133 35.011 54.886 82.545 54.948 132.127-0.061 49.572-19.825 97.126-54.948 132.147-35.113 35-82.698 54.62-132.291 54.538v0z"></path>
<path fill="#fff" d="M507.832 423.67c-49.265 0-91.873 42.609-91.873 91.648 0 52.388 42.609 91.658 91.873 91.658 50.616 0 91.668-41.042 91.668-91.658s-41.052-91.648-91.668-91.648v0z"></path>
</svg>
