<?xml version="1.0" encoding="utf-8"?>
<!-- Generator: Adobe Illustrator 16.0.0, SVG Export Plug-In . SVG Version: 6.00 Build 0)  -->
<!DOCTYPE svg PUBLIC "-//W3C//DTD SVG 1.1//EN" "http://www.w3.org/Graphics/SVG/1.1/DTD/svg11.dtd">
<svg version="1.1" id="图层_1" xmlns="http://www.w3.org/2000/svg" xmlns:xlink="http://www.w3.org/1999/xlink" x="0px" y="0px"
	 width="100px" height="100px" viewBox="0 0 100 100" enable-background="new 0 0 100 100" xml:space="preserve">
<g display="none">
	<path display="inline" fill="#6E6E6E" d="M49.888,6.713c-23.472,0-42.5,19.029-42.5,42.5s19.028,42.5,42.5,42.5
		c23.471,0,42.5-19.027,42.5-42.5C92.389,25.741,73.359,6.713,49.888,6.713L49.888,6.713z M49.888,83.912
		c-19.164,0-34.7-15.535-34.7-34.699s15.534-34.7,34.7-34.7c19.163,0,34.699,15.536,34.699,34.7S69.051,83.912,49.888,83.912
		L49.888,83.912z"/>
	<path display="inline" fill="#6E6E6E" d="M47.954,29.176c0,2.761,2.241,5.002,5.007,5.002c2.762,0,5.003-2.241,5.003-5.002
		c0-2.767-2.241-5.008-5.003-5.008C50.195,24.17,47.954,26.411,47.954,29.176L47.954,29.176z M51.518,75.258
		c-3.69,0.922-8.801,0.842-11.354-0.186c-2.557-1.023-3.486-4.754-2.064-8.284l6.369-15.871c1.417-3.53-0.426-7.254-4.092-8.272
		l-1.218-0.338c-3.666-1.018-3.594-2.352,0.164-2.96l3.644-0.595c3.757-0.611,8.919-0.274,11.474,0.75
		c2.557,1.027,3.479,4.753,2.054,8.285l-5.937,14.701c-1.429,3.531,0.358,7.312,3.959,8.398c3.608,1.09,3.537,2.735-0.154,3.66
		l-2.842,0.711H51.518L51.518,75.258z"/>
</g>
<path display="none" fill="#6E6E6E" d="M97.372,44.407L79.967,22.485c-1.922-2.402-5.479-2.402-7.4,0L55.258,44.407
	c-1.346,1.635-0.09,4.134,2.024,4.134h6.823c-0.19,12.783-0.19,29.034-22.593,42.012c-0.577,0.385-0.289,1.25,0.384,1.153
	c42.875-6.634,46.336-35.38,46.434-43.069h7.111C97.563,48.541,98.718,46.042,97.372,44.407L97.372,44.407z M42.569,49.886h-6.824
	c0.192-12.784,0.192-29.035,22.595-42.011c0.577-0.384,0.288-1.25-0.384-1.154c-42.884,6.633-46.344,35.475-46.44,43.069H4.403
	c-2.115,0-3.364,2.499-2.019,4.133l17.398,21.923c1.923,2.403,5.479,2.403,7.401,0l17.405-21.923
	C45.838,52.385,44.685,49.886,42.569,49.886L42.569,49.886z"/>
<path display="none" fill="#6E6E6E" d="M92.389,65.143h-42.5V54.518H23.334v-42.5h37.18v10.625h31.875l-10.625,21.25L92.389,65.143z
	 M12.709,91.714c-2.94,0-5.321-2.381-5.321-5.305V12.034c0-2.941,2.38-5.321,5.321-5.321s5.321,2.379,5.321,5.321v74.375
	C18.013,89.333,15.633,91.714,12.709,91.714L12.709,91.714z"/>
<g display="none">
	<path display="inline" fill="#6E6E6E" d="M80.667,34.834c-2.097,1.822-5.163,1.717-6.858-0.229
		c-1.688-1.948-1.363-5.001,0.732-6.821c2.092-1.822,5.163-1.719,6.857,0.229C83.089,29.959,82.764,33.01,80.667,34.834
		L80.667,34.834z M93.503,26.622L78.331,9.166c-2.579-2.968-7.063-3.287-10.026-0.713L47.113,26.872l4.442,5.114l6.282,7.223
		c0.83,0.951,0.728,2.466-0.274,3.334l-0.181,0.154c-0.998,0.871-2.489,0.784-3.337-0.192l-6.28-7.222l-4.442-5.11l-7.59,6.592
		l3.544,4.068l4.09,4.71c0.88,1.013,0.753,2.499-0.248,3.367l-0.18,0.153c-0.999,0.872-2.501,0.768-3.367-0.224l-4.093-4.711
		l-3.535-4.068l-7.584,6.592l4.442,5.114l6.282,7.226c0.827,0.95,0.721,2.464-0.274,3.331l-0.18,0.154
		c-1.004,0.873-2.493,0.785-3.34-0.188l-6.282-7.226l-4.442-5.11L6.961,61.779c-2.959,2.568-3.267,7.059-0.688,10.023l15.172,17.455
		c2.581,2.971,7.067,3.29,10.027,0.715l61.342-53.326C95.773,34.078,96.084,29.586,93.503,26.622L93.503,26.622z"/>
</g>
<g display="none">
	<path display="inline" fill="#6E6E6E" d="M49.888,6.713c-23.472,0-42.5,19.028-42.5,42.5c0,23.473,19.028,42.5,42.5,42.5
		c23.471,0,42.5-19.027,42.5-42.5C92.389,25.742,73.359,6.713,49.888,6.713L49.888,6.713z M53.518,9.724c0,0,2.662-1.544,3.59-0.617
		c0.926,0.926,4.168-0.154,12.506,4.786c0,0-1.836,1.959-2.237,1.841c0.233,0.426,0.955,1.724,1.466,2.526
		c0.618,0.97,0.771,1.037,0.771,1.037l-0.616,0.927l0.616,0.154c-0.616-0.154-0.926,1.698-1.819,2.007
		c-0.896,0.309,0.274,2.007-0.032,2.316c-0.31,0.309,0.153,3.088,0,4.725c-0.154,1.638-0.771,0.216-1.543,0
		c-0.773-0.215-2.01-0.711-2.113-1.174c-0.106-0.463-0.358-1.853-0.051-2.625c0.309-0.771-0.926-1.544-1.543-2.11
		c-0.617-0.565-3.088,0.104-3.552,0c-0.463-0.103-0.772-1.44-0.772-2.676c0-1.236,2.162,0.154,3.379,0
		c1.218-0.154,1.408-3.232,1.408-3.232l-0.07-2.617c-0.498-0.199-0.579-0.458,0.226-0.79c0,0-2.625-0.617-3.241,0.772
		c-0.617,1.389-0.928,1.255-1.082,2.635s-2.572,0.164-3.14,0c-0.565-0.165-2.11-2.018-2.11-2.018
		c0.465-1.081,0.772-1.853,0.772-1.853l-0.81-1.853V9.724H53.518z M29.159,24.083c0.262-0.35,2.008-3.396,4.169-2.47
		c2.162,0.926,3.551-1.081,3.551-1.081s3.174-3.242,3.363-2.779l0.189,0.463c-0.189-0.463,2.625-1.235,2.934,0.31
		c0.309,1.544,2.162,2.32,2.162,2.32s-1.081,1.848-0.772,3.237c0.309,1.391,1.389,1.699,0.772,2.935
		c-0.618,1.234-1.853,1.698-2.162,2.315c-0.309,0.618-2.848-2.007-3.123-2.934c-0.275-0.926-1.631-1.853-2.806-1.544
		s-4.263,1.081-4.88,0.772C31.939,25.318,28.436,25.049,29.159,24.083L29.159,24.083z M70.539,69.479
		c-1.234,3.242-4.168,8.803-5.712,10.347c-1.545,1.545-3.397,4.478-4.787,5.559c-1.39,1.08-1.39,3.089-3.088,2.935
		c-1.699-0.154-3.706-4.941-3.243-6.176c0.464-1.236-8.492-3.398-8.492-3.398s-3.86-0.463-4.632-7.873
		c-0.137-1.32-0.226-2.256-0.279-2.906c-1.16-0.512-5.71-2.396-8.522-1.727c-3.243,0.771-4.015-1.029-6.794-1.441l-4.787-4.426
		c0,0-7.874-9.109-6.948-10.654c0.926-1.544,0.926-5.713,1.081-6.64c0.155-0.926-1.232-6.794-1.157-7.565
		c0.076-0.772-1.159-3.706-1.159-3.706s2.934-6.177,3.397-6.177s2.162,5.25,3.86,5.404c1.698,0.154,6.33-0.154,7.025-0.926
		c0.695-0.772,1.313-1.698,2.084-1.698s0.772-0.464,2.162,0.154c1.389,0.617,2.934,1.544,3.551,2.47
		c0.618,0.927-0.463,2.779,2.779,2.779c3.243,0,3.243-0.771,3.706,1.39c0.463,2.162,1.012,6.948-0.343,7.258
		c-1.355,0.309-5.37,5.009-5.061,6.519c0.309,1.51,0.309,3.826-0.309,5.216c-0.617,1.389-1.081,1.852-3.396,1.697
		c-2.315-0.156-4.274-1.39-4.917,0.463c-0.642,1.854-1.871,6.026,0.285,5.606c0,0,3.396-1.034,4.632,0
		c1.235,1.033,9.11,4.431,9.11,4.431s7.103-7.722,18.22-2.779l1.853,1.236l3.089-0.672c0,0,4.014-1.183,5.404-0.873l1.39,0.309
		v-0.617C70.539,62.994,71.773,66.236,70.539,69.479L70.539,69.479z M88.604,51.878c0,0-0.926-1.391-0.926-2.852
		c0-1.462-1.08-1.318-1.08-3.171s-1.391-1.235-2.316-2.47c-0.926-1.235-1.389,0.463-2.161,0.617s-0.618,1.39-1.39,2.856
		c-0.772,1.467-2.779,2.394-3.396,2.118c-0.618-0.273-2.936-2.35-3.089-2.813c-0.155-0.463-3.243-3.088-3.157-3.705
		c0.086-0.618-0.857-3.86-1.475-5.404c-0.618-1.544,0-7.628,0-7.628c-0.928-0.524,8.492-4.416,7.257-4.879
		c-1.235-0.464-1.853-5.559-1.853-5.559l4.494,2.315c4.494,2.316,10.174,20.691,10.174,20.691v5.249L88.604,51.878z"/>
</g>
<g>
	<path fill-rule="evenodd" clip-rule="evenodd" fill="#6E6E6E" d="M84.228,43.289c0.025-9.185-3.618-18-10.122-24.485
		C67.603,12.318,58.776,8.7,49.593,8.751C40.408,8.7,31.584,12.318,25.08,18.804c-6.503,6.485-10.147,15.3-10.121,24.485
		c0,15.031,9.628,27.823,23.091,32.618c-7.372,2.555-12.188,7.361-12.188,12.796h46.497c0-5.44-4.485-10.241-11.538-12.796
		C74.615,71.117,84.228,58.325,84.228,43.289L84.228,43.289L84.228,43.289z M50.238,67.596c-9.948,0-18.286-8.32-18.286-18.231
		c0-9.911,8.337-18.227,18.286-18.227c4.843-0.01,9.489,1.906,12.919,5.324c3.431,3.419,5.36,8.061,5.366,12.903
		c-0.006,4.841-1.936,9.485-5.366,12.905C59.728,65.688,55.081,67.604,50.238,67.596L50.238,67.596z"/>
	<path fill-rule="evenodd" clip-rule="evenodd" fill="#6E6E6E" d="M49.593,41.374c-4.811,0-8.972,4.161-8.972,8.95
		c0,5.116,4.161,8.951,8.972,8.951c4.943,0,8.952-4.008,8.952-8.951C58.545,45.381,54.536,41.374,49.593,41.374L49.593,41.374z"/>
</g>
</svg>
