<?xml version="1.0" encoding="utf-8"?>
<!-- Generator: Adobe Illustrator 16.0.0, SVG Export Plug-In . SVG Version: 6.00 Build 0)  -->
<!DOCTYPE svg PUBLIC "-//W3C//DTD SVG 1.1//EN" "http://www.w3.org/Graphics/SVG/1.1/DTD/svg11.dtd">
<svg version="1.1" id="图层_1" xmlns="http://www.w3.org/2000/svg" xmlns:xlink="http://www.w3.org/1999/xlink" x="0px" y="0px"
	 width="200px" height="200px" viewBox="0 474.048 200 200" enable-background="new 0 474.048 200 200" xml:space="preserve">
<g>
	<g>
		<path fill="#282828" d="M98.921,559.183c-4.579,0-8.188,1.565-10.837,4.697s-3.973,7.431-3.973,12.896
			c0,5.294,1.338,9.466,4.016,12.517c2.674,3.051,6.273,4.576,10.794,4.576c4.657,0,8.203-1.49,10.647-4.47
			c2.438-2.98,3.657-7.259,3.657-12.835c0-5.597-1.22-9.896-3.657-12.891C107.124,560.678,103.573,559.183,98.921,559.183z
			 M99.188,486.548c-48.324,0-87.5,39.177-87.5,87.5c0,48.324,39.176,87.5,87.5,87.5s87.5-39.176,87.5-87.5
			C186.688,525.725,147.513,486.548,99.188,486.548z M62.755,596.965c-3.452,2.43-7.92,3.642-13.416,3.642
			c-4.768,0-8.93-0.904-12.476-2.702v-8.319c4.102,2.965,8.526,4.45,13.264,4.45c6.35,0,9.526-2.081,9.526-6.238
			c0-1.778-0.691-3.237-2.078-4.39c-1.387-1.146-4.2-2.516-8.443-4.096c-5.104-2.052-8.415-4.081-9.942-6.093
			c-1.525-2.01-2.286-4.444-2.286-7.299c0-4.076,1.726-7.338,5.178-9.793s7.703-3.683,12.749-3.683c3.909,0,7.541,0.683,10.895,2.04
			v7.859c-3.439-2.217-7.334-3.328-11.686-3.328c-2.606,0-4.728,0.57-6.364,1.707c-1.634,1.132-2.455,2.632-2.455,4.49
			c0,1.829,0.589,3.259,1.771,4.283c1.177,1.025,3.791,2.344,7.84,3.951c5.129,1.914,8.594,3.895,10.4,5.944
			c1.803,2.056,2.702,4.592,2.702,7.612C67.933,591.222,66.207,594.545,62.755,596.965z M115.264,593.914
			c-4.185,4.465-9.802,6.692-16.846,6.692c-6.877,0-12.367-2.162-16.472-6.485c-4.104-4.329-6.154-10.026-6.154-17.094
			c0-7.596,2.121-13.597,6.361-17.991c4.241-4.395,9.994-6.592,17.26-6.592c6.905,0,12.322,2.116,16.242,6.345
			c3.925,4.227,5.885,10.071,5.885,17.531C121.545,583.584,119.451,589.443,115.264,593.914z M156.337,596.965
			c-3.45,2.43-7.923,3.642-13.416,3.642c-4.769,0-8.928-0.904-12.477-2.702v-8.319c4.104,2.965,8.526,4.45,13.267,4.45
			c6.35,0,9.529-2.081,9.529-6.238c0-1.778-0.697-3.237-2.081-4.39c-1.389-1.146-4.202-2.516-8.445-4.096
			c-5.102-2.052-8.415-4.081-9.94-6.093c-1.525-2.01-2.288-4.444-2.288-7.299c0-4.076,1.728-7.338,5.177-9.793
			c3.455-2.455,7.703-3.683,12.749-3.683c3.91,0,7.541,0.683,10.898,2.04v7.859c-3.438-2.217-7.335-3.328-11.691-3.328
			c-2.606,0-4.728,0.57-6.359,1.707c-1.639,1.132-2.455,2.632-2.455,4.49c0,1.829,0.589,3.259,1.769,4.283
			c1.18,1.025,3.791,2.344,7.839,3.951c5.127,1.914,8.598,3.895,10.4,5.944c1.801,2.056,2.702,4.592,2.702,7.612
			C161.514,591.222,159.786,594.545,156.337,596.965z"/>
	</g>
</g>
</svg>
