<?xml version="1.0" encoding="utf-8"?>
<!-- Generator: Adobe Illustrator 16.0.0, SVG Export Plug-In . SVG Version: 6.00 Build 0)  -->
<!DOCTYPE svg PUBLIC "-//W3C//DTD SVG 1.1//EN" "http://www.w3.org/Graphics/SVG/1.1/DTD/svg11.dtd">
<svg version="1.1" id="图层_1" xmlns="http://www.w3.org/2000/svg" xmlns:xlink="http://www.w3.org/1999/xlink" x="0px" y="0px"
	 width="100px" height="100px" viewBox="0 0 100 100" enable-background="new 0 0 100 100" xml:space="preserve">
<g>
	<path d="M57.693,41.112V75.34H23.467V41.112H57.693 M62.71,36.096H18.451v44.26H62.71V36.096L62.71,36.096z"/>
	<path d="M77.99,65.018l-5.104,2.425v-41.75H31.134l2.791-5.038L77.9,20.678L77.99,65.018z"/>
	<path d="M33.925,20.653l3.546,3.546L22.025,39.648l-3.546-3.547L33.925,20.653z M73.14,21.665l3.545,3.545L61.237,40.659
		l-3.546-3.546L73.14,21.665z M62.654,80.355L59.11,76.81L74.555,61.36l3.434,3.66L62.654,80.355z"/>
	<path d="M87.343,50.127c0,1.675,0.896,3.222,2.346,4.059c1.452,0.84,3.238,0.84,4.69,0c1.45-0.837,2.346-2.384,2.346-4.059
		c0-1.676-0.896-3.223-2.346-4.062c-1.452-0.836-3.238-0.836-4.69,0C88.237,46.904,87.343,48.452,87.343,50.127L87.343,50.127z"/>
	<path d="M3,50.169c0,1.676,0.895,3.223,2.344,4.062c1.451,0.837,3.239,0.837,4.69,0c1.45-0.839,2.345-2.387,2.345-4.062
		c0-2.589-2.1-4.689-4.689-4.689C5.099,45.48,3,47.581,3,50.169L3,50.169z"/>
	<path d="M67.825,47.667h27.892v5.015H67.825V47.667z M52.59,47.677h5.337v5.014H52.59V47.677z M28.885,47.677h5.336v5.014h-5.336
		V47.677z M40,47.568h5.337v5.015H40V47.568z M4.068,47.828h15.236v5.016H4.068V47.828z"/>
</g>
<path display="none" fill="#282828" d="M66.996,47.867c0,0,15.674-11.275,15.602-20.649c-0.064-8.129-6.988-14.719-15.602-14.719
	c-8.615,0-15.097,6.606-15.605,14.719C50.805,36.591,66.996,47.867,66.996,47.867L66.996,47.867L66.996,47.867z M66.738,20.152
	c3.771,0,6.826,2.971,6.826,6.633c0,3.662-3.057,6.633-6.826,6.633c-3.771,0-6.83-2.971-6.83-6.633
	C59.908,23.123,62.967,20.152,66.738,20.152L66.738,20.152L66.738,20.152z M47.141,60.478c0.543-0.785,1.021-1.605,1.437-2.457
	c1.327-2.543,2.14-5.119,2.116-7.599C50.6,39.245,40.716,30.184,28.404,30.184c-0.028,0-0.054,0-0.082,0c-0.033,0-0.061,0-0.088,0
	c-12.262,0-22.201,8.897-22.201,19.877c0,0.58,0.027,1.149,0.082,1.721C6.18,52.847,6.389,53.921,6.723,55
	c0.625,2.188,1.656,4.228,3.015,6.054c6.321,9.483,18.666,17.766,18.666,17.766S40.847,70.2,47.141,60.478L47.141,60.478
	L47.141,60.478z M28.037,56.709c-5.028,0-9.105-3.957-9.105-8.842c0-4.884,4.078-8.841,9.105-8.841c5.032,0,9.105,3.958,9.105,8.841
	C37.142,52.752,33.07,56.709,28.037,56.709L28.037,56.709L28.037,56.709z M87.186,61.813c-22.553-4.149-18.172-9.528-18.172-9.528
	h-4.557C62.02,66.347,100.9,61.2,85.781,73.104c-13.382,10.543-45.143,1.289-45.143,1.289l-4.549,4.424
	C86.873,95.46,104.717,65.042,87.186,61.813L87.186,61.813L87.186,61.813z"/>
</svg>
