<?xml version="1.0" encoding="utf-8"?>
<!-- Generator: Adobe Illustrator 16.0.0, SVG Export Plug-In . SVG Version: 6.00 Build 0)  -->
<!DOCTYPE svg PUBLIC "-//W3C//DTD SVG 1.1//EN" "http://www.w3.org/Graphics/SVG/1.1/DTD/svg11.dtd">
<svg version="1.1" id="图层_1" xmlns="http://www.w3.org/2000/svg" xmlns:xlink="http://www.w3.org/1999/xlink" x="0px" y="0px"
	 width="200px" height="200px" viewBox="0 1515.152 200 200" enable-background="new 0 1515.152 200 200" xml:space="preserve">
<g>
	<path fill="#282828" d="M103.567,1532.003c-30.618,0-57.943,16.455-71.666,42.103l-20.213-20.216v56.886h56.884l-24.591-24.593
		c11.459-21.887,33.35-36.67,59.586-36.67c36.143,0,65.64,29.592,65.64,65.641c0,36.048-29.592,65.639-65.64,65.639
		c-28.972,0-52.508-18.63-62.412-43.748H23.113c9.874,34.994,42.106,61.258,80.422,61.258c46.484,0,83.154-37.725,83.154-83.148
		C186.689,1569.724,148.994,1532.003,103.567,1532.003L103.567,1532.003z"/>
	<path fill="#282828" d="M100.244,1652.883l41.577-27.141c6.492-3.756,6.492-9.81,0-13.565l-41.577-27.135
		c-6.491-3.762-11.736-0.719-11.736,6.822v54.343C88.507,1653.565,93.752,1656.634,100.244,1652.883L100.244,1652.883z"/>
</g>
</svg>
