<?xml version="1.0" encoding="utf-8"?>
<!-- Generator: Adobe Illustrator 16.0.0, SVG Export Plug-In . SVG Version: 6.00 Build 0)  -->
<!DOCTYPE svg PUBLIC "-//W3C//DTD SVG 1.1//EN" "http://www.w3.org/Graphics/SVG/1.1/DTD/svg11.dtd">
<svg version="1.1" id="图层_1" xmlns="http://www.w3.org/2000/svg" xmlns:xlink="http://www.w3.org/1999/xlink" x="0px" y="0px"
	 width="100px" height="100px" viewBox="0 0 100 100" enable-background="new 0 0 100 100" xml:space="preserve">
<g display="none">
	<g display="inline">
		<path fill="#6E6E6E" d="M50.99,6.927l-0.35-0.214C51.378,7.714,51.378,7.246,50.99,6.927L50.99,6.927z M89.76,26.57
			c0.702,0.004,1.377-0.272,1.877-0.766c0.496-0.493,0.778-1.167,0.783-1.868V9.995c-0.008-1.458-1.197-2.637-2.654-2.629H75.713
			c-1.46-0.008-2.646,1.171-2.654,2.629v4.331h-8.627c-0.271-0.045-0.545-0.045-0.813,0h-36.9V9.995
			c-0.008-1.458-1.194-2.637-2.652-2.629H10.011C8.552,7.358,7.366,8.537,7.356,9.995v13.931c0.01,1.458,1.196,2.636,2.655,2.631
			h4.367v45.96h-4.367c-0.701-0.004-1.375,0.271-1.873,0.767c-0.498,0.493-0.78,1.167-0.782,1.87v13.931
			c0.01,1.459,1.196,2.634,2.655,2.629h14.054c0.7,0,1.373-0.272,1.871-0.767c0.498-0.497,0.78-1.166,0.782-1.869v-4.329H73.05
			v4.329c0.003,0.703,0.282,1.372,0.78,1.869c0.497,0.494,1.172,0.767,1.873,0.767h14.054c0.701,0,1.374-0.272,1.872-0.767
			c0.497-0.497,0.78-1.166,0.782-1.869V75.162c-0.002-0.7-0.285-1.373-0.782-1.866c-0.498-0.495-1.171-0.771-1.872-0.771h-4.366
			V35.542c0.006-0.089,0.006-0.179,0-0.269v-8.708h4.377L89.76,26.57z M19.702,45.104c0.159-0.104,0.311-0.224,0.447-0.358
			l25.336-25.142h12.087l-37.87,37.574V45.104z M24.069,26.566c1.458,0.004,2.645-1.172,2.652-2.63v-4.334h11.251L19.696,37.739
			V26.566H24.069z M19.702,64.627l45.384-45.026h7.967v3.234l-50.107,49.69h-3.259v-7.898H19.702L19.702,64.627z M80.08,53.609
			l-25.457,25.25c-0.189,0.188-0.35,0.398-0.473,0.631H42.055L80.08,41.776V53.609z M75.713,72.525
			c-0.701,0-1.377,0.272-1.873,0.771c-0.498,0.493-0.779,1.166-0.781,1.866v4.328H61.512L80.08,61.064v11.461H75.713z M80.08,34.32
			L34.534,79.49h-7.816v-3.247l50.083-49.677h3.279V34.32z"/>
	</g>
</g>
<g display="none">
	<path display="inline" fill="#6E6E6E" d="M49.888,6.713c-23.472,0-42.5,19.029-42.5,42.5s19.028,42.5,42.5,42.5
		c23.471,0,42.5-19.027,42.5-42.5C92.389,25.741,73.359,6.713,49.888,6.713L49.888,6.713z M49.888,83.912
		c-19.164,0-34.7-15.535-34.7-34.699s15.534-34.7,34.7-34.7c19.163,0,34.699,15.536,34.699,34.7S69.051,83.912,49.888,83.912
		L49.888,83.912z"/>
	<path display="inline" fill="#6E6E6E" d="M47.954,29.176c0,2.761,2.241,5.002,5.007,5.002c2.762,0,5.003-2.241,5.003-5.002
		c0-2.767-2.241-5.008-5.003-5.008C50.195,24.17,47.954,26.411,47.954,29.176L47.954,29.176z M51.518,75.258
		c-3.688,0.922-8.801,0.842-11.354-0.186c-2.557-1.023-3.486-4.754-2.064-8.284l6.369-15.871c1.417-3.53-0.426-7.254-4.092-8.272
		l-1.218-0.338c-3.666-1.018-3.594-2.352,0.164-2.96l3.644-0.595c3.757-0.611,8.92-0.274,11.475,0.75
		c2.558,1.027,3.479,4.753,2.055,8.285l-5.938,14.701c-1.43,3.531,0.357,7.312,3.959,8.398c3.607,1.09,3.537,2.733-0.154,3.658
		l-2.842,0.711L51.518,75.258L51.518,75.258z"/>
</g>
<g display="none">
	<g display="inline">
		<path fill="#0062AC" d="M49.888,6.713c-23.472,0-42.5,19.029-42.5,42.5s19.028,42.5,42.5,42.5c23.471,0,42.5-19.027,42.5-42.5
			C92.389,25.741,73.359,6.713,49.888,6.713z M54.361,74.547l-2.842,0.711h-0.002c-3.691,0.922-8.804,0.842-11.355-0.186
			c-2.557-1.023-3.486-4.754-2.064-8.284l6.369-15.871c1.417-3.53-0.426-7.254-4.092-8.272l-1.218-0.338
			c-3.666-1.018-3.594-2.352,0.164-2.96l3.644-0.595c3.757-0.611,8.919-0.274,11.475,0.75c2.558,1.027,3.479,4.753,2.055,8.285
			l-5.938,14.701c-1.429,3.531,0.358,7.312,3.961,8.398C58.124,71.977,58.053,73.622,54.361,74.547z M52.961,34.178
			c-2.766,0-5.007-2.241-5.007-5.002c0-2.765,2.241-5.005,5.007-5.008c2.762,0,5.003,2.241,5.003,5.008
			C57.964,31.937,55.723,34.178,52.961,34.178z"/>
	</g>
</g>
<path display="none" fill="#6E6E6E" d="M97.372,44.407L79.967,22.485c-1.922-2.402-5.479-2.402-7.4,0L55.258,44.407
	c-1.346,1.635-0.09,4.134,2.024,4.134h6.823c-0.19,12.783-0.19,29.034-22.593,42.012c-0.577,0.385-0.289,1.25,0.384,1.153
	c42.875-6.634,46.336-35.38,46.434-43.069h7.111C97.563,48.541,98.718,46.042,97.372,44.407L97.372,44.407z M42.569,49.886h-6.824
	c0.192-12.784,0.192-29.035,22.595-42.011c0.577-0.384,0.288-1.25-0.384-1.154c-42.884,6.633-46.344,35.475-46.44,43.069H4.403
	c-2.115,0-3.364,2.499-2.019,4.133l17.398,21.923c1.923,2.403,5.479,2.403,7.401,0l17.405-21.923
	C45.838,52.385,44.685,49.886,42.569,49.886L42.569,49.886z"/>
<path display="none" fill="#6E6E6E" d="M92.389,65.143h-42.5V54.518H23.334v-42.5h37.18v10.625h31.875l-10.625,21.25L92.389,65.143z
	 M12.709,91.714c-2.94,0-5.321-2.381-5.321-5.305V12.034c0-2.941,2.38-5.321,5.321-5.321s5.321,2.379,5.321,5.321v74.375
	C18.013,89.333,15.633,91.714,12.709,91.714L12.709,91.714z"/>
<g display="none">
	<path display="inline" fill="#6E6E6E" d="M80.667,34.834c-2.097,1.822-5.163,1.717-6.858-0.229
		c-1.688-1.948-1.363-5.001,0.732-6.821c2.092-1.822,5.163-1.719,6.857,0.229C83.089,29.959,82.764,33.01,80.667,34.834
		L80.667,34.834z M93.503,26.622L78.331,9.166c-2.579-2.968-7.063-3.287-10.026-0.713L47.113,26.872l4.442,5.114l6.282,7.223
		c0.83,0.951,0.728,2.466-0.274,3.334l-0.181,0.154c-0.998,0.871-2.489,0.784-3.337-0.192l-6.28-7.222l-4.442-5.11l-7.59,6.592
		l3.544,4.068l4.09,4.71c0.88,1.013,0.753,2.499-0.248,3.367l-0.18,0.153c-0.999,0.872-2.501,0.768-3.367-0.224l-4.093-4.711
		l-3.535-4.068l-7.584,6.592l4.442,5.114l6.282,7.228c0.827,0.948,0.721,2.464-0.274,3.329l-0.18,0.154
		c-1.004,0.873-2.493,0.785-3.34-0.188l-6.282-7.227l-4.442-5.109L6.961,61.779c-2.959,2.568-3.267,7.059-0.688,10.023
		l15.172,17.453c2.581,2.973,7.067,3.29,10.027,0.717l61.342-53.328C95.773,34.078,96.084,29.586,93.503,26.622L93.503,26.622z"/>
</g>
<g display="none">
	<path display="inline" fill="#6E6E6E" d="M49.888,6.713c-23.472,0-42.5,19.028-42.5,42.5c0,23.473,19.028,42.5,42.5,42.5
		c23.471,0,42.5-19.027,42.5-42.5C92.389,25.742,73.359,6.713,49.888,6.713L49.888,6.713z M53.518,9.724c0,0,2.662-1.544,3.59-0.617
		c0.928,0.926,4.168-0.154,12.506,4.786c0,0-1.836,1.959-2.235,1.841c0.231,0.426,0.955,1.724,1.466,2.526
		c0.618,0.97,0.771,1.037,0.771,1.037L69,20.224l0.615,0.154c-0.615-0.154-0.926,1.698-1.818,2.007
		c-0.896,0.309,0.273,2.007-0.031,2.316c-0.311,0.309,0.152,3.088,0,4.725c-0.154,1.638-0.771,0.216-1.543,0
		c-0.772-0.215-2.011-0.711-2.113-1.174c-0.105-0.463-0.357-1.853-0.051-2.625c0.31-0.771-0.927-1.544-1.543-2.11
		c-0.617-0.565-3.088,0.104-3.553,0c-0.463-0.103-0.771-1.44-0.771-2.676c0-1.236,2.162,0.154,3.379,0
		c1.219-0.154,1.408-3.232,1.408-3.232l-0.069-2.617c-0.498-0.199-0.579-0.458,0.226-0.79c0,0-2.625-0.617-3.24,0.772
		c-0.617,1.389-0.929,1.255-1.082,2.635c-0.154,1.38-2.572,0.164-3.141,0c-0.564-0.165-2.109-2.018-2.109-2.018
		c0.465-1.081,0.771-1.853,0.771-1.853l-0.811-1.853V9.724H53.518z M29.159,24.083c0.262-0.35,2.008-3.396,4.169-2.47
		c2.162,0.926,3.551-1.081,3.551-1.081s3.174-3.242,3.363-2.779l0.189,0.463c-0.189-0.463,2.625-1.235,2.934,0.31
		c0.309,1.544,2.162,2.32,2.162,2.32s-1.081,1.848-0.772,3.237c0.309,1.391,1.389,1.699,0.772,2.935
		c-0.618,1.234-1.853,1.698-2.162,2.315c-0.309,0.618-2.848-2.007-3.123-2.934c-0.275-0.926-1.631-1.853-2.806-1.544
		s-4.263,1.081-4.88,0.772C31.939,25.318,28.436,25.049,29.159,24.083L29.159,24.083z M70.539,69.479
		c-1.234,3.242-4.168,8.803-5.712,10.349c-1.545,1.545-3.397,4.479-4.787,5.56c-1.39,1.079-1.39,3.09-3.088,2.936
		c-1.699-0.154-3.706-4.941-3.243-6.176c0.464-1.236-8.492-3.398-8.492-3.398s-3.86-0.463-4.632-7.873
		c-0.137-1.32-0.226-2.256-0.279-2.906c-1.16-0.512-5.71-2.396-8.522-1.727c-3.243,0.771-4.015-1.029-6.794-1.441l-4.787-4.426
		c0,0-7.874-9.109-6.948-10.654c0.926-1.544,0.926-5.713,1.081-6.64c0.155-0.926-1.232-6.794-1.157-7.565
		c0.076-0.772-1.159-3.706-1.159-3.706s2.934-6.177,3.397-6.177s2.162,5.25,3.86,5.404c1.698,0.154,6.33-0.154,7.025-0.926
		c0.695-0.772,1.313-1.698,2.084-1.698s0.772-0.464,2.162,0.154c1.389,0.617,2.934,1.544,3.551,2.47
		c0.618,0.927-0.463,2.779,2.779,2.779c3.243,0,3.243-0.771,3.706,1.39c0.463,2.162,1.012,6.948-0.343,7.258
		c-1.355,0.309-5.37,5.009-5.061,6.519c0.309,1.51,0.309,3.826-0.309,5.216c-0.617,1.389-1.081,1.852-3.396,1.697
		c-2.315-0.156-4.274-1.392-4.917,0.463c-0.642,1.854-1.871,6.024,0.285,5.604c0,0,3.396-1.032,4.632,0
		c1.235,1.033,9.11,4.433,9.11,4.433s7.103-7.724,18.22-2.779l1.854,1.236l3.089-0.672c0,0,4.016-1.185,5.402-0.873l1.392,0.309V63
		C70.539,62.994,71.773,66.236,70.539,69.479L70.539,69.479z M88.604,51.878c0,0-0.926-1.391-0.926-2.852
		c0-1.462-1.08-1.318-1.08-3.171s-1.391-1.235-2.316-2.47c-0.926-1.235-1.389,0.463-2.159,0.617s-0.618,1.39-1.392,2.856
		c-0.771,1.467-2.777,2.394-3.396,2.118c-0.618-0.273-2.937-2.35-3.089-2.813c-0.155-0.463-3.243-3.088-3.157-3.705
		c0.086-0.618-0.856-3.86-1.476-5.404c-0.617-1.544,0-7.628,0-7.628c-0.928-0.524,8.492-4.416,7.258-4.879
		c-1.234-0.464-1.854-5.559-1.854-5.559l4.494,2.315c4.493,2.316,10.174,20.691,10.174,20.691v5.249L88.604,51.878z"/>
</g>
<g display="none">
	<g display="inline">
		<g>
			<path fill="#595757" d="M56.234,74.811H14.578V20.225h65.501v23.516c1.302,0.268,2.588,0.649,3.854,1.163
				c0.549,0.22,1.078,0.477,1.604,0.741V17.496c0-1.509-1.221-2.729-2.729-2.729h-70.96c-1.508,0-2.729,1.221-2.729,2.729v60.042
				c0,1.509,1.221,2.729,2.729,2.729h48.289C58.521,78.621,57.225,76.799,56.234,74.811z"/>
		</g>
	</g>
	<g display="inline">
		<g>
			<path fill="#595757" d="M69.623,16.995L61.82,45.67c1.076-0.808,2.205-1.504,3.394-2.078l7.042-25.883L69.623,16.995z
				 M54.021,74.341l2.576,0.699c-0.719-1.093-1.324-2.247-1.826-3.457L54.021,74.341z"/>
		</g>
	</g>
	<g display="inline">
		<g>
			<path fill="#595757" d="M92.395,58.279c-0.888-2.196-2.219-4.186-3.994-5.959c-1.731-1.733-3.699-3.045-5.896-3.93
				c-2.196-0.89-4.458-1.327-6.771-1.327c-2.313-0.006-4.578,0.426-6.797,1.3c-2.217,0.864-4.217,2.186-5.985,3.958
				c-1.774,1.773-3.093,3.772-3.961,5.99c-0.869,2.211-1.302,4.478-1.302,6.797c0,2.313,0.441,4.567,1.334,6.764
				c0.884,2.197,2.194,4.165,3.929,5.896c1.774,1.775,3.763,3.106,5.959,3.994c2.196,0.883,4.452,1.33,6.765,1.33
				s4.568-0.447,6.766-1.33c2.201-0.888,4.185-2.219,5.959-3.994c1.775-1.771,3.104-3.759,3.994-5.955
				c0.885-2.201,1.33-4.457,1.326-6.765C93.721,62.734,93.277,60.475,92.395,58.279z M84.738,70.518
				c0.5,0.502,0.757,1.1,0.757,1.797c-0.007,0.693-0.257,1.291-0.757,1.793c-0.502,0.5-1.1,0.754-1.793,0.754
				c-0.697,0-1.295-0.254-1.797-0.754l-5.44-5.443l-5.442,5.443c-0.502,0.5-1.104,0.754-1.797,0.754s-1.289-0.254-1.791-0.754
				c-0.537-0.541-0.811-1.157-0.811-1.852c0-0.693,0.246-1.295,0.746-1.797l5.441-5.441l-5.379-5.385
				c-0.537-0.539-0.81-1.156-0.81-1.85c0-0.694,0.245-1.303,0.747-1.803c0.5-0.502,1.103-0.746,1.802-0.746
				c0.692,0,1.312,0.271,1.849,0.811l5.385,5.379l5.442-5.441c0.501-0.502,1.099-0.746,1.796-0.746c0.693,0,1.313,0.271,1.852,0.81
				c0.5,0.502,0.757,1.099,0.757,1.792c-0.007,0.698-0.257,1.295-0.757,1.796l-5.442,5.442L84.738,70.518z"/>
		</g>
	</g>
	<g display="inline">
		
			<rect x="15.286" y="14.979" transform="matrix(-0.9678 -0.2517 0.2517 -0.9678 24.4306 69.3884)" fill="#595757" width="2.732" height="36.307"/>
	</g>
	<g display="inline">
		
			<rect x="22.993" y="16.28" transform="matrix(-0.9641 -0.2655 0.2655 -0.9641 35.364 98.7867)" fill="#595757" width="2.731" height="61.448"/>
	</g>
	<g display="inline">
		
			<rect x="36.512" y="14.525" transform="matrix(-0.9662 -0.2578 0.2578 -0.9662 62.839 98.504)" fill="#595757" width="2.731" height="61.214"/>
	</g>
	<g display="inline">
		
			<rect x="49.991" y="14.504" transform="matrix(-0.9664 -0.2571 0.2571 -0.9664 89.196 103.3972)" fill="#595757" width="2.731" height="62.728"/>
	</g>
</g>
<g display="none">
	<path display="inline" fill="#0062AC" d="M53.146,14.542l-8.769-3.709c-2.385-1.16-5.382-0.124-6.557,2.271L12.646,67.21
		c-0.084,0.185-0.134,0.394-0.125,0.603l0.145,17.621c0,0.522,0.294,0.996,0.752,1.234c0.209,0.105,0.428,0.17,0.657,0.17
		c0.274,0,0.548-0.085,0.787-0.244l14.913-9.988c0.219-0.148,0.389-0.349,0.503-0.586l25.179-54.91
		C56.637,18.695,55.632,15.757,53.146,14.542L53.146,14.542z"/>
	<polygon display="inline" fill="#0062AC" points="36.377,78.447 36.377,68.878 87.479,68.878 87.479,78.447 	"/>
	<polygon display="inline" fill="#0062AC" points="45.688,54.527 87.479,54.527 87.479,64.094 45.688,64.094 	"/>
	<polygon display="inline" fill="#0062AC" points="53.988,40.175 87.479,40.175 87.479,49.743 53.988,49.743 	"/>
	<path display="inline" fill="#0062AC" d="M39.633,40.175"/>
</g>
<g>
	<path fill="#6E6E6E" d="M71.113,13.374c2.387,0,4.68,0.447,6.889,1.341c2.211,0.893,4.172,2.123,5.885,3.686
		c1.713,1.564,3.09,3.389,4.133,5.474c1.043,2.086,1.564,4.319,1.564,6.702V41.6h-9.012v-8.938c0-3.127-0.881-5.56-2.645-7.298
		c-1.76-1.737-4.131-2.606-7.109-2.606c-2.682,0-4.844,0.869-6.48,2.606c-1.639,1.738-2.457,4.171-2.457,7.298v9.087h-9.385V30.576
		c0-2.383,0.473-4.616,1.414-6.702c0.943-2.085,2.246-3.909,3.91-5.474c1.664-1.563,3.625-2.793,5.883-3.686
		C65.965,13.82,68.434,13.374,71.113,13.374L71.113,13.374z M70.967,64.164v9.905c0,1.34-0.238,2.607-0.709,3.799
		s-1.117,2.209-1.938,3.054c-0.818,0.843-1.785,1.513-2.902,2.01c-1.117,0.496-2.346,0.745-3.688,0.745H24.048
		c-1.34,0-2.557-0.235-3.649-0.707c-1.093-0.473-2.037-1.117-2.832-1.937c-0.793-0.818-1.402-1.774-1.825-2.868
		c-0.421-1.092-0.632-2.258-0.632-3.5V50.983c0-1.392,0.484-2.558,1.452-3.5c0.968-0.943,2.098-1.416,3.389-1.416h46.098
		c1.391,0,2.557,0.472,3.502,1.416c0.943,0.943,1.416,2.109,1.416,3.5V64.164z M70.967,64.164"/>
</g>
</svg>
