<?xml version="1.0" encoding="utf-8"?>
<!-- Generator: Adobe Illustrator 16.0.0, SVG Export Plug-In . SVG Version: 6.00 Build 0)  -->
<!DOCTYPE svg PUBLIC "-//W3C//DTD SVG 1.1//EN" "http://www.w3.org/Graphics/SVG/1.1/DTD/svg11.dtd">
<svg version="1.1" id="图层_1" xmlns="http://www.w3.org/2000/svg" xmlns:xlink="http://www.w3.org/1999/xlink" x="0px" y="0px"
	 width="200px" height="200px" viewBox="0 1779.179 200 200" enable-background="new 0 1779.179 200 200" xml:space="preserve">
<g>
	<path fill="#282828" d="M125.021,1941.313c16.246,5.905,26.58,16.979,26.58,29.523H44.561c0-12.545,11.073-23.618,28.05-29.523
		c-31.003-11.073-53.146-40.603-53.146-75.293c0-44.292,35.431-79.727,79.724-79.727c44.291,0,79.725,35.435,79.725,79.727
		C178.913,1900.711,156.768,1930.234,125.021,1941.313L125.021,1941.313z M100.664,1841.652c-22.885,0-42.078,19.196-42.078,42.08
		c0,22.885,19.193,42.074,42.078,42.074c23.622,0,42.075-19.189,42.075-42.074C142.739,1860.849,124.286,1841.652,100.664,1841.652
		L100.664,1841.652z M100.664,1906.617c-11.072,0-20.67-8.862-20.67-20.674c0-11.072,9.595-20.668,20.67-20.668
		c11.072,0,20.67,8.856,20.67,20.668C121.334,1897.017,112.475,1906.617,100.664,1906.617L100.664,1906.617z"/>
</g>
</svg>
