<?xml version="1.0" encoding="utf-8"?>
<!-- Generator: Adobe Illustrator 16.0.0, SVG Export Plug-In . SVG Version: 6.00 Build 0)  -->
<!DOCTYPE svg PUBLIC "-//W3C//DTD SVG 1.1//EN" "http://www.w3.org/Graphics/SVG/1.1/DTD/svg11.dtd">
<svg version="1.1" id="图层_1" xmlns="http://www.w3.org/2000/svg" xmlns:xlink="http://www.w3.org/1999/xlink" x="0px" y="0px"
	 width="100px" height="100px" viewBox="0 0 100 100" enable-background="new 0 0 100 100" xml:space="preserve">
<g display="none">
	<g display="inline">
		<path fill="#6E6E6E" d="M50.99,6.927l-0.35-0.214C51.378,7.714,51.378,7.246,50.99,6.927L50.99,6.927z M89.76,26.57
			c0.702,0.004,1.377-0.272,1.877-0.766c0.496-0.493,0.778-1.167,0.783-1.868V9.995c-0.008-1.458-1.197-2.637-2.654-2.629H75.713
			c-1.46-0.008-2.646,1.171-2.654,2.629v4.331h-8.627c-0.271-0.045-0.545-0.045-0.813,0h-36.9V9.995
			c-0.008-1.458-1.194-2.637-2.652-2.629H10.011C8.552,7.358,7.366,8.537,7.356,9.995v13.931c0.01,1.458,1.196,2.636,2.655,2.631
			h4.367v45.96h-4.367c-0.701-0.004-1.375,0.272-1.873,0.767c-0.498,0.493-0.78,1.167-0.782,1.87v13.931
			c0.01,1.459,1.196,2.634,2.655,2.629h14.054c0.7,0,1.373-0.272,1.871-0.767c0.498-0.497,0.78-1.166,0.782-1.869v-4.329H73.05
			v4.329c0.003,0.703,0.282,1.372,0.78,1.869c0.497,0.494,1.172,0.767,1.873,0.767h14.054c0.701,0,1.374-0.272,1.872-0.767
			c0.497-0.497,0.78-1.166,0.782-1.869V75.162c-0.002-0.7-0.285-1.373-0.782-1.866c-0.498-0.495-1.171-0.771-1.872-0.771h-4.366
			V35.542c0.006-0.089,0.006-0.179,0-0.269v-8.708h4.377L89.76,26.57z M19.702,45.104c0.159-0.104,0.311-0.224,0.447-0.358
			l25.336-25.142h12.087l-37.87,37.574V45.104z M24.069,26.566c1.458,0.004,2.645-1.172,2.652-2.63v-4.334h11.251L19.696,37.739
			V26.566H24.069z M19.702,64.627l45.384-45.026h7.967v3.234l-50.107,49.69h-3.259v-7.898H19.702L19.702,64.627z M80.08,53.609
			l-25.457,25.25c-0.189,0.188-0.35,0.4-0.473,0.631H42.055L80.08,41.776V53.609z M75.713,72.525c-0.701,0-1.377,0.274-1.873,0.771
			c-0.498,0.493-0.779,1.166-0.781,1.866v4.328H61.512L80.08,61.064v11.461H75.713z M80.08,34.32L34.534,79.49h-7.816v-3.247
			l50.083-49.677h3.279V34.32z"/>
	</g>
</g>
<g display="none">
	<path display="inline" fill="#6E6E6E" d="M49.888,6.713c-23.472,0-42.5,19.029-42.5,42.5s19.028,42.5,42.5,42.5
		c23.471,0,42.5-19.027,42.5-42.5C92.389,25.741,73.359,6.713,49.888,6.713L49.888,6.713z M49.888,83.912
		c-19.164,0-34.7-15.535-34.7-34.699s15.534-34.7,34.7-34.7c19.163,0,34.699,15.536,34.699,34.7S69.051,83.912,49.888,83.912
		L49.888,83.912z"/>
	<path display="inline" fill="#6E6E6E" d="M47.954,29.176c0,2.761,2.241,5.002,5.007,5.002c2.762,0,5.003-2.241,5.003-5.002
		c0-2.767-2.241-5.008-5.003-5.008C50.195,24.17,47.954,26.411,47.954,29.176L47.954,29.176z M51.518,75.258
		c-3.69,0.922-8.801,0.842-11.354-0.186c-2.557-1.023-3.486-4.754-2.064-8.284l6.369-15.871c1.417-3.53-0.426-7.254-4.092-8.272
		l-1.218-0.338c-3.666-1.018-3.594-2.352,0.164-2.96l3.644-0.595c3.757-0.611,8.919-0.274,11.474,0.75
		c2.557,1.027,3.479,4.753,2.054,8.285l-5.937,14.701c-1.429,3.531,0.358,7.312,3.959,8.398c3.608,1.09,3.537,2.735-0.154,3.66
		l-2.842,0.711H51.518L51.518,75.258z"/>
</g>
<g display="none">
	<g display="inline">
		<path fill="#6E6E6E" d="M49.888,6.713c-23.472,0-42.5,19.029-42.5,42.5s19.028,42.5,42.5,42.5c23.471,0,42.5-19.027,42.5-42.5
			C92.389,25.741,73.359,6.713,49.888,6.713z M54.361,74.547l-2.842,0.711h-0.002c-3.691,0.922-8.802,0.842-11.355-0.186
			c-2.557-1.023-3.486-4.754-2.064-8.284l6.369-15.871c1.417-3.53-0.426-7.254-4.092-8.272l-1.218-0.338
			c-3.666-1.018-3.594-2.352,0.164-2.96l3.644-0.595c3.757-0.611,8.919-0.274,11.475,0.75c2.556,1.027,3.479,4.753,2.053,8.285
			l-5.938,14.701c-1.428,3.531,0.359,7.312,3.961,8.398C58.124,71.977,58.053,73.622,54.361,74.547z M52.961,34.178
			c-2.766,0-5.007-2.241-5.007-5.002c0-2.765,2.241-5.005,5.007-5.008c2.762,0,5.003,2.241,5.003,5.008
			C57.964,31.937,55.723,34.178,52.961,34.178z"/>
	</g>
</g>
<path display="none" fill="#6E6E6E" d="M97.372,44.407L79.967,22.485c-1.922-2.402-5.479-2.402-7.4,0L55.258,44.407
	c-1.346,1.635-0.09,4.134,2.024,4.134h6.823c-0.19,12.783-0.19,29.034-22.593,42.012c-0.577,0.385-0.289,1.25,0.384,1.153
	c42.875-6.634,46.336-35.38,46.434-43.069h7.111C97.563,48.541,98.718,46.042,97.372,44.407L97.372,44.407z M42.569,49.886h-6.824
	c0.192-12.784,0.192-29.035,22.595-42.011c0.577-0.384,0.288-1.25-0.384-1.154c-42.884,6.633-46.344,35.475-46.44,43.069H4.403
	c-2.115,0-3.364,2.499-2.019,4.133l17.398,21.923c1.923,2.403,5.479,2.403,7.401,0l17.405-21.923
	C45.838,52.385,44.685,49.886,42.569,49.886L42.569,49.886z"/>
<path display="none" fill="#6E6E6E" d="M92.389,65.143h-42.5V54.518H23.334v-42.5h37.18v10.625h31.875l-10.625,21.25L92.389,65.143z
	 M12.709,91.714c-2.94,0-5.321-2.381-5.321-5.305V12.034c0-2.941,2.38-5.321,5.321-5.321s5.321,2.379,5.321,5.321v74.375
	C18.013,89.333,15.633,91.714,12.709,91.714L12.709,91.714z"/>
<g display="none">
	<path display="inline" fill="#6E6E6E" d="M80.667,34.834c-2.097,1.822-5.163,1.717-6.858-0.229
		c-1.688-1.948-1.363-5.001,0.732-6.821c2.092-1.822,5.163-1.719,6.857,0.229C83.089,29.959,82.764,33.01,80.667,34.834
		L80.667,34.834z M93.503,26.622L78.331,9.166c-2.579-2.968-7.063-3.287-10.026-0.713L47.113,26.872l4.442,5.114l6.282,7.223
		c0.83,0.951,0.728,2.466-0.274,3.334l-0.181,0.154c-0.998,0.871-2.489,0.784-3.337-0.192l-6.28-7.222l-4.442-5.11l-7.59,6.592
		l3.544,4.068l4.09,4.71c0.88,1.013,0.753,2.499-0.248,3.367l-0.18,0.153c-0.999,0.872-2.501,0.768-3.367-0.224l-4.093-4.711
		l-3.535-4.068l-7.584,6.592l4.442,5.114l6.282,7.226c0.827,0.95,0.721,2.464-0.274,3.331l-0.18,0.154
		c-1.004,0.873-2.493,0.785-3.34-0.188l-6.282-7.226l-4.442-5.11L6.961,61.779c-2.959,2.568-3.267,7.059-0.688,10.023l15.172,17.455
		c2.581,2.971,7.067,3.29,10.027,0.715l61.342-53.326C95.773,34.078,96.084,29.586,93.503,26.622L93.503,26.622z"/>
</g>
<g display="none">
	<path display="inline" fill="#6E6E6E" d="M49.888,6.713c-23.472,0-42.5,19.028-42.5,42.5c0,23.473,19.028,42.5,42.5,42.5
		c23.471,0,42.5-19.027,42.5-42.5C92.389,25.742,73.359,6.713,49.888,6.713L49.888,6.713z M53.518,9.724c0,0,2.662-1.544,3.59-0.617
		c0.926,0.926,4.168-0.154,12.506,4.786c0,0-1.836,1.959-2.237,1.841c0.233,0.426,0.955,1.724,1.466,2.526
		c0.618,0.97,0.771,1.037,0.771,1.037l-0.616,0.927l0.616,0.154c-0.616-0.154-0.926,1.698-1.819,2.007
		c-0.896,0.309,0.274,2.007-0.032,2.316c-0.31,0.309,0.153,3.088,0,4.725c-0.154,1.638-0.771,0.216-1.543,0
		c-0.773-0.215-2.01-0.711-2.113-1.174c-0.106-0.463-0.358-1.853-0.051-2.625c0.309-0.771-0.926-1.544-1.543-2.11
		c-0.617-0.565-3.088,0.104-3.552,0c-0.463-0.103-0.772-1.44-0.772-2.676c0-1.236,2.162,0.154,3.379,0
		c1.218-0.154,1.408-3.232,1.408-3.232l-0.07-2.617c-0.498-0.199-0.579-0.458,0.226-0.79c0,0-2.625-0.617-3.241,0.772
		c-0.617,1.389-0.928,1.255-1.082,2.635s-2.572,0.164-3.14,0c-0.565-0.165-2.11-2.018-2.11-2.018
		c0.465-1.081,0.772-1.853,0.772-1.853l-0.81-1.853V9.724H53.518z M29.159,24.083c0.262-0.35,2.008-3.396,4.169-2.47
		c2.162,0.926,3.551-1.081,3.551-1.081s3.174-3.242,3.363-2.779l0.189,0.463c-0.189-0.463,2.625-1.235,2.934,0.31
		c0.309,1.544,2.162,2.32,2.162,2.32s-1.081,1.848-0.772,3.237c0.309,1.391,1.389,1.699,0.772,2.935
		c-0.618,1.234-1.853,1.698-2.162,2.315c-0.309,0.618-2.848-2.007-3.123-2.934c-0.275-0.926-1.631-1.853-2.806-1.544
		s-4.263,1.081-4.88,0.772C31.939,25.318,28.436,25.049,29.159,24.083L29.159,24.083z M70.539,69.479
		c-1.234,3.242-4.168,8.803-5.712,10.347c-1.545,1.545-3.397,4.478-4.787,5.559c-1.39,1.08-1.39,3.089-3.088,2.935
		c-1.699-0.154-3.706-4.941-3.243-6.176c0.464-1.236-8.492-3.398-8.492-3.398s-3.86-0.463-4.632-7.873
		c-0.137-1.32-0.226-2.256-0.279-2.906c-1.16-0.512-5.71-2.396-8.522-1.727c-3.243,0.771-4.015-1.029-6.794-1.441l-4.787-4.426
		c0,0-7.874-9.109-6.948-10.654c0.926-1.544,0.926-5.713,1.081-6.64c0.155-0.926-1.232-6.794-1.157-7.565
		c0.076-0.772-1.159-3.706-1.159-3.706s2.934-6.177,3.397-6.177s2.162,5.25,3.86,5.404c1.698,0.154,6.33-0.154,7.025-0.926
		c0.695-0.772,1.313-1.698,2.084-1.698s0.772-0.464,2.162,0.154c1.389,0.617,2.934,1.544,3.551,2.47
		c0.618,0.927-0.463,2.779,2.779,2.779c3.243,0,3.243-0.771,3.706,1.39c0.463,2.162,1.012,6.948-0.343,7.258
		c-1.355,0.309-5.37,5.009-5.061,6.519c0.309,1.51,0.309,3.826-0.309,5.216c-0.617,1.389-1.081,1.852-3.396,1.697
		c-2.315-0.156-4.274-1.39-4.917,0.463c-0.642,1.854-1.871,6.026,0.285,5.606c0,0,3.396-1.034,4.632,0
		c1.235,1.033,9.11,4.431,9.11,4.431s7.103-7.722,18.22-2.779l1.853,1.236l3.089-0.672c0,0,4.014-1.183,5.404-0.873l1.39,0.309
		v-0.617C70.539,62.994,71.773,66.236,70.539,69.479L70.539,69.479z M88.604,51.878c0,0-0.926-1.391-0.926-2.852
		c0-1.462-1.08-1.318-1.08-3.171s-1.391-1.235-2.316-2.47c-0.926-1.235-1.389,0.463-2.161,0.617s-0.618,1.39-1.39,2.856
		c-0.772,1.467-2.779,2.394-3.396,2.118c-0.618-0.273-2.936-2.35-3.089-2.813c-0.155-0.463-3.243-3.088-3.157-3.705
		c0.086-0.618-0.857-3.86-1.475-5.404c-0.618-1.544,0-7.628,0-7.628c-0.928-0.524,8.492-4.416,7.257-4.879
		c-1.235-0.464-1.853-5.559-1.853-5.559l4.494,2.315c4.494,2.316,10.174,20.691,10.174,20.691v5.249L88.604,51.878z"/>
</g>
<g display="none">
	<rect x="38.409" y="15.26" display="inline" fill="#282828" width="23.182" height="69.544"/>
	<path display="inline" fill="#282828" d="M84.773,7.533H92.5v85h-7.727V7.533z M7.5,7.533h7.727v85H7.5V7.533z"/>
</g>
<g display="none">
	<path display="inline" fill="#6E6E6E" d="M44.908,84.934H23.062c-1.796,0-3.143-1.348-3.143-3.143V19.094
		c0-1.796,1.347-3.143,3.143-3.143h50.127c1.795,0,3.143,1.347,3.143,3.143v18.854c0,1.795,1.348,3.143,3.143,3.143
		s3.143-1.347,3.143-3.143V19.094c0-5.237-4.189-9.427-9.428-9.427H23.062c-5.237,0-9.427,4.19-9.427,9.427v62.697
		c0,5.236,4.189,9.428,9.427,9.428h21.996c1.796,0,3.143-1.348,3.143-3.144S46.704,84.934,44.908,84.934L44.908,84.934z"/>
	<path display="inline" fill="#6E6E6E" d="M70.047,31.664c0-1.796-1.347-3.143-3.143-3.143H29.347c-1.795,0-3.143,1.347-3.143,3.143
		c0,1.795,1.347,3.142,3.143,3.142h37.557C68.551,34.806,70.047,33.309,70.047,31.664L70.047,31.664z M46.405,50.368
		c0-1.795-1.347-3.142-3.142-3.142H29.347c-1.795,0-3.143,1.347-3.143,3.142c0,1.795,1.347,3.142,3.143,3.142h13.916
		C44.908,53.51,46.405,52.163,46.405,50.368L46.405,50.368z M29.347,66.079c-1.795,0-3.143,1.347-3.143,3.144
		c0,1.795,1.347,3.143,3.143,3.143h9.427c1.795,0,3.142-1.348,3.142-3.143c0-1.797-1.347-3.144-3.142-3.144H29.347z M97.279,89.422
		L84.561,77.303c2.096-2.994,3.592-6.585,3.892-10.476c1.196-11.821-7.033-21.846-18.854-23.043
		c-11.82-1.197-21.847,7.032-23.043,18.854c-1.197,11.82,7.033,21.846,18.854,23.043c5.236,0.598,10.175-0.748,14.064-3.44
		l12.869,12.271L97.279,89.422z M66.156,78.648c-7.631-0.748-13.317-7.633-12.568-15.412C54.336,55.604,61.219,49.919,69,50.667
		c7.631,0.748,13.316,7.631,12.568,15.412C80.82,73.711,73.788,79.396,66.156,78.648L66.156,78.648z"/>
</g>
<g display="none">
	<path display="inline" fill-rule="evenodd" clip-rule="evenodd" fill="#282828" d="M44.298,75.054
		c-17.74,0-32.172-14.433-32.172-32.172s14.432-32.173,32.172-32.173c17.739,0,32.172,14.434,32.172,32.173
		S62.037,75.054,44.298,75.054L44.298,75.054z M44.298,18.628c-13.374,0-24.254,10.88-24.254,24.254
		c0,13.371,10.88,24.253,24.254,24.253c13.372,0,24.253-10.882,24.253-24.253C68.552,29.508,57.67,18.628,44.298,18.628
		L44.298,18.628z"/>
	<path display="inline" fill-rule="evenodd" clip-rule="evenodd" fill="#282828" d="M81.872,85.329
		c-1.243,0-2.492-0.478-3.443-1.429l-16.81-16.807c-1.904-1.902-1.904-4.989,0-6.892c1.905-1.901,4.99-1.901,6.895,0l16.808,16.807
		c1.9,1.904,1.9,4.989,0,6.892C84.37,84.852,83.121,85.329,81.872,85.329L81.872,85.329z"/>
</g>
<g display="none">
	<g display="inline">
		<path fill="#282828" d="M56.278,60.703c0.721,1.289,1.19,2.654,1.19,4.097c0,6.901-8.951,12.496-19.994,12.496
			c-11.042,0-14.995-5.595-14.995-12.496c0-1.442,0.47-2.808,1.19-4.097c-6.771,2.75-11.187,6.893-11.187,11.595
			c0,8.281,8.428,14.995,24.991,14.995c16.564,0,29.991-6.714,29.991-14.995C67.466,67.596,63.05,63.453,56.278,60.703
			L56.278,60.703z M76.123,22.809C61.921,7.095,37.475,12.317,37.475,12.317h-4.998v59.981h9.997V47.306
			c5.232-3.788,13.058-6.248,19.994-4.999c21.018,5.127,29.99-9.997,29.99-9.997S85.01,32.641,76.123,22.809L76.123,22.809z
			 M62.468,32.311c-5.994-2.486-17.051,2.891-19.994,4.999V22.314c0,0,17.15-4.339,24.992,4.998
			c4.312,5.133,9.997,4.999,9.997,4.999S71.144,36.736,62.468,32.311L62.468,32.311z M62.468,32.311"/>
	</g>
</g>
<g display="none">
	<path display="inline" fill="#282828" d="M80.271,56.558v3.891c-0.058,0.188-0.129,0.378-0.167,0.571
		c-0.398,2.057-0.622,4.166-1.222,6.162c-1.779,5.889-5.112,10.796-9.785,14.802c-3.604,3.094-7.661,5.321-12.298,6.418
		c-1.524,0.361-3.088,0.574-4.634,0.856h-3.889c-0.189-0.059-0.383-0.146-0.576-0.159c-4.106-0.256-7.997-1.325-11.646-3.189
		c-6.899-3.515-11.876-8.747-14.149-16.274c-0.484-1.608-0.686-3.295-1.021-4.946v-3.712c0.146-0.912,0.273-1.832,0.445-2.743
		c0.736-3.983,2.506-7.511,4.85-10.767c2.211-3.064,4.559-6.033,6.656-9.175c2.267-3.409,3.364-7.192,2.721-11.34
		c-0.127-0.819-0.245-1.64-0.37-2.454c0.084-0.021,0.167-0.039,0.251-0.063c5.06,5.304,5.884,11.813,5.162,18.848
		c0.185-0.197,0.34-0.335,0.458-0.494c4.295-5.809,6.14-12.227,4.74-19.414c-0.89-4.572-2.814-8.683-6-12.1
		c-1.383-1.479-3.056-2.69-4.599-4.026h1.591c0.131,0.054,0.254,0.146,0.387,0.159c2.8,0.241,5.431,1.105,7.937,2.32
		c5.73,2.774,10.376,6.875,14.263,11.878c5.711,7.361,9.426,15.527,10.161,24.93c0.282,3.59-0.084,7.078-1.04,10.52
		c-0.362,1.303-0.872,2.563-1.338,3.92c1.854-0.789,3.263-1.996,4.351-3.559c3.245-4.674,4.152-9.885,3.417-15.646
		c0.239,0.277,0.361,0.387,0.445,0.525c1.954,3.088,3.417,6.383,4.181,9.963C79.856,53.677,80.033,55.127,80.271,56.558
		 M49.699,49.705c-0.073,0.052-0.153,0.105-0.228,0.157c-0.102,1.42-0.177,2.841-0.315,4.26c-0.202,2.166-0.72,4.254-1.733,6.197
		c-1.239,2.378-3.31,3.857-5.605,5.034c-2.475,1.277-4.034,3.102-4.236,5.981c-0.21,2.961,0.68,5.448,3.066,7.269
		c2.237,1.702,4.85,2.258,7.62,2.166c4.422-0.145,7.716-2.246,9.037-6.672c0.948-3.177,0.793-6.374,0.158-9.572
		c-0.866-4.383-2.453-8.469-5.17-12.05C51.531,51.475,50.567,50.626,49.699,49.705"/>
</g>
<g>
	<g>
		<g>
			<path fill="#282828" d="M52.515,46.495h-3.909c0-0.091-0.091-0.091-0.136-0.091c-0.454,0-0.91-0.091-1.318-0.136
				c-1.317-0.182-2.636-0.499-3.908-0.909c-1.454-0.455-2.818-1.091-4.136-1.817c-2-1.136-3.817-2.545-5.454-4.137
				c-0.637-0.589-1.181-1.226-1.772-1.907c-0.864-1.001-1.635-2-2.362-3.091c-1.001-1.454-1.864-3-2.592-4.59
				c-0.045-0.091-0.045-0.182-0.182-0.182v-0.228c0.092,0,0.092-0.046,0.137-0.136c0.136-0.272,0.272-0.592,0.41-0.864
				c0.771-1.545,1.68-3.044,2.681-4.454c0.818-1.136,1.681-2.272,2.682-3.272c0.909-1,1.908-1.909,2.954-2.772
				c1.408-1.136,2.864-2.09,4.454-2.909c1.363-0.727,2.817-1.226,4.317-1.681c0.772-0.228,1.59-0.408,2.409-0.5
				c0.682-0.091,1.408-0.227,2.09-0.227c0.092,0,0.182,0,0.182-0.091h3.045c0,0.091,0.092,0.091,0.183,0.091
				c0.545,0,1.136,0.091,1.682,0.136c1.227,0.137,2.409,0.41,3.545,0.773c1.727,0.545,3.363,1.272,4.953,2.181
				c1.773,1.046,3.409,2.318,4.909,3.728c0.817,0.771,1.59,1.636,2.318,2.544c0.862,1.001,1.635,2.092,2.362,3.182
				c0.818,1.272,1.546,2.59,2.182,3.954c0.046,0.092,0.046,0.183,0.182,0.183v0.409c-0.046,0-0.091,0.045-0.091,0.09
				c-0.228,0.5-0.454,1.001-0.727,1.5c-0.456,0.864-0.909,1.682-1.456,2.454c-0.998,1.546-2.089,2.999-3.361,4.363
				c-0.864,0.955-1.772,1.817-2.728,2.635c-1,0.819-2,1.591-3.136,2.272c-1.408,0.864-2.864,1.59-4.454,2.137
				c-1.862,0.682-3.817,1.091-5.771,1.227C52.605,46.404,52.515,46.404,52.515,46.495L52.515,46.495z M50.515,39.678
				c5.636,0.046,10.18-4.499,10.227-10.044c0.045-5.771-4.501-10.226-10.091-10.271c-5.817-0.045-10.044,4.545-10.271,9.726
				C40.152,35.087,45.061,39.724,50.515,39.678L50.515,39.678z M50.561,34.588c-2.727,0.045-5.182-2.319-5.046-5.318
				c0.138-2.637,2.228-4.864,5.046-4.909c2.953,0,5.136,2.272,5.136,5.136S53.378,34.633,50.561,34.588L50.561,34.588z
				 M68.83,49.448c-0.136,0.092-0.228,0.138-0.363,0.229c0,0-0.046,0-0.046,0.045c-1.09,0.636-2.228,1.183-3.363,1.682h-0.136
				c-0.092,0.045-0.137,0.045-0.228,0.091l0.864,2.09c1.772-0.727,3.544-1.635,5.181-2.635L68.83,49.448z M61.831,52.722
				c-1.5,0.499-3.045,0.909-4.636,1.228h-0.273l0.364,2.227c1.909-0.318,3.818-0.818,5.636-1.409L61.831,52.722z M54.287,54.357
				c-0.501,0.046-0.955,0.091-1.455,0.136h-0.499c-0.409,0-0.818,0-1.229-0.045l-0.09,2.271c0.591,0.047,1.228,0.047,1.817,0.047
				c1.318,0,2.682-0.092,4-0.228L54.287,54.357z M41.243,53.313l-0.59,2.181c1.864,0.5,3.771,0.863,5.682,1.091l0.271-2.271
				c-0.908-0.092-1.772-0.228-2.681-0.41h-0.272C42.561,53.676,41.879,53.494,41.243,53.313L41.243,53.313z M34.063,50.494l-1.046,2
				c1.728,0.909,3.5,1.682,5.318,2.317l0.727-2.136h-0.317c0,0-0.045,0-0.045-0.045c0,0-0.046,0-0.046-0.047
				c0,0-0.045,0-0.045-0.045h-0.046c0,0-0.045,0-0.045-0.045c-0.365-0.137-0.727-0.318-1.091-0.454c0,0-0.045,0-0.045-0.046
				l-0.273-0.137c0,0-0.046,0-0.046-0.045c0,0-0.045,0-0.045-0.046c0,0-0.045,0-0.045-0.045c0,0-0.045,0-0.045-0.046h-0.045
				c0,0-0.046,0-0.046-0.045h-0.046c0,0-0.045,0-0.045-0.045c0,0-0.045,0-0.045-0.047c0,0-0.045,0-0.045-0.045
				c0,0-0.046,0-0.046-0.046c0,0-0.046,0-0.046-0.045c0,0-0.045,0-0.045-0.046C34.744,50.813,34.427,50.676,34.063,50.494
				L34.063,50.494z M26.063,45.268l-1.862,5.136l2.136,0.772l0.909-2.499c1.182,0.909,2.408,1.817,3.682,2.59l1.181-1.955h-0.136
				c0,0-0.045,0-0.045-0.045c-0.864-0.545-1.681-1.137-2.454-1.728l-0.136-0.136h-0.045c-0.319-0.272-0.591-0.5-0.909-0.773
				L26.063,45.268z M23.428,52.539l-1.864,5.136l2.137,0.773l1.862-5.136L23.428,52.539z M20.746,59.766l-1.864,5.136l2.137,0.771
				l1.863-5.135L20.746,59.766z M18.111,67.038l-1.864,5.136l2.136,0.772l1.862-5.136L18.111,67.038z M16.019,74.218l-0.135,0.228
				l-0.409-0.136l-0.637,1.727v0.091c0,0,0.045,0,0.045,0.045c0.774,0.501,1.545,0.955,2.319,1.454c0,0,0.045,0,0.045,0.046
				c0,0,0.045,0,0.045,0.046h0.045c0.138,0.091,0.272,0.136,0.41,0.227l1.136-1.953l-1.363-0.818l0.045-0.091l-0.455-0.183
				L16.019,74.218z M20.837,77.036l-1.091,1.999c0.591,0.318,1.227,0.637,1.817,0.955c0.045,0,0.045,0.045,0.091,0.045
				c0.046,0,0.046,0.045,0.091,0.045s0.045,0.047,0.09,0.047h0.092c0,0,0.045,0,0.045,0.045h0.045c0.045,0,0.045,0.046,0.091,0.046
				c0.046,0,0.046,0.045,0.091,0.045l1.772,0.817l0.909-2.09C23.973,78.626,22.383,77.854,20.837,77.036L20.837,77.036z
				 M27.608,80.172l-0.817,2.136c0.227,0.091,0.5,0.182,0.728,0.273h0.045c0.909,0.317,1.772,0.635,2.682,0.953h0.09
				c0.364,0.092,0.682,0.228,1.046,0.318l0.637-2.182C30.881,81.354,29.199,80.809,27.608,80.172L27.608,80.172z M34.699,82.444
				l-0.592,2.182c0.045,0,0.091,0.045,0.182,0.045h0.864c0.773,0.136,1.5,0.318,2.272,0.454l0.365-2.227
				C38.107,83.263,36.38,82.898,34.699,82.444L34.699,82.444z M42.016,83.897l-0.318,2.273c0.092,0,0.227,0.045,0.318,0.045h0.545
				c0.773,0.046,1.545,0.138,2.318,0.183l0.137-2.272C45.47,84.308,43.742,84.126,42.016,83.897L42.016,83.897z M54.696,84.354
				c-1.364,0.091-2.772,0.136-4.136,0.136h-1.136l-0.047,2.272h1.272c0.546,0,1.091-0.045,1.637-0.091L54.696,84.354z
				 M62.104,83.398c-1.728,0.318-3.454,0.546-5.227,0.728l0.228,2.272h0.318c1.136-0.137,2.271-0.273,3.408-0.454h0.182
				c0.137-0.047,0.272-0.047,0.409-0.092L62.104,83.398z M69.329,81.626c-1.68,0.5-3.362,0.955-5.089,1.363l0.5,2.227
				c0.182-0.045,0.317-0.091,0.5-0.091h0.091c1-0.228,1.953-0.499,2.953-0.771h0.137c0.409-0.138,0.772-0.228,1.182-0.364
				L69.329,81.626z M76.283,78.99c-1.591,0.727-3.227,1.363-4.908,1.954l0.727,2.136h0.092c1.59-0.591,3.181-1.227,4.726-1.908
				L76.283,78.99z M82.919,75.581c-1.501,0.909-3.045,1.728-4.637,2.501l1,2.045c1.637-0.818,3.228-1.682,4.818-2.592L82.919,75.581
				z M84.691,71.399l-2.136,0.774l1.727,4.68l1.682-0.591l-1.682,0.591l1.682-0.591l0.046,0.092
				c0.136-0.092,0.228-0.137,0.363-0.228L84.691,71.399z M82.055,64.129l-2.136,0.772l1.864,5.136l2.136-0.773L82.055,64.129z
				 M79.374,56.902l-2.137,0.772l1.864,5.136l2.136-0.772L79.374,56.902z M76.738,49.631l-2.136,0.772l1.862,5.136l2.136-0.772
				L76.738,49.631z M75.011,44.995h-0.318c-0.454,0.409-0.909,0.819-1.408,1.228h-0.046l-0.137,0.136l-0.045,0.045l-0.046,0.046
				l-0.045,0.045l-0.183,0.182c-0.59,0.5-1.227,0.954-1.908,1.408l1.318,1.864c0.953-0.682,1.908-1.41,2.817-2.182l1.091-0.408
				c0,0-0.045-0.182-0.136-0.41l-0.592-1.545C75.102,45.222,75.011,44.995,75.011,44.995L75.011,44.995z M75.011,44.995"/>
		</g>
	</g>
	<line fill="none" stroke="#282828" stroke-miterlimit="10" x1="33.513" y1="53.095" x2="23.92" y2="59.153"/>
	<line fill="none" stroke="#282828" stroke-miterlimit="10" x1="41.011" y1="53.927" x2="19.806" y2="67.331"/>
	<line fill="none" stroke="#282828" stroke-miterlimit="10" x1="45.555" y1="56.274" x2="17.609" y2="73.92"/>
	<line fill="none" stroke="#282828" stroke-miterlimit="10" x1="51.992" y1="57.183" x2="20.108" y2="77.252"/>
	<line fill="none" stroke="#282828" stroke-miterlimit="10" x1="63.58" y1="54.684" x2="24.804" y2="79.827"/>
	<line fill="none" stroke="#282828" stroke-miterlimit="10" x1="75.47" y1="51.578" x2="28.667" y2="81.947"/>
	<line fill="none" stroke="#282828" stroke-miterlimit="10" x1="77.666" y1="55.668" x2="35.028" y2="83.311"/>
	<line fill="none" stroke="#282828" stroke-miterlimit="10" x1="79.938" y1="60.212" x2="42.374" y2="84.674"/>
	<line fill="none" stroke="#282828" stroke-miterlimit="10" x1="81.604" y1="66.347" x2="52.977" y2="84.75"/>
	<line fill="none" stroke="#282828" stroke-miterlimit="10" x1="83.422" y1="70.663" x2="62.873" y2="84.019"/>
</g>
</svg>
